<?xml version="1.0" encoding="UTF-8" standalone="no"?>
<!-- Created with Inkscape (http://www.inkscape.org/) -->

<svg
   width="80.345116mm"
   height="76.893326mm"
   viewBox="0 0 80.345116 76.893326"
   version="1.1"
   id="svg1"
   xml:space="preserve"
   xmlns="http://www.w3.org/2000/svg"
   xmlns:svg="http://www.w3.org/2000/svg"><defs
     id="defs1" /><g
     id="layer1"
     transform="translate(-89.071472,-101.13995)"><rect
       style="fill:#3283c8;fill-opacity:1;stroke-width:7.04116"
       id="rect79229"
       width="80.345116"
       height="76.893326"
       x="89.071472"
       y="101.13995"
       ry="5.9184785" /><path
       style="fill:#fcfcfc"
       d="m 113.47982,165.99404 c -4.73513,-0.59875 -7.379,-2.50033 -8.43898,-6.06965 -0.64884,-2.18489 -0.54299,-3.84521 0.36333,-5.69924 0.42682,-0.87313 0.68584,-1.61934 0.5756,-1.65824 -1.16848,-0.4124 -3.98369,-2.41315 -5.4848,-3.89801 -2.469437,-2.4427 -3.415865,-4.33511 -3.417865,-6.83411 -0.0014,-1.70716 0.0463,-1.84972 0.862623,-2.57968 1.138565,-1.01813 2.471752,-1.05464 3.363782,-0.0921 0.34689,0.3743 0.99318,1.68229 1.4362,2.90664 0.44303,1.22435 1.11812,2.84303 1.50022,3.59706 0.728,1.43665 3.14199,4.19283 3.67227,4.19283 0.1698,0 0.55202,-0.32742 0.84937,-0.7276 0.29735,-0.40018 2.29114,-2.69214 4.43064,-5.09323 4.2605,-4.78141 5.31241,-6.48837 6.22554,-10.10241 0.62689,-2.48114 1.21037,-8.38742 0.86292,-8.73487 -0.14992,-0.14992 -0.7644,0.45338 -1.58606,1.55721 -2.11178,2.83696 -4.96095,5.37382 -6.03538,5.37382 -2.52129,0 -0.36465,-7.74356 3.24142,-11.63855 2.36796,-2.55768 3.26204,-2.83786 5.51667,-1.72876 0.72761,0.35792 1.47475,0.65449 1.66032,0.65904 0.18558,0.005 1.11634,-0.71637 2.06837,-1.60203 0.95202,-0.88567 2.40753,-1.92747 3.23447,-2.31511 1.39675,-0.65475 1.74775,-0.70335 4.94309,-0.68438 2.53761,0.0151 3.74319,0.13649 4.59733,0.46302 0.63676,0.24343 1.18108,0.4426 1.20961,0.4426 0.0285,0 0.31025,-0.57172 0.62606,-1.2705 1.18561,-2.62337 2.90748,-3.65369 4.69136,-2.80718 2.77191,1.31536 7.79335,7.6138 7.79335,9.77526 0,1.41717 -2.70757,1.35815 -5.38037,-0.11727 -2.04646,-1.12967 -3.00433,-1.33927 -3.24571,-0.71024 -0.0785,0.20469 0.16344,1.73763 0.53775,3.40654 0.98789,4.40467 1.35703,9.2858 0.982,12.98497 -0.41229,4.06668 -1.03024,6.35929 -2.64476,9.81208 -0.0642,0.13734 0.48331,-0.19079 1.21672,-0.72917 2.41149,-1.77019 4.55466,-2.2757 5.45066,-1.28563 0.65264,0.72116 0.54199,1.1616 -0.55431,2.20656 -1.17388,1.11891 -2.81459,2.09136 -5.49287,3.25566 -3.25204,1.41372 -10.65531,5.97032 -10.95738,6.74411 -0.14413,0.3692 -0.49733,2.01951 -0.78488,3.66736 -0.60025,3.43974 -1.0169,4.27996 -2.12239,4.27996 -1.40405,0 -1.85733,-0.67682 -2.30021,-3.43455 -0.22158,-1.37968 -0.4547,-2.56036 -0.51807,-2.62372 -0.15551,-0.15551 -2.7829,1.66981 -4.15059,2.88353 l -1.10447,0.98012 0.72872,0.86603 c 0.4008,0.47632 0.68755,0.99988 0.63722,1.16346 -0.32924,1.07017 -5.12714,1.7155 -9.05852,1.21839 z m 20.33793,-36.77868 0.6735,-0.80041 0.99974,0.53583 c 0.54986,0.2947 1.13428,0.53583 1.29871,0.53583 0.55418,0 1.63242,-1.04455 1.81045,-1.75388 0.23155,-0.92256 -0.30672,-1.5005 -0.73992,-0.79444 -0.16682,0.27192 -0.49389,0.73918 -0.7268,1.03836 l -0.42347,0.54398 -0.83306,-0.59319 c -0.68258,-0.48604 -0.7853,-0.6824 -0.56871,-1.08712 0.62524,-1.16827 -0.21117,-3.17455 -1.32346,-3.17455 -1.27544,0 -1.78446,1.98783 -0.7822,3.05468 0.46789,0.49805 0.49731,0.66983 0.21922,1.28017 -0.42018,0.92219 -1.27924,1.11174 -2.47244,0.54553 -0.67582,-0.3207 -1.0473,-0.37402 -1.24292,-0.1784 -0.38359,0.38359 -0.047,0.83871 0.93697,1.26692 1.41067,0.6139 2.41683,0.481 3.17439,-0.41931 z m -5.44188,-6.13167 c 0.79219,-0.7922 -0.10727,-2.04247 -1.0784,-1.499 -0.76524,0.42825 -0.40616,1.8165 0.46986,1.8165 0.16007,0 0.43391,-0.14287 0.60854,-0.3175 z m 10.09653,-2.18333 c 0.55096,-0.66386 0.22358,-1.33563 -0.65091,-1.33563 -0.5467,0 -0.81444,0.14505 -0.87812,0.47573 -0.10505,0.54549 0.38804,1.24406 0.87812,1.24406 0.18265,0 0.47556,-0.17287 0.65091,-0.38416 z"
       id="path79247" /><path
       style="fill:#edf2f8"
       d="m 148.66941,146.94911 c 0.26339,-0.29104 0.53842,-0.52917 0.61118,-0.52917 0.0728,0 -0.0832,0.23813 -0.3466,0.52917 -0.26339,0.29104 -0.53842,0.52916 -0.61118,0.52916 -0.0728,0 0.0832,-0.23812 0.3466,-0.52916 z m -28.42182,-20.26268 c 0.0127,-0.30822 0.0754,-0.37091 0.15985,-0.15985 0.0764,0.191 0.067,0.4192 -0.0209,0.50712 -0.0879,0.0879 -0.15045,-0.0683 -0.13896,-0.34727 z"
       id="path79246" /><path
       style="fill:#d6e5f3"
       d="m 100.09834,148.60275 -0.641432,-0.7276 0.727602,0.64143 c 0.68006,0.59952 0.84894,0.81378 0.64143,0.81378 -0.0474,0 -0.37481,-0.32742 -0.7276,-0.72761 z m 20.17014,-22.82031 c 0,-0.3638 0.0601,-0.51263 0.13345,-0.33073 0.0734,0.1819 0.0734,0.47956 0,0.66146 -0.0734,0.1819 -0.13345,0.0331 -0.13345,-0.33073 z m 27.05287,-11.97239 -0.50403,-0.59532 0.59532,0.50403 c 0.55944,0.47366 0.71576,0.6866 0.50402,0.6866 -0.0502,0 -0.31809,-0.26789 -0.59531,-0.59531 z"
       id="path79245" /><path
       style="fill:#9ac2e3"
       d="m 99.53959,138.3017 c 0.190996,-0.0764 0.419199,-0.067 0.50712,0.0209 0.0879,0.0879 -0.06835,0.15045 -0.347267,0.13896 -0.308225,-0.0127 -0.37092,-0.0754 -0.159853,-0.15985 z m 33.86667,-23.8125 c 0.19099,-0.0764 0.4192,-0.067 0.50711,0.0209 0.0879,0.0879 -0.0683,0.15045 -0.34726,0.13896 -0.30823,-0.0127 -0.37092,-0.0754 -0.15985,-0.15985 z"
       id="path79244" /><path
       style="fill:#fc9433"
       d="m 145.6267,165.05993 c 0,-0.98784 0.58297,-1.93813 2.09591,-3.4165 0.73902,-0.72213 1.34367,-1.39649 1.34367,-1.49857 0,-0.10208 -0.77772,-0.80445 -1.72826,-1.56083 -3.38158,-2.6908 -3.36752,-4.21886 0.0675,-7.33139 l 1.5285,-1.38502 -0.89988,-0.75747 c -0.53627,-0.4514 -0.78587,-0.82794 -0.61772,-0.93186 0.15519,-0.0959 0.63686,0.12406 1.07037,0.48884 0.43351,0.36477 0.96125,0.66323 1.17275,0.66323 0.56643,0 3.25587,-2.92398 3.4679,-3.77032 0.20368,-0.81301 0.96595,-1.00093 0.96595,-0.23813 0,0.72913 -1.34753,2.43175 -2.74022,3.46231 -0.67569,0.49999 -1.22846,0.97624 -1.22838,1.05833 8e-5,0.0821 0.77049,0.83815 1.71202,1.68011 2.9209,2.61204 2.92581,3.98108 0.0252,7.02289 -1.40615,1.47459 -1.54129,1.70565 -1.13164,1.9349 1.0602,0.59332 3.59849,2.89753 3.73982,3.39494 0.0838,0.29492 0.21992,0.77434 0.30249,1.06539 0.11321,0.39907 0.0238,0.52916 -0.36381,0.52916 -0.35615,0 -0.56132,-0.23702 -0.66833,-0.77207 -0.17594,-0.8797 -1.31986,-2.27143 -2.88749,-3.51301 l -1.07189,-0.84895 -1.4148,1.51998 c -0.98197,1.05499 -1.50564,1.88077 -1.71175,2.69931 -0.32443,1.28844 -1.02789,1.63386 -1.02789,0.50473 z m 5.50011,-6.57119 c 2.57674,-2.79543 2.54397,-4.2305 -0.15684,-6.8691 -1.54152,-1.506 -1.60758,-1.49323 -3.69588,0.71485 -1.2715,1.34442 -1.38281,1.56415 -1.38281,2.72977 0,1.21611 0.0705,1.33513 1.73366,2.92626 0.95352,0.91222 1.89085,1.65859 2.08297,1.65859 0.19212,0 0.83063,-0.52217 1.4189,-1.16037 z m -2.4574,-0.69172 c -0.0988,-0.15979 0.26183,-0.26458 0.91042,-0.26458 0.59068,0 1.07395,0.11906 1.07395,0.26458 0,0.14553 -0.40969,0.26459 -0.91042,0.26459 -0.50074,0 -0.98402,-0.11906 -1.07395,-0.26459 z m -0.7792,-1.29936 c -0.16703,-0.27026 2.9358,-0.51112 3.34085,-0.25933 0.31341,0.19482 -1.09995,0.50036 -2.31453,0.50036 -0.48254,0 -0.94438,-0.10846 -1.02632,-0.24103 z m -0.67601,-1.61105 c 0.53871,-0.34814 5.10995,-0.34814 4.89479,0 -0.0911,0.14742 -1.29897,0.26279 -2.72759,0.26053 -1.75322,-0.003 -2.43857,-0.0852 -2.1672,-0.26053 z m 0.52917,-1.32292 c 0,-0.1514 0.79895,-0.26458 1.86769,-0.26458 1.17776,0 1.8073,0.0977 1.70418,0.26458 -0.0899,0.14552 -0.9304,0.26458 -1.8677,0.26458 -0.95973,0 -1.70417,-0.11558 -1.70417,-0.26458 z m 0.92604,-1.32292 c -0.10019,-0.1621 0.27805,-0.25436 0.97657,-0.23821 0.96344,0.0223 1.0376,0.0592 0.47864,0.23821 -0.94185,0.30164 -1.26879,0.30164 -1.45521,0 z m -0.92604,11.90626 c 0,-0.15794 1.01944,-0.26459 2.52915,-0.26459 1.61873,0 2.4703,0.0953 2.36564,0.26459 -0.0899,0.14552 -1.22806,0.26458 -2.52916,0.26458 -1.4007,0 -2.36563,-0.10792 -2.36563,-0.26458 z m 1.05833,-1.32292 c 0,-0.14552 0.66187,-0.26458 1.47082,-0.26458 0.91318,0 1.40883,0.10031 1.3073,0.26458 -0.0899,0.14552 -0.7518,0.26458 -1.47082,0.26458 -0.71901,0 -1.3073,-0.11906 -1.3073,-0.26458 z m -0.26458,-15.34584 c 0.52361,-0.33838 2.38125,-0.33838 2.38125,0 0,0.14552 -0.62508,0.26276 -1.38907,0.26054 -0.99442,-0.003 -1.2763,-0.0769 -0.99218,-0.26054 z m 1.05833,-1.32291 c 0,-0.14552 0.47625,-0.26459 1.05833,-0.26459 0.58209,0 1.05834,0.11907 1.05834,0.26459 0,0.14552 -0.47625,0.26458 -1.05834,0.26458 -0.58208,0 -1.05833,-0.11906 -1.05833,-0.26458 z"
       id="path79243" /><path
       style="fill:#e79243"
       d="m 149.39071,160.81891 c 0.2512,-0.26227 0.51367,-0.41989 0.58328,-0.35029 0.0696,0.0696 -0.13592,0.28419 -0.45672,0.47684 -0.55729,0.33468 -0.56293,0.32904 -0.12656,-0.12655 z m 1.21346,-4.26096 c 0.191,-0.0764 0.4192,-0.067 0.50712,0.0209 0.0879,0.0879 -0.0684,0.15045 -0.34726,0.13896 -0.30823,-0.0127 -0.37092,-0.0754 -0.15986,-0.15985 z m -0.81028,-0.52365 c 0.1819,-0.0734 0.47955,-0.0734 0.66146,0 0.1819,0.0734 0.0331,0.13345 -0.33073,0.13345 -0.36381,0 -0.51263,-0.0601 -0.33073,-0.13345 z m -0.26459,-4.23334 c 0.1819,-0.0734 0.47956,-0.0734 0.66146,0 0.1819,0.0734 0.0331,0.13345 -0.33073,0.13345 -0.3638,0 -0.51263,-0.0601 -0.33073,-0.13345 z m -0.77721,-3.97426 c 0.191,-0.0764 0.4192,-0.067 0.50712,0.0209 0.0879,0.0879 -0.0684,0.15045 -0.34727,0.13896 -0.30822,-0.0127 -0.37092,-0.0754 -0.15985,-0.15985 z m 0.79375,-1.32292 c 0.191,-0.0764 0.4192,-0.067 0.50712,0.0209 0.0879,0.0879 -0.0684,0.15046 -0.34727,0.13897 -0.30822,-0.0127 -0.37092,-0.0754 -0.15985,-0.15985 z"
       id="path79242" /><path
       style="fill:#d09053"
       d="m 147.2142,161.89807 c 0.34177,-0.3638 0.68094,-0.66146 0.7537,-0.66146 0.0728,0 -0.14734,0.29766 -0.48912,0.66146 -0.34177,0.3638 -0.68094,0.66146 -0.7537,0.66146 -0.0728,0 0.14735,-0.29766 0.48912,-0.66146 z m 1.05833,0 c 0.34178,-0.3638 0.68094,-0.66146 0.7537,-0.66146 0.0728,0 -0.14734,0.29766 -0.48911,0.66146 -0.34178,0.3638 -0.68094,0.66146 -0.7537,0.66146 -0.0728,0 0.14734,-0.29766 0.48911,-0.66146 z m 2.91042,-2.59633 c 0,-0.0455 0.38695,-0.43249 0.8599,-0.8599 l 0.85989,-0.77711 -0.7771,0.8599 c -0.72438,0.80154 -0.94269,0.98151 -0.94269,0.77711 z m -0.39688,-0.71097 c 0.26339,-0.29104 0.53843,-0.52916 0.61119,-0.52916 0.0728,0 -0.0832,0.23812 -0.3466,0.52916 -0.26339,0.29105 -0.53842,0.52917 -0.61118,0.52917 -0.0728,0 0.0832,-0.23812 0.34659,-0.52917 z m -2.17777,-2.5646 c 0.25743,-0.0671 0.61462,-0.0627 0.79375,0.01 0.17913,0.0725 -0.0315,0.12736 -0.46806,0.12197 -0.43656,-0.005 -0.58312,-0.0647 -0.32569,-0.13177 z m -0.91454,-0.79114 c 0.19099,-0.0764 0.4192,-0.067 0.50711,0.0209 0.0879,0.0879 -0.0684,0.15046 -0.34726,0.13897 -0.30823,-0.0127 -0.37092,-0.0754 -0.15985,-0.15985 z m 4.65468,-3.32499 -0.50403,-0.59531 0.59531,0.50403 c 0.55945,0.47366 0.71576,0.6866 0.50403,0.6866 -0.0502,0 -0.3181,-0.26789 -0.59531,-0.59532 z m -2.68181,-4.08595 c 0.25743,-0.0671 0.61462,-0.0627 0.79375,0.01 0.17913,0.0725 -0.0315,0.12736 -0.46806,0.12197 -0.43656,-0.005 -0.58312,-0.0647 -0.32569,-0.13178 z"
       id="path79241" /><path
       style="fill:#4d93ce"
       d="m 116.19489,166.34115 c 0.32912,-0.0633 0.80537,-0.0609 1.05833,0.005 0.25297,0.0662 -0.0163,0.118 -0.5984,0.11506 -0.58208,-0.003 -0.78905,-0.0571 -0.45993,-0.1204 z m -16.233954,-17.60611 -0.504028,-0.59531 0.595312,0.50403 c 0.55945,0.47366 0.71576,0.6866 0.50403,0.6866 -0.0502,0 -0.3181,-0.26789 -0.595314,-0.59532 z m 10.740764,-2.41499 c 0,-0.0549 0.20836,-0.26331 0.46302,-0.46303 0.41964,-0.3291 0.429,-0.31974 0.0999,0.0999 -0.34564,0.44073 -0.56291,0.58089 -0.56291,0.36313 z m 2.38125,-2.64584 c 0,-0.0549 0.20836,-0.2633 0.46302,-0.46302 0.41964,-0.3291 0.429,-0.31975 0.0999,0.0999 -0.34564,0.44073 -0.56292,0.58089 -0.56292,0.36313 z m 32.36599,-9.82198 c 0.001,-1.01864 0.049,-1.40294 0.10627,-0.85399 0.0573,0.54895 0.0563,1.38238 -0.002,1.85208 -0.0584,0.4697 -0.10531,0.0206 -0.10414,-0.99809 z m -34.19719,-3.19705 c 0.0127,-0.30822 0.0754,-0.37092 0.15986,-0.15985 0.0764,0.191 0.067,0.4192 -0.0209,0.50712 -0.0879,0.0879 -0.15046,-0.0684 -0.13897,-0.34727 z m 4.47703,-10.52888 c 0,-0.0549 0.20836,-0.26331 0.46302,-0.46302 0.41965,-0.32911 0.42901,-0.31975 0.0999,0.0999 -0.34564,0.44072 -0.56291,0.58088 -0.56291,0.36312 z"
       id="path79240" /><path
       style="fill:#af8d6c"
       d="m 151.92709,163.7017 c 0.191,-0.0764 0.4192,-0.067 0.50712,0.0209 0.0879,0.0879 -0.0684,0.15045 -0.34727,0.13896 -0.30822,-0.0127 -0.37092,-0.0754 -0.15985,-0.15985 z m -1.73633,-1.32456 c 0.25466,-0.0665 0.67138,-0.0665 0.92604,0 0.25467,0.0666 0.0463,0.121 -0.46302,0.121 -0.50932,0 -0.71768,-0.0545 -0.46302,-0.121 z m -0.78871,-5.02805 c 0.25743,-0.0671 0.61462,-0.0627 0.79375,0.01 0.17913,0.0725 -0.0315,0.12736 -0.46806,0.12197 -0.43656,-0.005 -0.58312,-0.0647 -0.32569,-0.13178 z m -4.8128,-2.35224 c 0.0127,-0.30822 0.0754,-0.37092 0.15986,-0.15985 0.0764,0.19099 0.067,0.4192 -0.0209,0.50712 -0.0879,0.0879 -0.15046,-0.0684 -0.13897,-0.34727 z m 4.01905,0.23557 c 0.25743,-0.0671 0.61462,-0.0627 0.79375,0.01 0.17913,0.0725 -0.0315,0.12736 -0.46806,0.12197 -0.43656,-0.005 -0.58312,-0.0647 -0.32569,-0.13177 z m 1.99587,-2.11405 c 0.191,-0.0764 0.4192,-0.067 0.50712,0.0209 0.0879,0.0879 -0.0684,0.15045 -0.34726,0.13896 -0.30823,-0.0127 -0.37092,-0.0754 -0.15986,-0.15985 z m 0.26459,-6.61459 c 0.19099,-0.0764 0.4192,-0.067 0.50711,0.0209 0.0879,0.0879 -0.0683,0.15046 -0.34726,0.13897 -0.30822,-0.0127 -0.37092,-0.0754 -0.15985,-0.15985 z"
       id="path79239" /><path
       style="fill:#8c8c89"
       d="m 149.79389,164.50096 c 0.1819,-0.0734 0.47955,-0.0734 0.66146,0 0.1819,0.0734 0.0331,0.13346 -0.33073,0.13346 -0.36381,0 -0.51263,-0.0601 -0.33073,-0.13346 z m 0.28112,-0.79926 c 0.19099,-0.0764 0.4192,-0.067 0.50712,0.0209 0.0879,0.0879 -0.0684,0.15045 -0.34727,0.13896 -0.30822,-0.0127 -0.37092,-0.0754 -0.15985,-0.15985 z m 0.52916,-8.46667 c 0.191,-0.0764 0.4192,-0.067 0.50712,0.0209 0.0879,0.0879 -0.0684,0.15046 -0.34726,0.13897 -0.30823,-0.0127 -0.37092,-0.0754 -0.15986,-0.15985 z m -0.14882,-0.79539 c 0.25466,-0.0666 0.67138,-0.0666 0.92604,0 0.25466,0.0666 0.0463,0.121 -0.46302,0.121 -0.50933,0 -0.71769,-0.0545 -0.46302,-0.121 z m -2.11164,-0.53014 c 0.25744,-0.0671 0.61462,-0.0627 0.79375,0.01 0.17914,0.0725 -0.0315,0.12737 -0.46805,0.12197 -0.43656,-0.005 -0.58313,-0.0647 -0.3257,-0.13177 z m 0.40838,-0.79113 c 0.191,-0.0764 0.4192,-0.067 0.50712,0.0209 0.0879,0.0879 -0.0684,0.15045 -0.34727,0.13896 -0.30822,-0.0127 -0.37092,-0.0754 -0.15985,-0.15985 z m -2.86081,-0.71291 c 0,-0.0549 0.20836,-0.2633 0.46302,-0.46302 0.41965,-0.32911 0.42901,-0.31975 0.0999,0.0999 -0.34564,0.44073 -0.56291,0.58089 -0.56291,0.36313 z"
       id="path79238" /><path
       style="fill:#998a79"
       d="m 148.33868,164.49381 c 0.25466,-0.0665 0.67138,-0.0665 0.92604,0 0.25466,0.0666 0.0463,0.121 -0.46302,0.121 -0.50932,0 -0.71768,-0.0545 -0.46302,-0.121 z m 2.51354,-0.7866 c 0.1819,-0.0734 0.47956,-0.0734 0.66146,0 0.1819,0.0734 0.0331,0.13346 -0.33073,0.13346 -0.3638,0 -0.51263,-0.0601 -0.33073,-0.13346 z m -1.57096,-1.32842 c 0.19099,-0.0764 0.4192,-0.067 0.50711,0.0209 0.0879,0.0879 -0.0683,0.15046 -0.34726,0.13897 -0.30822,-0.0127 -0.37092,-0.0754 -0.15985,-0.15985 z m 0.52916,-7.14376 c 0.191,-0.0764 0.4192,-0.067 0.50712,0.0209 0.0879,0.0879 -0.0684,0.15046 -0.34726,0.13897 -0.30823,-0.0127 -0.37092,-0.0754 -0.15986,-0.15985 z m -0.28112,-2.11115 c 0.1819,-0.0734 0.47956,-0.0734 0.66146,0 0.1819,0.0734 0.0331,0.13345 -0.33073,0.13345 -0.3638,0 -0.51263,-0.06 -0.33073,-0.13345 z"
       id="path79237" /><path
       style="fill:#738896"
       d="m 150.86876,164.49545 c 0.19099,-0.0764 0.4192,-0.067 0.50711,0.0209 0.0879,0.0879 -0.0683,0.15045 -0.34726,0.13896 -0.30822,-0.0127 -0.37092,-0.0754 -0.15985,-0.15985 z m -1.86862,-0.78824 c 0.1819,-0.0734 0.47955,-0.0734 0.66146,0 0.1819,0.0734 0.0331,0.13346 -0.33073,0.13346 -0.36381,0 -0.51263,-0.0601 -0.33073,-0.13346 z m 0.28112,-0.53467 c 0.19099,-0.0764 0.4192,-0.067 0.50711,0.0209 0.0879,0.0879 -0.0683,0.15046 -0.34726,0.13897 -0.30823,-0.0127 -0.37092,-0.0754 -0.15985,-0.15985 z m 3.08965,-0.35275 c -0.0914,-0.14789 -0.29542,-0.18903 -0.45337,-0.0914 -0.17554,0.10849 -0.21071,0.0538 -0.0905,-0.14082 0.15064,-0.24374 0.28418,-0.24573 0.57004,-0.008 0.37444,0.31076 0.47459,0.50962 0.25665,0.50962 -0.0642,0 -0.19147,-0.121 -0.28287,-0.2689 z m -2.82507,-8.37851 c 0.191,-0.0764 0.4192,-0.067 0.50712,0.0209 0.0879,0.0879 -0.0684,0.15046 -0.34727,0.13897 -0.30822,-0.0127 -0.37092,-0.0754 -0.15985,-0.15985 z m -0.0165,-0.52365 c 0.1819,-0.0734 0.47956,-0.0734 0.66146,0 0.1819,0.0734 0.0331,0.13345 -0.33073,0.13345 -0.3638,0 -0.51263,-0.0601 -0.33073,-0.13345 z m 3.10885,-6.17477 c 0.26339,-0.29104 0.53843,-0.52917 0.61119,-0.52917 0.0728,0 -0.0832,0.23813 -0.3466,0.52917 -0.26339,0.29104 -0.53842,0.52916 -0.61118,0.52916 -0.0728,0 0.0832,-0.23812 0.34659,-0.52916 z"
       id="path79236" /><path
       style="fill:#6286a3"
       d="m 148.22292,163.7017 c 0.191,-0.0764 0.4192,-0.067 0.50712,0.0209 0.0879,0.0879 -0.0684,0.15045 -0.34726,0.13896 -0.30823,-0.0127 -0.37092,-0.0754 -0.15986,-0.15985 z m 1.83555,-0.52365 c 0.1819,-0.0734 0.47956,-0.0734 0.66146,0 0.1819,0.0734 0.0331,0.13345 -0.33073,0.13345 -0.3638,0 -0.51263,-0.0601 -0.33073,-0.13345 z m -1.5875,-8.73125 c 0.1819,-0.0734 0.47956,-0.0734 0.66146,0 0.1819,0.0734 0.0331,0.13345 -0.33073,0.13345 -0.3638,0 -0.51263,-0.0601 -0.33073,-0.13345 z m 2.94281,-2.13988 c -0.3291,-0.41964 -0.31975,-0.429 0.0999,-0.0999 0.25467,0.19972 0.46302,0.40808 0.46302,0.46302 0,0.21776 -0.21727,0.0776 -0.56291,-0.36313 z"
       id="path79235" /><path
       style="fill:#4d84b2"
       d="m 149.52489,160.93919 c 0.17948,-0.18082 0.39297,-0.26211 0.47444,-0.18065 0.0815,0.0815 -0.0654,0.22941 -0.32632,0.32877 -0.37709,0.14358 -0.40748,0.11319 -0.14812,-0.14812 z m 0.28553,-2.79374 c 0.191,-0.0764 0.4192,-0.067 0.50712,0.0209 0.0879,0.0879 -0.0684,0.15045 -0.34726,0.13896 -0.30823,-0.0127 -0.37092,-0.0754 -0.15986,-0.15985 z"
       id="path79234" /><path
       style="fill:#3d82bd"
       d="m 148.53712,161.89807 c 0.34177,-0.3638 0.68094,-0.66146 0.7537,-0.66146 0.0728,0 -0.14735,0.29766 -0.48912,0.66146 -0.34177,0.3638 -0.68094,0.66146 -0.7537,0.66146 -0.0728,0 0.14734,-0.29766 0.48912,-0.66146 z m -1.45521,-0.13229 c 0.26339,-0.29105 0.53842,-0.52917 0.61118,-0.52917 0.0728,0 -0.0832,0.23812 -0.3466,0.52917 -0.26339,0.29104 -0.53842,0.52916 -0.61118,0.52916 -0.0728,0 0.0832,-0.23812 0.3466,-0.52916 z m 3.57187,-3.3073 c 0.49366,-0.50932 0.95709,-0.92604 1.02985,-0.92604 0.0728,0 -0.27161,0.41672 -0.76526,0.92604 -0.49366,0.50933 -0.95709,0.92605 -1.02985,0.92605 -0.0728,0 0.27161,-0.41672 0.76526,-0.92605 z m 0.79375,0.84326 c 0,-0.0455 0.38696,-0.43249 0.8599,-0.8599 l 0.85989,-0.77711 -0.7771,0.8599 c -0.72437,0.80154 -0.94269,0.98151 -0.94269,0.77711 z m -2.43086,-2.47921 c 0.191,-0.0764 0.4192,-0.067 0.50712,0.0209 0.0879,0.0879 -0.0683,0.15046 -0.34726,0.13897 -0.30823,-0.0127 -0.37092,-0.0754 -0.15986,-0.15985 z m 0.79375,-9.78958 c 0.191,-0.0764 0.4192,-0.067 0.50712,0.0209 0.0879,0.0879 -0.0684,0.15045 -0.34726,0.13896 -0.30823,-0.0127 -0.37092,-0.0754 -0.15986,-0.15985 z m 0.52917,-1.32292 c 0.191,-0.0764 0.4192,-0.067 0.50712,0.0209 0.0879,0.0879 -0.0684,0.15046 -0.34727,0.13897 -0.30822,-0.0127 -0.37092,-0.0754 -0.15985,-0.15985 z"
       id="path79233" /><path
       style="fill:#3182c6"
       d="m 90.593366,140.20223 37.967704,-36.38021 h 37.96771 v 36.38021 l 1.34511,33.68999 -65.98161,-0.13451 z m 28.543674,26.06707 c 1.2197,-0.14023 2.49962,-0.43973 2.84427,-0.66555 0.77037,-0.50477 0.81475,-1.46906 0.0975,-2.11818 -0.29104,-0.26339 -0.52917,-0.5672 -0.52917,-0.67514 0,-0.28398 4.55073,-3.72587 4.71242,-3.56418 0.0747,0.0747 0.28929,1.17813 0.47694,2.45212 0.28733,1.95086 0.45254,2.41257 1.047,2.92609 0.91292,0.78862 2.13029,0.69581 2.79191,-0.21285 0.28543,-0.392 0.70844,-1.95485 1.0384,-3.83646 0.30622,-1.74625 0.70984,-3.41352 0.89693,-3.70505 0.44737,-0.6971 7.03609,-4.59735 11.24075,-6.65406 l 3.32795,-1.62787 0.70658,0.66504 0.70658,0.66504 -1.81557,1.75657 c -1.90042,1.83867 -2.28104,2.62005 -2.00166,4.10926 0.16516,0.8804 1.59337,2.44072 3.46085,3.78097 l 0.7922,0.56855 -1.35873,1.30274 c -0.74731,0.71651 -1.55743,1.68697 -1.80027,2.15658 -0.59067,1.14223 -0.45345,2.24882 0.29203,2.35507 0.48002,0.0684 0.59815,-0.0883 0.75172,-0.99725 0.1316,-0.77891 0.55028,-1.48116 1.50755,-2.52857 0.72895,-0.79758 1.46224,-1.44883 1.62954,-1.44723 0.66754,0.006 3.1173,2.52786 3.46748,3.56896 0.24338,0.72355 0.53169,1.08508 0.91144,1.14288 0.47541,0.0724 0.55546,-0.0502 0.55546,-0.85069 0,-1.09338 -0.92045,-2.27101 -2.92544,-3.7428 l -1.29505,-0.95066 1.39371,-1.37124 c 3.07282,-3.02327 2.932,-5.02423 -0.55883,-7.94073 l -1.07752,-0.90024 1.46553,-1.26525 c 1.62242,-1.40069 2.46595,-2.59789 2.46745,-3.502 0.002,-0.89006 -0.99528,-0.79301 -1.34663,0.13112 -0.15191,0.39954 -0.57714,1.12099 -0.94496,1.60324 -0.60908,0.79853 -0.69839,0.83631 -1.00048,0.42318 -0.24787,-0.33899 -0.54566,-0.41084 -1.17831,-0.28431 -0.52885,0.10577 -0.78615,0.0715 -0.68555,-0.0913 0.0886,-0.14333 0.74935,-0.2606 1.46837,-0.2606 0.97818,0 1.3073,-0.0986 1.3073,-0.39183 0,-0.4383 -1.10696,-0.80599 -1.7192,-0.57105 -0.23935,0.0918 -0.39747,0.002 -0.39747,-0.22574 0,-0.20805 -0.26789,-0.6314 -0.59531,-0.94078 -0.84812,-0.80139 -2.6864,-0.59356 -4.4507,0.50319 -0.73653,0.45786 -1.38903,0.83246 -1.45,0.83246 -0.061,0 0.12273,-0.59259 0.40821,-1.31688 0.67701,-1.71758 1.4988,-5.90062 1.7183,-8.74641 0.2089,-2.7084 -0.21047,-7.66134 -0.94057,-11.10845 -0.9349,-4.41406 -0.92404,-4.22826 -0.24722,-4.22826 0.32854,0 1.46011,0.47625 2.51458,1.05833 1.57567,0.86979 2.17346,1.05834 3.35544,1.05834 1.88911,0 2.46299,-0.41533 2.23716,-1.61907 -0.52601,-2.80389 -5.86424,-9.06598 -8.30458,-9.74181 -1.84509,-0.51097 -3.18616,0.39811 -4.52705,3.0688 l -0.5526,1.10063 -1.26356,-0.41695 c -0.85929,-0.28355 -2.32169,-0.42367 -4.57085,-0.43796 -3.08709,-0.0196 -3.4122,0.028 -4.88298,0.71562 -0.89528,0.41854 -2.28497,1.41772 -3.21825,2.31389 -0.9034,0.8675 -1.77929,1.57726 -1.94642,1.57726 -0.16713,0 -0.95831,-0.30959 -1.75818,-0.68799 -2.28848,-1.08263 -3.82358,-0.4733 -6.28061,2.49294 -2.43436,2.93887 -4.37079,8.50324 -3.63277,10.43881 0.61565,1.61462 1.74974,1.29559 4.46091,-1.25489 1.15586,-1.08734 2.56178,-2.6452 3.12426,-3.46191 0.56249,-0.8167 1.06752,-1.35047 1.12229,-1.18616 0.0548,0.16432 -0.0359,1.68595 -0.20141,3.38139 -0.65299,6.68741 -1.78232,9.24504 -6.28894,14.24276 -1.71588,1.90286 -3.74288,4.16505 -4.50445,5.02709 l -1.38468,1.56734 -1.3382,-1.41938 c -1.5095,-1.60105 -2.28903,-3.00884 -3.46376,-6.25536 -0.96094,-2.65569 -1.92365,-3.83463 -3.13131,-3.83463 -2.087124,0 -3.360775,1.68909 -3.109495,4.12376 0.365678,3.54307 3.103199,7.03058 7.462125,9.50648 0.7276,0.41329 1.36418,0.78143 1.41463,0.81811 0.0504,0.0367 -0.23212,0.87614 -0.62793,1.86549 -0.60495,1.51215 -0.69558,2.0527 -0.56872,3.39196 0.48545,5.12477 3.4221,7.68874 9.54618,8.33472 2.73691,0.2887 2.73736,0.2887 5.15347,0.0109 z m 29.33657,-7.79946 c -3.16391,-2.41583 -3.15071,-4.47711 0.0449,-7.00807 l 1.05737,-0.83745 1.22073,1.12523 c 2.62111,2.41606 2.63553,4.01114 0.0589,6.51826 l -1.16363,1.13225 z m 2.02624,-0.30425 c 0.23018,-0.0883 0.41852,-0.32645 0.41852,-0.52916 0,-0.45483 -2.25575,-0.52112 -2.53183,-0.0744 -0.35777,0.57889 1.09578,0.99403 2.11331,0.60356 z m 0.58774,-1.4269 c 0.37874,0 0.62453,-0.15619 0.62453,-0.39687 0,-0.31722 -0.39514,-0.39688 -1.96876,-0.39688 -1.15909,0 -2.04353,0.12098 -2.15057,0.29417 -0.30643,0.49581 0.48688,0.79443 1.70886,0.64326 0.63877,-0.079 1.44245,-0.14368 1.78594,-0.14368 z m 1.12144,-1.56197 c 0.80205,-0.508 -0.0527,-0.81928 -2.24971,-0.81928 -2.2171,0 -3.43821,0.31447 -3.13379,0.80703 0.19463,0.31491 4.88879,0.32559 5.3835,0.0122 z m -0.79375,-1.32292 c 0.7442,-0.47136 -0.0286,-0.81928 -1.81983,-0.81928 -1.75219,0 -2.33168,0.2318 -1.98438,0.79376 0.20054,0.32447 3.29941,0.34527 3.80421,0.0255 z m -0.62921,-1.74532 c 0,-0.14552 -0.56554,-0.30087 -1.25677,-0.34522 -1.01217,-0.065 -1.25677,0.002 -1.25677,0.34522 0,0.34299 0.2446,0.41018 1.25677,0.34523 0.69123,-0.0444 1.25677,-0.19971 1.25677,-0.34523 z m -2.11666,-3.57187 c -0.47332,-0.52301 -0.46226,-0.5291 0.95118,-0.52329 l 1.43007,0.006 -0.66146,0.5174 c -0.83864,0.656 -1.12613,0.656 -1.71979,0 z m 4.09883,15.88197 c 0.85072,-0.53785 -0.16564,-0.82207 -2.66432,-0.74507 -2.12202,0.0654 -2.49979,0.14456 -2.57537,0.53966 -0.0793,0.41442 0.17034,0.4626 2.37823,0.45897 1.35674,-0.002 2.64439,-0.11633 2.86146,-0.25356 z m -1.08837,-1.30436 c 0.68062,-0.4311 0.006,-0.81928 -1.42296,-0.81928 -1.3919,0 -1.91609,0.26209 -1.5875,0.79375 0.20057,0.32453 2.50751,0.3441 3.01046,0.0255 z"
       id="path79232" /><path
       style="fill:#221e1f"
       d="m 134.5142,128.16369 c -0.23847,-0.15411 -0.2711,-0.2581 -0.0818,-0.26053 0.17331,-0.002 0.3887,0.11501 0.47864,0.26053 0.20301,0.32849 0.11142,0.32849 -0.39688,0 z m -1.17428,-1.56944 c -0.48965,-0.54105 -0.54497,-1.89714 -0.0957,-2.34639 0.84451,-0.84451 2.18302,0.28269 2.01683,1.69844 -0.11081,0.94393 -1.29255,1.34251 -1.92111,0.64795 z m -6.04852,-3.62489 c -0.34216,-0.34215 -0.18998,-1.09735 0.25558,-1.26833 0.55764,-0.21398 0.95966,0.17444 0.83743,0.80912 -0.0971,0.50447 -0.76652,0.7857 -1.09301,0.45921 z m 10.05417,-2.11666 c -0.31274,-0.31274 -0.20611,-1.09117 0.16919,-1.23518 0.5333,-0.20465 1.03266,0.21082 0.92504,0.76963 -0.0982,0.50962 -0.76601,0.79377 -1.09423,0.46555 z"
       id="path79231" /><path
       style="fill:#030404"
       d="m 130.6116,129.35673 c -0.88022,-0.38258 -1.26099,-1.14763 -0.39688,-0.79741 2.24722,0.91079 2.99848,0.74447 3.49989,-0.77482 0.37023,-1.12179 0.67141,-1.17804 1.39337,-0.26022 1.0345,1.31515 2.35611,1.30775 2.68812,-0.0151 0.16312,-0.64995 0.68685,-0.94787 0.68685,-0.39072 0,0.53395 -0.77798,1.77628 -1.21811,1.94517 -0.59755,0.22931 -1.42635,-0.0475 -2.19162,-0.73195 -0.50887,-0.45512 -0.65786,-0.49069 -0.76669,-0.18306 -0.0743,0.21002 -0.40974,0.6565 -0.74543,0.99219 -0.69648,0.69648 -1.67842,0.76835 -2.9495,0.21589 z"
       id="path79230" /></g></svg>
