<svg enable-background="new 0 0 64 64" height="512" viewBox="0 0 64 64" width="512" xmlns="http://www.w3.org/2000/svg"><g id="Icons"><g><path d="m52 22 3.293 3.293-11.293 11.293-12-12-12.707 12.707 1.414 1.414 11.293-11.293 12 12 12.707-12.707 3.293 3.293v-8z" fill="#505050"/></g><g><path d="m20 42c-2.209 0-4-1.791-4-4 0-2.209 1.791-4 4-4 2.209 0 4 1.791 4 4 0 2.209-1.791 4-4 4z" fill="#3cc8b4"/></g><g><path d="m20 48c-1.105 0-2-.895-2-2 0-1.105.895-2 2-2 1.105 0 2 .895 2 2 0 1.105-.895 2-2 2z" fill="#fa6450"/></g><g><path d="m32 40c-1.105 0-2-.895-2-2 0-1.105.895-2 2-2 1.105 0 2 .895 2 2 0 1.105-.895 2-2 2z" fill="#fa6450"/></g><g><path d="m44 30c-1.105 0-2-.895-2-2 0-1.105.895-2 2-2 1.105 0 2 .895 2 2 0 1.105-.895 2-2 2z" fill="#fa6450"/></g><g><path d="m20 16c-1.105 0-2-.895-2-2 0-1.105.895-2 2-2 1.105 0 2 .895 2 2 0 1.105-.895 2-2 2z" fill="#fa6450"/></g><g><path d="m20 30c-1.105 0-2-.895-2-2 0-1.105.895-2 2-2 1.105 0 2 .895 2 2 0 1.105-.895 2-2 2z" fill="#fa6450"/></g><g><path d="m36 16c-1.105 0-2-.895-2-2 0-1.105.895-2 2-2 1.105 0 2 .895 2 2 0 1.105-.895 2-2 2z" fill="#fa6450"/></g><g><path d="m26 22c-1.105 0-2-.895-2-2 0-1.105.895-2 2-2 1.105 0 2 .895 2 2 0 1.105-.895 2-2 2z" fill="#fa6450"/></g><g><path d="m38 48c-1.105 0-2-.895-2-2 0-1.105.895-2 2-2 1.105 0 2 .895 2 2 0 1.105-.895 2-2 2z" fill="#fa6450"/></g><g><path d="m50 46c-1.105 0-2-.895-2-2 0-1.105.895-2 2-2 1.105 0 2 .895 2 2 0 1.105-.895 2-2 2z" fill="#fa6450"/></g><g><path d="m32 30c-2.209 0-4-1.791-4-4 0-2.209 1.791-4 4-4 2.209 0 4 1.791 4 4 0 2.209-1.791 4-4 4z" fill="#fab400"/></g><g><path d="m44 42c-2.209 0-4-1.791-4-4 0-2.209 1.791-4 4-4 2.209 0 4 1.791 4 4 0 2.209-1.791 4-4 4z" fill="#64c8f0"/></g><g><path d="m18 38c0-1.862 1.278-3.413 3-3.859-.321-.083-.653-.141-1-.141-2.209 0-4 1.791-4 4s1.791 4 4 4c.347 0 .679-.058 1-.141-1.722-.447-3-1.997-3-3.859z" fill="#1eaa96"/></g><g><path d="m30 26c0-1.862 1.278-3.413 3-3.859-.321-.083-.653-.141-1-.141-2.209 0-4 1.791-4 4s1.791 4 4 4c.347 0 .679-.058 1-.141-1.722-.447-3-1.997-3-3.859z" fill="#dc9600"/></g><g><path d="m42 38c0-1.862 1.278-3.413 3-3.859-.321-.083-.653-.141-1-.141-2.209 0-4 1.791-4 4s1.791 4 4 4c.347 0 .679-.058 1-.141-1.722-.447-3-1.997-3-3.859z" fill="#46aad2"/></g><g><path d="m60 54-6-6v4h-42v-38h4l-6-6-6 6h4v38 4h46v4z" fill="#505050"/></g><g><path d="m10 14h-2v38 4h2v-4z" fill="#3c3c3c"/></g><g><path d="m10 8-6 6h2l5-5z" fill="#3c3c3c"/></g><g><path d="m52 20c-4.418 0-8-3.582-8-8 0-4.418 3.582-8 8-8 4.418 0 8 3.582 8 8 0 4.418-3.582 8-8 8z" fill="#fa6450"/></g><g><path d="m46 12c0-4.079 3.055-7.438 7-7.931-.328-.041-.661-.069-1-.069-4.418 0-8 3.582-8 8s3.582 8 8 8c.339 0 .672-.028 1-.069-3.945-.493-7-3.852-7-7.931z" fill="#dc4632"/></g><g><path d="m52 14.707-2-2-1.646 1.647-.708-.708 2.354-2.353 2 2 1.646-1.647.708.708z" fill="#f0f0f0"/></g><g><path d="m52 10 4 4v-4z" fill="#f0f0f0"/></g></g></svg>
