<svg height="512pt" viewBox="0 -13 512 512" width="512pt" xmlns="http://www.w3.org/2000/svg"><path d="m338.566406 255.265625c-1.453125 0-2.921875-.40625-4.230468-1.261719l-123.859376-81.023437c-3.578124-2.339844-4.582031-7.136719-2.242187-10.714844s7.140625-4.582031 10.71875-2.242187l123.859375 81.019531c3.578125 2.34375 4.582031 7.140625 2.242188 10.71875-1.488282 2.273437-3.960938 3.503906-6.488282 3.503906zm0 0" fill="#87e5e8"/><path d="m205.574219 380.386719c-93.613281 0-169.566407-75.976563-169.539063-169.589844.027344-84.890625 62.457032-155.199219 143.917969-167.546875 1.925781-.292969 3.664063 1.183594 3.664063 3.132812v40.617188c0 1.519531-1.082032 2.8125-2.570313 3.113281-56.238281 11.359375-98.59375 61.03125-98.664063 120.59375-.074218 67.359375 54.742188 122.742188 122.097657 123.328125 25.683593.222656 49.574219-7.425781 69.410156-20.667968 1.265625-.84375 2.945313-.699219 4.023437.375l28.714844 28.707031c1.378906 1.378906 1.1875 3.648437-.375 4.804687-28.15625 20.8125-62.976562 33.132813-100.679687 33.132813zm0 0" fill="#fe6c56"/><path d="m377.207031 211.015625c0 38.023437-12.53125 73.125-33.671875 101.414063-1.429687 1.914062-4.222656 2.117187-5.910156.429687l-27.625-27.621094c-1.320312-1.320312-1.527344-3.398437-.472656-4.941406 13.453125-19.738281 21.332031-43.59375 21.332031-69.28125 0-60.292969-43.308594-110.453125-100.503906-121.097656-1.839844-.339844-3.164063-1.960938-3.164063-3.832031v-39.035157c0-2.386719 2.117188-4.210937 4.476563-3.875 82.257812 11.65625 145.539062 82.351563 145.539062 167.839844zm0 0" fill="#f3c957"/><path d="m377.207031 211.015625c0 38.023437-12.53125 73.125-33.671875 101.414063-1.429687 1.914062-4.222656 2.117187-5.910156.429687l-27.625-27.621094c-1.320312-1.320312-1.527344-3.398437-.472656-4.941406 13.453125-19.738281 21.332031-43.59375 21.332031-69.28125 0-60.292969-43.308594-110.453125-100.503906-121.097656-1.839844-.339844-3.164063-1.960938-3.164063-3.832031v-39.035157c0-2.386719 2.117188-4.210937 4.476563-3.875 82.257812 11.65625 145.539062 82.351563 145.539062 167.839844zm0 0" fill="#f3c957"/><path d="m42.816406 363.648438c-1.777344 0-3.5625-.605469-5.019531-1.851563-3.253906-2.773437-3.640625-7.660156-.867187-10.914063l163.628906-191.96875c2.773437-3.253906 7.660156-3.644531 10.914062-.871093 3.253906 2.773437 3.644532 7.660156.871094 10.914062l-163.628906 191.972657c-1.53125 1.796874-3.707032 2.71875-5.898438 2.71875zm0 0" fill="#87e5e8"/><path d="m112.511719 291.316406-30.40625 35.671875c3.546875 3.765625 7.261719 7.371094 11.136719 10.800781l30.160156-35.382812c-3.855469-3.464844-7.496094-7.167969-10.890625-11.089844zm0 0" fill="#e24333"/><g fill="#87e5e8"><path d="m401.03125 296.128906c-1.453125 0-2.925781-.410156-4.230469-1.265625l-43.511719-28.464843c-3.582031-2.339844-4.582031-7.136719-2.242187-10.714844 2.339844-3.582032 7.140625-4.582032 10.714844-2.242188l43.515625 28.464844c3.578125 2.339844 4.578125 7.136719 2.238281 10.714844-1.484375 2.273437-3.960937 3.507812-6.484375 3.507812zm0 0"/><path d="m411.6875 293.734375c-1.226562 0-2.472656-.292969-3.632812-.910156-3.773438-2.007813-5.203126-6.699219-3.191407-10.472657l75.246094-141.292968c2.011719-3.777344 6.699219-5.207032 10.472656-3.195313 3.773438 2.007813 5.203125 6.699219 3.195313 10.472657l-75.25 141.296874c-1.390625 2.613282-4.070313 4.101563-6.839844 4.101563zm0 0"/><path d="m454.167969 25.804688h-44.363281c-4.273438 0-7.738282-3.464844-7.738282-7.738282 0-4.277344 3.464844-7.742187 7.738282-7.742187h44.363281c4.273437 0 7.742187 3.464843 7.742187 7.742187 0 4.273438-3.46875 7.738282-7.742187 7.738282zm0 0"/><path d="m383.066406 25.804688h-12.457031c-4.277344 0-7.742187-3.464844-7.742187-7.738282 0-4.277344 3.464843-7.742187 7.742187-7.742187h12.457031c4.273438 0 7.742188 3.464843 7.742188 7.742187 0 4.273438-3.46875 7.738282-7.742188 7.738282zm0 0"/><path d="m447.429688 85.675781h-31.757813c-4.273437 0-7.742187-3.464843-7.742187-7.742187 0-4.273438 3.46875-7.738282 7.742187-7.738282h31.757813c4.273437 0 7.742187 3.464844 7.742187 7.738282 0 4.277344-3.46875 7.742187-7.742187 7.742187zm0 0"/><path d="m396.53125 85.675781h-8.917969c-4.277343 0-7.742187-3.464843-7.742187-7.742187 0-4.273438 3.464844-7.738282 7.742187-7.738282h8.917969c4.277344 0 7.742188 3.464844 7.742188 7.738282 0 4.277344-3.464844 7.742187-7.742188 7.742187zm0 0"/><path d="m77.746094 481.03125h-31.753906c-4.277344 0-7.742188-3.464844-7.742188-7.742188 0-4.273437 3.464844-7.742187 7.742188-7.742187h31.753906c4.277344 0 7.742187 3.46875 7.742187 7.742187 0 4.277344-3.464843 7.742188-7.742187 7.742188zm0 0"/><path d="m155.871094 481.03125h-53.820313c-4.277343 0-7.742187-3.464844-7.742187-7.742188 0-4.273437 3.464844-7.742187 7.742187-7.742187h53.820313c4.277344 0 7.742187 3.46875 7.742187 7.742187 0 4.277344-3.464843 7.742188-7.742187 7.742188zm0 0"/></g><path d="m490.292969 7.207031v21.71875c0 3.984375-3.222657 7.203125-7.195313 7.203125h-21.730468c-3.972657 0-7.203126-3.21875-7.203126-7.203125v-21.71875c0-3.988281 3.230469-7.207031 7.203126-7.207031h21.730468c3.972656 0 7.195313 3.21875 7.195313 7.207031zm0 0" fill="#75dbad"/><path d="m473.289062 72.207031v11.457031c0 3.976563-3.21875 7.207032-7.203124 7.207032h-11.457032c-3.976562 0-7.195312-3.230469-7.195312-7.207032v-11.457031c0-3.976562 3.21875-7.207031 7.195312-7.207031h11.457032c3.984374 0 7.203124 3.230469 7.203124 7.207031zm0 0" fill="#75dbad"/><path d="m45.988281 467.5625v11.457031c0 3.972657-3.222656 7.203125-7.195312 7.203125h-11.457031c-3.984376 0-7.207032-3.230468-7.207032-7.203125v-11.457031c0-3.976562 3.222656-7.207031 7.207032-7.207031h11.457031c3.972656 0 7.195312 3.230469 7.195312 7.207031zm0 0" fill="#75dbad"/><path d="m131.425781 434.582031h-40.136719c-4.277343 0-7.742187-3.46875-7.742187-7.742187 0-4.277344 3.464844-7.742188 7.742187-7.742188h40.136719c4.273438 0 7.738281 3.464844 7.738281 7.742188 0 4.273437-3.464843 7.742187-7.738281 7.742187zm0 0" fill="#87e5e8"/><path d="m174.453125 434.582031h-16.664063c-4.273437 0-7.738281-3.46875-7.738281-7.742187 0-4.277344 3.464844-7.742188 7.738281-7.742188h16.664063c4.273437 0 7.742187 3.464844 7.742187 7.742188 0 4.273437-3.46875 7.742187-7.742187 7.742187zm0 0" fill="#87e5e8"/><path d="m238.453125 154.324219c0 17.671875-14.328125 32-32 32-17.675781 0-32-14.328125-32-32 0-17.675781 14.324219-32 32-32 17.671875 0 32 14.324219 32 32zm0 0" fill="#76b1cb"/><path d="m64 364.902344c0 17.675781-14.328125 32-32 32s-32-14.324219-32-32c0-17.671875 14.328125-32 32-32s32 14.328125 32 32zm0 0" fill="#76b1cb"/><path d="m198.195312 154.324219c0-13.476563 8.332032-25 20.128907-29.71875-3.671875-1.464844-7.675781-2.28125-11.871094-2.28125-17.671875 0-32 14.324219-32 32 0 17.671875 14.328125 32 32 32 4.195313 0 8.199219-.816407 11.871094-2.285157-11.796875-4.71875-20.128907-16.242187-20.128907-29.714843zm0 0" fill="#5ba1ba"/><path d="m23.742188 364.902344c0-13.476563 8.335937-25 20.128906-29.714844-3.671875-1.46875-7.675782-2.285156-11.871094-2.285156-17.671875 0-32 14.328125-32 32s14.328125 32 32 32c4.195312 0 8.199219-.816406 11.871094-2.285156-11.792969-4.714844-20.128906-16.238282-20.128906-29.714844zm0 0" fill="#5ba1ba"/><path d="m512 137.804688c0 10.832031-8.78125 19.613281-19.613281 19.613281s-19.613281-8.78125-19.613281-19.613281c0-10.832032 8.78125-19.609376 19.613281-19.609376s19.613281 8.777344 19.613281 19.609376zm0 0" fill="#76b1cb"/><path d="m488.597656 133.675781c0-6.113281 2.800782-11.570312 7.1875-15.167969-1.105468-.195312-2.238281-.3125-3.398437-.3125-10.828125 0-19.613281 8.78125-19.613281 19.609376 0 10.832031 8.785156 19.613281 19.613281 19.613281 4.714843 0 9.042969-1.667969 12.425781-4.441407-9.207031-1.613281-16.214844-9.632812-16.214844-19.300781zm0 0" fill="#5ba1ba"/><path d="m425.289062 292.644531c0 10.832031-8.78125 19.613281-19.613281 19.613281s-19.609375-8.78125-19.609375-19.613281 8.777344-19.613281 19.609375-19.613281 19.613281 8.78125 19.613281 19.613281zm0 0" fill="#76b1cb"/><path d="m402.066406 284.386719c0-4.234375 1.355469-8.144531 3.640625-11.351563-.011719 0-.019531-.003906-.03125-.003906-10.828125 0-19.609375 8.785156-19.609375 19.613281s8.78125 19.613281 19.609375 19.613281c6.59375 0 12.417969-3.265624 15.972657-8.257812-10.816407-.015625-19.582032-8.792969-19.582032-19.613281zm0 0" fill="#5ba1ba"/><path d="m99.664062 421.109375v11.457031c0 3.976563-3.21875 7.207032-7.195312 7.207032h-11.457031c-3.984375 0-7.207031-3.230469-7.207031-7.207032v-11.457031c0-3.972656 3.222656-7.203125 7.207031-7.203125h11.457031c3.976562 0 7.195312 3.230469 7.195312 7.203125zm0 0" fill="#75dbad"/></svg>
