<svg height="512pt" viewBox="-30 0 511 512" width="512pt" xmlns="http://www.w3.org/2000/svg"><path d="m437.25 376.5c0 66.550781-53.949219 120.5-120.5 120.5s-120.5-53.949219-120.5-120.5 53.949219-120.5 120.5-120.5 120.5 53.949219 120.5 120.5zm0 0" fill="#fef4f5"/><path d="m316.75 256v241c66.550781 0 120.5-53.949219 120.5-120.5s-53.949219-120.5-120.5-120.5zm0 0" fill="#d5eded"/><path d="m75.75 80.332031c-41.492188 0-75.25 33.757813-75.25 75.25v20.085938c0 8.28125 6.714844 15 15 15h120.5c8.285156 0 15-6.71875 15-15v-20.085938c0-41.492187-33.757812-75.25-75.25-75.25zm0 0" fill="#00cd77"/><path d="m75.75 80.332031v110.335938h60.25c8.285156 0 15-6.71875 15-15v-20.085938c0-41.492187-33.757812-75.25-75.25-75.25zm0 0" fill="#009e4e"/><path d="m75.75 321.335938c-41.492188 0-75.25 33.753906-75.25 75.246093v20.082031c0 8.285157 6.714844 15 15 15h120.5c8.285156 0 15-6.714843 15-15v-20.082031c0-41.492187-33.757812-75.246093-75.25-75.246093zm0 0" fill="#ff4949"/><path d="m136 431.664062c8.285156 0 15-6.714843 15-15v-20.082031c0-41.492187-33.757812-75.246093-75.25-75.246093v110.328124zm0 0" fill="#e80048"/><path d="m316.75 80.332031c-41.492188 0-75.25 33.757813-75.25 75.25v20.085938c0 8.28125 6.714844 15 15 15h120.5c8.285156 0 15-6.71875 15-15v-20.085938c0-41.492187-33.757812-75.25-75.25-75.25zm0 0" fill="#ff8398"/><path d="m392 175.667969v-20.085938c0-41.492187-33.757812-75.25-75.25-75.25v110.335938h60.25c8.285156 0 15-6.71875 15-15zm0 0" fill="#ff3f5c"/><path d="m316.75 401.664062c-41.492188 0-75.25 33.757813-75.25 75.25v3.964844c0 8.28125 6.714844 15 15 15h120.5c3.976562 0 7.792969-1.578125 10.605469-4.394531 2.8125-2.8125 4.394531-6.625 4.394531-10.605469v-3.964844c0-41.492187-33.757812-75.25-75.25-75.25zm0 0" fill="#ffd400"/><path d="m377 495.878906c3.976562 0 7.792969-1.578125 10.605469-4.394531 2.8125-2.8125 4.394531-6.625 4.394531-10.605469v-3.964844c0-41.492187-33.757812-75.25-75.25-75.25v94.214844zm0 0" fill="#ff9f04"/><path d="m75.75 0c-30.417969 0-55.167969 24.746094-55.167969 55.167969 0 30.417969 24.75 55.164062 55.167969 55.164062s55.167969-24.746093 55.167969-55.164062c0-30.421875-24.75-55.167969-55.167969-55.167969zm0 0" fill="#c86e59"/><path d="m75.75 241c-30.417969 0-55.167969 24.746094-55.167969 55.164062 0 30.421876 24.75 55.171876 55.167969 55.171876s55.167969-24.75 55.167969-55.171876c0-30.417968-24.75-55.164062-55.167969-55.164062zm0 0" fill="#fdd1a3"/><path d="m316.75 0c-30.417969 0-55.164062 24.746094-55.164062 55.167969 0 30.417969 24.746093 55.164062 55.164062 55.164062s55.164062-24.746093 55.164062-55.164062c0-30.421875-24.746093-55.167969-55.164062-55.167969zm0 0" fill="#ffcdbe"/><path d="m316.75 321.335938c-30.417969 0-55.164062 24.746093-55.164062 55.164062s24.746093 55.164062 55.164062 55.164062 55.164062-24.746093 55.164062-55.164062-24.746093-55.164062-55.164062-55.164062zm0 0" fill="#c86e59"/><path d="m422.535156 461.070312c18.582032-23.195312 29.714844-52.605468 29.714844-84.570312 0-74.714844-60.785156-135.5-135.5-135.5s-135.5 60.785156-135.5 135.5 60.785156 135.5 135.5 135.5c31.964844 0 61.375-11.132812 84.570312-29.714844l25.324219 25.320313c2.925781 2.929687 6.765625 4.394531 10.605469 4.394531 3.835938 0 7.675781-1.464844 10.605469-4.394531 5.855469-5.855469 5.855469-15.355469 0-21.210938zm-211.285156-84.570312c0-58.171875 47.328125-105.5 105.5-105.5s105.5 47.328125 105.5 105.5-47.328125 105.5-105.5 105.5-105.5-47.328125-105.5-105.5zm0 0" fill="#008adf"/><path d="m422.535156 461.070312c18.582032-23.195312 29.714844-52.605468 29.714844-84.570312 0-74.714844-60.785156-135.5-135.5-135.5v30c58.171875 0 105.5 47.328125 105.5 105.5s-47.328125 105.5-105.5 105.5v30c31.964844 0 61.375-11.132812 84.570312-29.714844l25.324219 25.320313c2.925781 2.929687 6.765625 4.394531 10.605469 4.394531 3.835938 0 7.675781-1.464844 10.605469-4.394531 5.855469-5.855469 5.855469-15.355469 0-21.210938zm0 0" fill="#0065a3"/><path d="m130.917969 55.167969c0-30.421875-24.746094-55.167969-55.167969-55.167969v110.332031c30.421875 0 55.167969-24.746093 55.167969-55.164062zm0 0" fill="#a34f3e"/><path d="m130.917969 296.164062c0-30.417968-24.746094-55.164062-55.167969-55.164062v110.335938c30.421875 0 55.167969-24.75 55.167969-55.171876zm0 0" fill="#f5a86c"/><path d="m371.914062 55.167969c0-30.421875-24.746093-55.167969-55.164062-55.167969v110.332031c30.417969 0 55.164062-24.746093 55.164062-55.164062zm0 0" fill="#ffbeaa"/><path d="m316.75 321.335938v110.328124c30.417969 0 55.164062-24.746093 55.164062-55.164062s-24.746093-55.164062-55.164062-55.164062zm0 0" fill="#a34f3e"/></svg>
