<svg id="Capa_1" enable-background="new 0 0 512 512" viewBox="0 0 512 512" xmlns="http://www.w3.org/2000/svg"><g><g><path d="m460.612 88h-413.159c-8.535 0-15.453 6.918-15.453 15.453v257.095l433.069 61.813 8.29-324.138z" fill="#60b7ff"/></g><g><path d="m464.547 88h-3.935c2.447 2.734 3.935 6.344 3.935 10.302v257.095c0 2.845-2.306 5.151-5.151 5.151h-134.245c-8.562 0-15.921 5.25-19.027 12.7-.82 1.967-2.676 3.3-4.806 3.3h-90.635c-2.131 0-3.987-1.333-4.806-3.3-3.106-7.45-10.465-12.7-19.027-12.7h-154.85v15.452l160 32h128l160-32v-272.547c0-8.535-6.918-15.453-15.453-15.453z" fill="#26a6fe"/></g><g><path d="m15.184 418.133 487.476-2.132-6.113-40.001h-171.396c-2.845 0-5.151 2.306-5.151 5.151v.547c0 5.69-4.612 10.302-10.302 10.302h-107.396c-5.69 0-10.302-4.612-10.302-10.302v-.547c0-2.013-1.155-3.756-2.839-4.604h-2.312c-1.162 0-2.279-.193-3.321-.547h-178.377c-2.845 0-5.151 2.306-5.151 5.151v17.095c0 3.079.541 6.032 1.532 8.77 5.779 6.258 4.46 3.663 13.652 11.117z" fill="#60b7ff"/></g><g><path d="m506.849 376h-10.302v17.095c0 8.534-6.918 15.453-15.453 15.453h-470.792c-3.079 0-6.032-.541-8.77-1.532 3.587 9.905 13.078 16.984 24.223 16.984h460.491c14.223 0 25.754-11.531 25.754-25.755v-17.095c0-2.844-2.306-5.15-5.151-5.15z" fill="#26a6fe"/></g><g><path d="m438.89 334.297-8.403-214.297h-361.336c-2.845 0-5.151 2.306-5.151 5.151v201.336z" fill="#fff"/></g><g><path d="m442.849 120h-12.362v201.336c0 2.845-2.306 5.151-5.151 5.151h-361.336v12.362c0 2.845 2.306 5.151 5.151 5.151h373.698c2.845 0 5.151-2.306 5.151-5.151v-213.698c0-2.845-2.306-5.151-5.151-5.151z" fill="#d8ecfe"/></g><g><path d="m146.818 144.274c-30.626 0-55.453 24.827-55.453 55.453s24.827 55.453 55.453 55.453c25.661 0 47.251-17.431 53.577-41.098z" fill="#5de1c4"/></g><g fill="#918291"><path d="m412.909 159.726h-156.909c-4.267 0-7.726-3.459-7.726-7.726s3.459-7.726 7.726-7.726h156.909c4.267 0 7.726 3.459 7.726 7.726s-3.458 7.726-7.726 7.726z"/><path d="m352 191.726h-96c-4.267 0-7.726-3.459-7.726-7.726s3.459-7.726 7.726-7.726h96c4.267 0 7.726 3.459 7.726 7.726s-3.459 7.726-7.726 7.726z"/><path d="m412.909 223.726h-156.909c-4.267 0-7.726-3.459-7.726-7.726s3.459-7.726 7.726-7.726h156.909c4.267 0 7.726 3.459 7.726 7.726s-3.458 7.726-7.726 7.726z"/><path d="m352 255.726h-96c-4.267 0-7.726-3.459-7.726-7.726s3.459-7.726 7.726-7.726h96c4.267 0 7.726 3.459 7.726 7.726s-3.459 7.726-7.726 7.726z"/><path d="m412.909 287.726h-281.818c-4.267 0-7.726-3.459-7.726-7.726s3.459-7.726 7.726-7.726h281.819c4.267 0 7.726 3.459 7.726 7.726s-3.459 7.726-7.727 7.726z"/><path d="m380.909 319.726h-281.818c-4.267 0-7.726-3.459-7.726-7.726s3.459-7.726 7.726-7.726h281.819c4.267 0 7.726 3.459 7.726 7.726s-3.459 7.726-7.727 7.726z"/></g><g><g><circle cx="224" cy="152" fill="#5de1c4" r="7.726"/></g></g><g><g><circle cx="224" cy="216" fill="#fd8087" r="7.726"/></g></g><g><path d="m200.394 214.083c1.224-4.579 1.876-9.391 1.876-14.356 0-30.626-24.827-55.453-55.453-55.453v53.34c0 1.246.837 2.337 2.041 2.66z" fill="#fd8087"/></g></g><g/><g/><g/><g/><g/><g/><g/><g/><g/><g/><g/><g/><g/><g/><g/></svg>
