<svg xmlns="http://www.w3.org/2000/svg" xmlns:xlink="http://www.w3.org/1999/xlink" xmlns:lucid="lucid" width="2039.17" height="1575.72"><g transform="translate(0 0)" lucid:page-tab-id="0_0"><path d="M0 0h2039.17v1575.72H0z" fill="#fff"/><path d="M107 1481.32H66c-2.76 0-5-2.24-5-5V168.77c0-2.76 2.24-5 5-5h41" fill="#fff"/><path d="M107 1476.32c0 2.76-2.24 5-5 5H66c-2.76 0-5-2.24-5-5V168.77c0-2.76 2.24-5 5-5h36c2.76 0 5 2.24 5 5zM107 1481.32h1856c2.76 0 5-2.24 5-5V168.77c0-2.76-2.24-5-5-5H107M107 1481.32V163.77M61 1151.68h1907M61 831.07h1907M61 505.94h1907" stroke="#666" stroke-width="2" fill="none"/><use xlink:href="#a" transform="matrix(6.123233995736766e-17,-1,1,6.123233995736766e-17,60.99999999999997,505.9409359427125) translate(115.07107090481392 28.14940797826793)"/><use xlink:href="#b" transform="matrix(6.123233995736766e-17,-1,1,6.123233995736766e-17,60.99999999999994,831.0658486557325) translate(84.25696966565289 28.14940797826793)"/><use xlink:href="#c" transform="matrix(6.123233995736766e-17,-1,1,6.123233995736766e-17,60.99999999999994,831.0658486557325) translate(204.55286160241207 28.14940797826793)"/><use xlink:href="#d" transform="matrix(6.123233995736766e-17,-1,1,6.123233995736766e-17,60.999999999999915,1151.6751375810713) translate(121.23576416570702 28.14940797826793)"/><use xlink:href="#e" transform="matrix(6.123233995736766e-17,-1,1,6.123233995736766e-17,60.999999999999915,1481.3156740817726) translate(107.21219935499322 28.14940797826793)"/><path d="M684.77 336v258.76" stroke="#666" stroke-width="2" fill="none"/><path d="M685.77 336h-2v-1h2zM684.77 609.76l-4.63-14.26h9.27z" fill="#666"/><path d="M684.77 613l-6-18.5h12.02zm-3.25-16.5l3.25 10.03 3.26-10.03z" fill="#666"/><path d="M770.55 659.6h43.15c.47 0 .85.4.85.86 0 .47.38.86.85.86h24.9" stroke="#666" stroke-width="2" fill="none"/><path d="M770.55 660.6h-1v-2h1zM855.3 661.32l-14.25 4.63v-9.27z" fill="#666"/><path d="M858.55 661.32l-18.5 6v-12zm-16.5 3.26l10.03-3.26-10.03-3.26z" fill="#666"/><path d="M600 619c0-2.76 2.24-5 5-5h159.55c2.76 0 5 2.24 5 5v81.22c0 2.76-2.24 5-5 5H605c-2.76 0-5-2.24-5-5z" stroke="#666" stroke-width="2" fill="#a3d977"/><use xlink:href="#f" transform="matrix(1,0,0,1,605,619) translate(6.334858088667104 32.76094723477131)"/><use xlink:href="#g" transform="matrix(1,0,0,1,605,619) translate(88.61095445254804 32.76094723477131)"/><use xlink:href="#h" transform="matrix(1,0,0,1,605,619) translate(9.796404562947217 57.478105530457384)"/><use xlink:href="#i" transform="matrix(1,0,0,1,605,619) translate(81.71646932608931 57.478105530457384)"/><use xlink:href="#j" transform="matrix(1,0,0,1,605,619) translate(102.25688559495806 57.478105530457384)"/><path d="M60.67 37.08h848v48h-848z" fill="none"/><use xlink:href="#k" transform="matrix(1,0,0,1,60.66666666666674,37.0757374435291) translate(0 31.209171169575104)"/><use xlink:href="#l" transform="matrix(1,0,0,1,60.66666666666674,37.0757374435291) translate(108.03744016627134 31.209171169575104)"/><use xlink:href="#m" transform="matrix(1,0,0,1,60.66666666666674,37.0757374435291) translate(215.87462557783226 31.209171169575104)"/><path d="M1279 37.08h688v48h-688z" fill="none"/><use xlink:href="#n" transform="matrix(1,0,0,1,1279,37.0757374435291) translate(312.73689358372457 29.14940797826793)"/><use xlink:href="#o" transform="matrix(1,0,0,1,1279,37.0757374435291) translate(395.6280581227875 29.14940797826793)"/><use xlink:href="#p" transform="matrix(1,0,0,1,1279,37.0757374435291) translate(476.44515555949255 29.14940797826793)"/><use xlink:href="#q" transform="matrix(1,0,0,1,1279,37.0757374435291) translate(505.052977660981 29.14940797826793)"/><use xlink:href="#r" transform="matrix(1,0,0,1,1279,37.0757374435291) translate(587.8726226447902 29.14940797826793)"/><use xlink:href="#s" transform="matrix(1,0,0,1,1279,37.0757374435291) translate(630.784355797023 29.14940797826793)"/><path d="M61 90c0-2.76 2.24-5 5-5h469c2.76 0 5 2.24 5 5v45c0 2.76-2.24 5-5 5H66c-2.76 0-5-2.24-5-5z" stroke="#666" stroke-width="2" fill="#ffeca9"/><use xlink:href="#t" transform="matrix(1,0,0,1,66,90) translate(14.620279327959366 16.47810553045738)"/><use xlink:href="#u" transform="matrix(1,0,0,1,66,90) translate(69.49008211861431 16.47810553045738)"/><use xlink:href="#v" transform="matrix(1,0,0,1,66,90) translate(128.93713644550743 16.47810553045738)"/><use xlink:href="#w" transform="matrix(1,0,0,1,66,90) translate(166.64224597526928 16.47810553045738)"/><use xlink:href="#x" transform="matrix(1,0,0,1,66,90) translate(197.4242625564709 16.47810553045738)"/><use xlink:href="#y" transform="matrix(1,0,0,1,66,90) translate(262.5356656594587 16.47810553045738)"/><use xlink:href="#z" transform="matrix(1,0,0,1,66,90) translate(62.566989170054086 41.195263826143446)"/><use xlink:href="#A" transform="matrix(1,0,0,1,66,90) translate(128.76548951289845 41.195263826143446)"/><use xlink:href="#B" transform="matrix(1,0,0,1,66,90) translate(152.73884443394581 41.195263826143446)"/><use xlink:href="#C" transform="matrix(1,0,0,1,66,90) translate(193.8768926158863 41.195263826143446)"/><use xlink:href="#D" transform="matrix(1,0,0,1,66,90) translate(241.82360245798102 41.195263826143446)"/><use xlink:href="#E" transform="matrix(1,0,0,1,66,90) translate(294.40477948051694 41.195263826143446)"/><path d="M140 206.5c0-2.78 2.24-5 5-5h159.55c2.76 0 5 2.22 5 5v123.57c0 2.76-2.24 5-5 5H145c-2.76 0-5-2.24-5-5z" stroke="#666" stroke-width="2" fill="#ffeca9"/><use xlink:href="#F" transform="matrix(1,0,0,1,145,206.48605557178075) translate(46.35720120864952 16.685209791242205)"/><use xlink:href="#G" transform="matrix(1,0,0,1,145,206.48605557178075) translate(13.77289183505411 41.40236808692828)"/><use xlink:href="#H" transform="matrix(1,0,0,1,145,206.48605557178075) translate(30.90897727384573 66.11952638261434)"/><use xlink:href="#I" transform="matrix(1,0,0,1,145,206.48605557178075) translate(60.60389661519079 66.11952638261434)"/><use xlink:href="#J" transform="matrix(1,0,0,1,145,206.48605557178075) translate(8.337405635771304 90.83668467830043)"/><use xlink:href="#K" transform="matrix(1,0,0,1,145,206.48605557178075) translate(132.83864742144925 90.83668467830043)"/><use xlink:href="#L" transform="matrix(1,0,0,1,145,206.48605557178075) translate(64.00822744526792 115.55384297398649)"/><path d="M600 248.78c0-2.76 2.24-5 5-5h159.55c2.76 0 5 2.24 5 5V330c0 2.76-2.24 5-5 5H605c-2.76 0-5-2.24-5-5z" stroke="#666" stroke-width="2" fill="#ffeca9"/><use xlink:href="#M" transform="matrix(1,0,0,1,605,248.784399488847) translate(30.279605187612987 45.119526382614346)"/><use xlink:href="#N" transform="matrix(1,0,0,1,605,248.784399488847) translate(97.73684970292287 45.119526382614346)"/><path d="M310.55 268.28h30.2" stroke="#666" stroke-width="2" fill="none"/><path d="M310.55 269.28h-1v-2h1zM355.76 268.28l-14.26 4.63v-9.26z" fill="#666"/><path d="M359 268.28l-18.5 6v-12zm-16.5 3.26l10.03-3.26-10.03-3.26z" fill="#666"/><path d="M360 246.78c0-2.76 2.24-5 5-5h159.55c2.76 0 5 2.24 5 5V328c0 2.76-2.24 5-5 5H365c-2.76 0-5-2.24-5-5z" stroke="#666" stroke-width="2" fill="#a3d977"/><use xlink:href="#f" transform="matrix(1,0,0,1,365,246.784399488847) translate(6.334858088667104 32.76094723477131)"/><use xlink:href="#g" transform="matrix(1,0,0,1,365,246.784399488847) translate(88.61095445254804 32.76094723477131)"/><use xlink:href="#h" transform="matrix(1,0,0,1,365,246.784399488847) translate(9.796404562947217 57.478105530457384)"/><use xlink:href="#i" transform="matrix(1,0,0,1,365,246.784399488847) translate(81.71646932608931 57.478105530457384)"/><use xlink:href="#j" transform="matrix(1,0,0,1,365,246.784399488847) translate(102.25688559495806 57.478105530457384)"/><path d="M1128.55 607.32c0-2.76 2.24-5 5-5h159.55c2.76 0 5 2.24 5 5v110c0 2.76-2.24 5-5 5h-159.55c-2.76 0-5-2.24-5-5z" stroke="#666" stroke-width="2" fill="#ffeca9"/><g><use xlink:href="#F" transform="matrix(1,0,0,1,1133.5498563245983,607.3172335902206) translate(46.35720120864952 22.043788939085236)"/><use xlink:href="#G" transform="matrix(1,0,0,1,1133.5498563245983,607.3172335902206) translate(13.77289183505411 46.76094723477131)"/><use xlink:href="#H" transform="matrix(1,0,0,1,1133.5498563245983,607.3172335902206) translate(30.90897727384573 71.47810553045737)"/><use xlink:href="#O" transform="matrix(1,0,0,1,1133.5498563245983,607.3172335902206) translate(60.60389661519079 71.47810553045737)"/><use xlink:href="#P" transform="matrix(1,0,0,1,1133.5498563245983,607.3172335902206) translate(8.880954255699578 96.19526382614345)"/><use xlink:href="#Q" transform="matrix(1,0,0,1,1133.5498563245983,607.3172335902206) translate(32.85430917674694 96.19526382614345)"/><use xlink:href="#R" transform="matrix(1,0,0,1,1133.5498563245983,607.3172335902206) translate(105.34653038191881 96.19526382614345)"/></g><path d="M859.55 621.1c0-2.76 2.24-5 5-5h159.55c2.76 0 5 2.24 5 5v81.22c0 2.76-2.24 5-5 5H864.55c-2.76 0-5-2.24-5-5z" stroke="#666" stroke-width="2" fill="#ffeca9"/><g><use xlink:href="#S" transform="matrix(1,0,0,1,864.5498563245983,621.1016330790675) translate(1.7576065524289533 32.76094723477131)"/><use xlink:href="#T" transform="matrix(1,0,0,1,864.5498563245983,621.1016330790675) translate(68.0705381836793 32.76094723477131)"/><use xlink:href="#U" transform="matrix(1,0,0,1,864.5498563245983,621.1016330790675) translate(127.46037686636943 32.76094723477131)"/><use xlink:href="#R" transform="matrix(1,0,0,1,864.5498563245983,621.1016330790675) translate(57.1137423188092 57.478105530457384)"/></g><path d="M1030.1 661.7h79.2" stroke="#666" stroke-width="2" fill="none"/><path d="M1030.1 662.7h-1v-2h1zM1124.3 661.7l-14.25 4.64v-9.27z" fill="#666"/><path d="M1127.55 661.7l-18.5 6.02V655.7zm-16.5 3.27l10.03-3.26-10.03-3.25z" fill="#666"/><path d="M1129 908.4c0-2.77 2.24-5 5-5h159.55c2.76 0 5 2.23 5 5v81.2c0 2.77-2.24 5-5 5H1134c-2.76 0-5-2.23-5-5z" stroke="#666" stroke-width="2" fill="#a3d977"/><g><use xlink:href="#f" transform="matrix(1,0,0,1,1134,908.3921997444235) translate(6.334858088667104 32.76094723477131)"/><use xlink:href="#g" transform="matrix(1,0,0,1,1134,908.3921997444235) translate(88.61095445254804 32.76094723477131)"/><use xlink:href="#h" transform="matrix(1,0,0,1,1134,908.3921997444235) translate(9.796404562947217 57.478105530457384)"/><use xlink:href="#i" transform="matrix(1,0,0,1,1134,908.3921997444235) translate(81.71646932608931 57.478105530457384)"/><use xlink:href="#j" transform="matrix(1,0,0,1,1134,908.3921997444235) translate(102.25688559495806 57.478105530457384)"/></g><path d="M1213.32 723.32v89.53h.45v71.3" stroke="#666" stroke-width="2" fill="none"/><path d="M1214.32 723.32h-2v-1h2zM1213.77 899.16l-4.63-14.27h9.27z" fill="#666"/><path d="M1213.77 902.4l-6-18.5h12.02zm-3.25-16.5l3.25 10.02 3.26-10.03z" fill="#666"/><path d="M1380 905c0-2.76 2.24-5 5-5h159.55c2.76 0 5 2.24 5 5v81.22c0 2.76-2.24 5-5 5H1385c-2.76 0-5-2.24-5-5z" stroke="#666" stroke-width="2" fill="#ffeca9"/><g><use xlink:href="#V" transform="matrix(1,0,0,1,1385,905) translate(13.77289183505411 20.402368086928274)"/><use xlink:href="#W" transform="matrix(1,0,0,1,1385,905) translate(21.754474201369412 45.11952638261434)"/><use xlink:href="#H" transform="matrix(1,0,0,1,1385,905) translate(89.21171871667929 45.11952638261434)"/><use xlink:href="#X" transform="matrix(1,0,0,1,1385,905) translate(118.90663805802436 45.11952638261434)"/><use xlink:href="#Y" transform="matrix(1,0,0,1,1385,905) translate(46.27137774234506 69.83668467830041)"/></g><path d="M1299.55 949h61.2" stroke="#666" stroke-width="2" fill="none"/><path d="M1299.55 950h-1v-2h1zM1375.76 949l-14.26 4.64v-9.28z" fill="#666"/><path d="M1379 949l-18.5 6v-12zm-16.5 3.26l10.03-3.26-10.03-3.26z" fill="#666"/><path d="M1380 1265c0-2.76 2.24-5 5-5h159.55c2.76 0 5 2.24 5 5v81.22c0 2.76-2.24 5-5 5H1385c-2.76 0-5-2.24-5-5z" stroke="#666" stroke-width="2" fill="#99d2f2"/><g><use xlink:href="#Z" transform="matrix(1,0,0,1,1385,1265) translate(16.061517603173193 32.76094723477131)"/><use xlink:href="#aa" transform="matrix(1,0,0,1,1385,1265) translate(90.27020813443437 32.76094723477131)"/><use xlink:href="#ab" transform="matrix(1,0,0,1,1385,1265) translate(10.311345360774013 57.478105530457384)"/><use xlink:href="#ac" transform="matrix(1,0,0,1,1385,1265) translate(83.49015429638159 57.478105530457384)"/></g><path d="M1464.77 992.22v248.54" stroke="#666" stroke-width="2" fill="none"/><path d="M1465.77 992.22h-2v-1h2zM1464.77 1255.76l-4.63-14.26h9.27z" fill="#666"/><path d="M1464.77 1259l-6-18.5h12.02zm-3.25-16.5l3.25 10.03 3.26-10.03z" fill="#666"/><path d="M1560 185c0-2.76 2.24-5 5-5h179.55c2.76 0 5 2.24 5 5v30c0 2.76-2.24 5-5 5H1565c-2.76 0-5-2.24-5-5z" stroke="#666" stroke-width="2" fill="#a3d977"/><g><use xlink:href="#ad" transform="matrix(1,0,0,1,1565,185) translate(6.093257776334227 19.619526382614346)"/><use xlink:href="#ae" transform="matrix(1,0,0,1,1565,185) translate(108.85255476488092 19.619526382614346)"/></g><path d="M1560 246.4c0-2.77 2.24-5 5-5h180c2.76 0 5 2.23 5 5V275c0 2.76-2.24 5-5 5h-180c-2.76 0-5-2.24-5-5z" stroke="#666" stroke-width="2" fill="#ffeca9"/><g><use xlink:href="#af" transform="matrix(1,0,0,1,1565,246.39219974442346) translate(30.566612697381586 18.619526382614346)"/><use xlink:href="#ag" transform="matrix(1,0,0,1,1565,246.39219974442346) translate(85.32198419963058 18.619526382614346)"/><use xlink:href="#ah" transform="matrix(1,0,0,1,1565,246.39219974442346) translate(115.01690354097565 18.619526382614346)"/></g><path d="M1560 306.4c0-2.77 2.24-5 5-5h180c2.76 0 5 2.23 5 5v30c0 2.75-2.24 5-5 5h-180c-2.76 0-5-2.25-5-5z" stroke="#666" stroke-width="2" fill="#99d2f2"/><g><use xlink:href="#af" transform="matrix(1,0,0,1,1565,306.39219974442346) translate(12.314822196631923 19.619526382614346)"/><use xlink:href="#ag" transform="matrix(1,0,0,1,1565,306.39219974442346) translate(67.07019369888091 19.619526382614346)"/><use xlink:href="#ai" transform="matrix(1,0,0,1,1565,306.39219974442346) translate(96.76511304022598 19.619526382614346)"/></g><path d="M300.5 141v29.74H251v11.5" stroke="#666" stroke-width="2" fill="none"/><path d="M301.5 141h-2v-1h2zM251 197.25l-4.64-14.27h9.28z" fill="#666"/><path d="M251 200.5l-6-18.52h12zm-3.26-16.52L251 194l3.26-10.02z" fill="#666"/><path d="M530.55 287.4h50.2" stroke="#666" stroke-width="2" fill="none"/><path d="M530.55 288.4h-1v-2h1zM595.76 287.4l-14.26 4.63v-9.27z" fill="#666"/><path d="M599 287.4l-18.5 6v-12.02zm-16.5 3.25l10.03-3.26-10.03-3.27z" fill="#666"/><defs><path fill="#333" d="M30-248c118-7 216 8 213 122C240-48 200 0 122 0H30v-248zM63-27c89 8 146-16 146-99s-60-101-146-95v194" id="aj"/><path fill="#333" d="M30 0v-248h187v28H63v79h144v27H63v87h162V0H30" id="ak"/><path fill="#333" d="M137 0h-34L2-248h35l83 218 83-218h36" id="al"/><path fill="#333" d="M27 0v-27h64v-190l-56 39v-29l58-41h29v221h61V0H27" id="am"/><path fill="#333" d="M16-82v-28h88v28H16" id="an"/><path fill="#333" d="M140-251c81 0 123 46 123 126C263-53 228-8 163 1c7 30 30 48 69 40v23c-55 16-95-15-103-61C56-3 17-48 17-125c0-80 42-126 123-126zm0 227c63 0 89-41 89-101s-29-99-89-99c-61 0-89 39-89 99S79-25 140-24" id="ao"/><path fill="#333" d="M205 0l-28-72H64L36 0H1l101-248h38L239 0h-34zm-38-99l-47-123c-12 45-31 82-46 123h93" id="ap"/><g id="a"><use transform="matrix(0.07151955525372126,0,0,0.07151955525372126,0,0)" xlink:href="#aj"/><use transform="matrix(0.07151955525372126,0,0,0.07151955525372126,18.523564810713808,0)" xlink:href="#ak"/><use transform="matrix(0.07151955525372126,0,0,0.07151955525372126,35.68825807160691,0)" xlink:href="#al"/><use transform="matrix(0.07151955525372126,0,0,0.07151955525372126,52.85295133250001,0)" xlink:href="#am"/><use transform="matrix(0.07151955525372126,0,0,0.07151955525372126,67.15686238324426,0)" xlink:href="#an"/><use transform="matrix(0.07151955525372126,0,0,0.07151955525372126,75.6676894584371,0)" xlink:href="#ao"/><use transform="matrix(0.07151955525372126,0,0,0.07151955525372126,95.69316492947905,0)" xlink:href="#ap"/></g><path fill="#333" d="M63-220v92h138v28H63V0H30v-248h175v28H63" id="aq"/><path fill="#333" d="M232-93c-1 65-40 97-104 97C67 4 28-28 28-90v-158h33c8 89-33 224 67 224 102 0 64-133 71-224h33v155" id="ar"/><path fill="#333" d="M30 0v-248h33v221h125V0H30" id="as"/><path fill="#333" d="M127-220V0H93v-220H8v-28h204v28h-85" id="at"/><g id="b"><use transform="matrix(0.07151955525372126,0,0,0.07151955525372126,0,0)" xlink:href="#aj"/><use transform="matrix(0.07151955525372126,0,0,0.07151955525372126,18.523564810713808,0)" xlink:href="#ak"/><use transform="matrix(0.07151955525372126,0,0,0.07151955525372126,35.68825807160691,0)" xlink:href="#aq"/><use transform="matrix(0.07151955525372126,0,0,0.07151955525372126,49.92064956709744,0)" xlink:href="#ap"/><use transform="matrix(0.07151955525372126,0,0,0.07151955525372126,67.08534282799054,0)" xlink:href="#ar"/><use transform="matrix(0.07151955525372126,0,0,0.07151955525372126,85.60890763870435,0)" xlink:href="#as"/><use transform="matrix(0.07151955525372126,0,0,0.07151955525372126,97.98179069759813,0)" xlink:href="#at"/></g><g id="c"><use transform="matrix(0.07151955525372126,0,0,0.07151955525372126,0,0)" xlink:href="#ao"/><use transform="matrix(0.07151955525372126,0,0,0.07151955525372126,20.025475471041954,0)" xlink:href="#ap"/></g><path fill="#333" d="M194 0L95-120 63-95V0H30v-248h33v124l119-124h40L117-140 236 0h-42" id="au"/><g id="d"><use transform="matrix(0.07151955525372126,0,0,0.07151955525372126,0,0)" xlink:href="#au"/><use transform="matrix(0.07151955525372126,0,0,0.07151955525372126,17.164693260893102,0)" xlink:href="#aq"/><use transform="matrix(0.07151955525372126,0,0,0.07151955525372126,32.82747586145806,0)" xlink:href="#an"/><use transform="matrix(0.07151955525372126,0,0,0.07151955525372126,41.33830293665089,0)" xlink:href="#ao"/><use transform="matrix(0.07151955525372126,0,0,0.07151955525372126,61.36377840769285,0)" xlink:href="#ap"/></g><path fill="#333" d="M30-248c87 1 191-15 191 75 0 78-77 80-158 76V0H30v-248zm33 125c57 0 124 11 124-50 0-59-68-47-124-48v98" id="av"/><path fill="#333" d="M233-177c-1 41-23 64-60 70L243 0h-38l-65-103H63V0H30v-248c88 3 205-21 203 71zM63-129c60-2 137 13 137-47 0-61-80-42-137-45v92" id="aw"/><path fill="#333" d="M140-251c81 0 123 46 123 126C263-46 219 4 140 4 59 4 17-45 17-125s42-126 123-126zm0 227c63 0 89-41 89-101s-29-99-89-99c-61 0-89 39-89 99S79-25 140-24" id="ax"/><g id="e"><use transform="matrix(0.07151955525372126,0,0,0.07151955525372126,0,0)" xlink:href="#au"/><use transform="matrix(0.07151955525372126,0,0,0.07151955525372126,17.164693260893102,0)" xlink:href="#aq"/><use transform="matrix(0.07151955525372126,0,0,0.07151955525372126,32.82747586145806,0)" xlink:href="#an"/><use transform="matrix(0.07151955525372126,0,0,0.07151955525372126,41.33830293665089,0)" xlink:href="#av"/><use transform="matrix(0.07151955525372126,0,0,0.07151955525372126,58.50299619754399,0)" xlink:href="#aw"/><use transform="matrix(0.07151955525372126,0,0,0.07151955525372126,77.0265610082578,0)" xlink:href="#ax"/><use transform="matrix(0.07151955525372126,0,0,0.07151955525372126,97.05203647929976,0)" xlink:href="#aj"/></g><path fill="#333" d="M176-78C186 10 51 31 16-35c-5-9-9-19-11-32l52-8c4 21 12 37 35 38 23 0 32-16 32-40v-130H75v-41h101v170" id="ay"/><path fill="#333" d="M185-48c-13 30-37 53-82 52C43 2 14-33 14-96s30-98 90-98c62 0 83 45 84 108H66c0 31 8 55 39 56 18 0 30-7 34-22zm-45-69c5-46-57-63-70-21-2 6-4 13-4 21h74" id="az"/><path fill="#333" d="M135-194c87-1 58 113 63 194h-50c-7-57 23-157-34-157-59 0-34 97-39 157H25l-1-190h47c2 12-1 28 3 38 12-26 28-41 61-42" id="aA"/><path fill="#333" d="M147 0L96-86 75-71V0H25v-261h50v150l67-79h53l-66 74L201 0h-54" id="aB"/><path fill="#333" d="M25-224v-37h50v37H25zM25 0v-190h50V0H25" id="aC"/><path fill="#333" d="M137-138c1-29-70-34-71-4 15 46 118 7 119 86 1 83-164 76-172 9l43-7c4 19 20 25 44 25 33 8 57-30 24-41C81-84 22-81 20-136c-2-80 154-74 161-7" id="aD"/><g id="f"><use transform="matrix(0.057215644202977006,0,0,0.057215644202977006,0,0)" xlink:href="#ay"/><use transform="matrix(0.057215644202977006,0,0,0.057215644202977006,11.443128840595401,0)" xlink:href="#az"/><use transform="matrix(0.057215644202977006,0,0,0.057215644202977006,22.886257681190802,0)" xlink:href="#aA"/><use transform="matrix(0.057215644202977006,0,0,0.057215644202977006,35.416483761642766,0)" xlink:href="#aB"/><use transform="matrix(0.057215644202977006,0,0,0.057215644202977006,46.859612602238165,0)" xlink:href="#aC"/><use transform="matrix(0.057215644202977006,0,0,0.057215644202977006,52.58117702253587,0)" xlink:href="#aA"/><use transform="matrix(0.057215644202977006,0,0,0.057215644202977006,65.11140310298784,0)" xlink:href="#aD"/></g><path fill="#333" d="M115-3C79 11 28 4 28-45v-112H4v-33h27l15-45h31v45h36v33H77v99c-1 23 16 31 38 25v30" id="aE"/><path fill="#333" d="M135-150c-39-12-60 13-60 57V0H25l-1-190h47c2 13-1 29 3 40 6-28 27-53 61-41v41" id="aF"/><path fill="#333" d="M195-6C206 82 75 100 31 46c-4-6-6-13-8-21l49-6c3 16 16 24 34 25 40 0 42-37 40-79-11 22-30 35-61 35-53 0-70-43-70-97 0-56 18-96 73-97 30 0 46 14 59 34l2-30h47zm-90-29c32 0 41-27 41-63 0-35-9-62-40-62-32 0-39 29-40 63 0 36 9 62 39 62" id="aG"/><g id="g"><use transform="matrix(0.057215644202977006,0,0,0.057215644202977006,0,0)" xlink:href="#aE"/><use transform="matrix(0.057215644202977006,0,0,0.057215644202977006,6.8086616601542636,0)" xlink:href="#aF"/><use transform="matrix(0.057215644202977006,0,0,0.057215644202977006,14.818851848571045,0)" xlink:href="#aC"/><use transform="matrix(0.057215644202977006,0,0,0.057215644202977006,20.540416268868743,0)" xlink:href="#aG"/><use transform="matrix(0.057215644202977006,0,0,0.057215644202977006,33.07064234932071,0)" xlink:href="#aG"/><use transform="matrix(0.057215644202977006,0,0,0.057215644202977006,45.600868429772675,0)" xlink:href="#az"/><use transform="matrix(0.057215644202977006,0,0,0.057215644202977006,57.043997270368074,0)" xlink:href="#aF"/></g><path fill="#333" d="M88-194c31-1 46 15 58 34l-1-101h50l1 261h-48c-2-10 0-23-3-31C134-8 116 4 84 4 32 4 16-41 15-95c0-56 19-97 73-99zm17 164c33 0 40-30 41-66 1-37-9-64-41-64s-38 30-39 65c0 43 13 65 39 65" id="aH"/><path fill="#333" d="M135-194c53 0 70 44 70 98 0 56-19 98-73 100-31 1-45-17-59-34 3 33 2 69 2 105H25l-1-265h48c2 10 0 23 3 31 11-24 29-35 60-35zM114-30c33 0 39-31 40-66 0-38-9-64-40-64-56 0-55 130 0 130" id="aI"/><path fill="#333" d="M25 0v-261h50V0H25" id="aJ"/><path fill="#333" d="M110-194c64 0 96 36 96 99 0 64-35 99-97 99-61 0-95-36-95-99 0-62 34-99 96-99zm-1 164c35 0 45-28 45-65 0-40-10-65-43-65-34 0-45 26-45 65 0 36 10 65 43 65" id="aK"/><path fill="#333" d="M123 10C108 53 80 86 19 72V37c35 8 53-11 59-39L3-190h52l48 148c12-52 28-100 44-148h51" id="aL"/><g id="h"><use transform="matrix(0.057215644202977006,0,0,0.057215644202977006,0,0)" xlink:href="#aH"/><use transform="matrix(0.057215644202977006,0,0,0.057215644202977006,12.530226080451964,0)" xlink:href="#az"/><use transform="matrix(0.057215644202977006,0,0,0.057215644202977006,23.973354921047367,0)" xlink:href="#aI"/><use transform="matrix(0.057215644202977006,0,0,0.057215644202977006,36.50358100149933,0)" xlink:href="#aJ"/><use transform="matrix(0.057215644202977006,0,0,0.057215644202977006,42.22514542179703,0)" xlink:href="#aK"/><use transform="matrix(0.057215644202977006,0,0,0.057215644202977006,54.75537150224899,0)" xlink:href="#aL"/></g><path fill="#333" d="M168-19C124 19 11 11 16-68c3-43 29-60 59-75-25-44-12-111 53-106 37 3 64 15 64 52 0 43-40 52-69 68 12 22 27 41 43 59 14-19 21-38 28-64l37 13c-8 29-19 52-34 74 12 10 32 16 52 10v35c-28 11-65-2-81-17zm-58-139c19-9 43-14 43-39 0-14-10-22-25-22-34 0-33 41-18 61zM60-68c-3 40 55 47 79 25-18-20-34-42-48-67-18 8-30 20-31 42" id="aM"/><use transform="matrix(0.057215644202977006,0,0,0.057215644202977006,0,0)" xlink:href="#aM" id="i"/><g id="j"><use transform="matrix(0.057215644202977006,0,0,0.057215644202977006,0,0)" xlink:href="#aE"/><use transform="matrix(0.057215644202977006,0,0,0.057215644202977006,6.8086616601542636,0)" xlink:href="#az"/><use transform="matrix(0.057215644202977006,0,0,0.057215644202977006,18.251790500749664,0)" xlink:href="#aD"/><use transform="matrix(0.057215644202977006,0,0,0.057215644202977006,29.69491934134506,0)" xlink:href="#aE"/><use transform="matrix(0.057215644202977006,0,0,0.057215644202977006,36.50358100149933,0)" xlink:href="#aD"/></g><path fill="#999" d="M67-125c0 54 23 88 75 88 28 0 53-7 68-21v-34h-60v-39h108v91C232-14 192 4 140 4 58 4 20-42 15-125 8-236 126-280 215-234c19 10 29 26 37 47l-47 15c-11-23-29-39-63-39-53 1-75 33-75 86" id="aN"/><path fill="#999" d="M24 0v-248h195v40H76v63h132v40H76v65h150V0H24" id="aO"/><path fill="#999" d="M175 0L67-191c6 58 2 128 3 191H24v-248h59L193-55c-6-58-2-129-3-193h46V0h-61" id="aP"/><path fill="#999" d="M128-127c34 4 56 21 59 58 7 91-148 94-172 28-4-9-6-17-7-26l51-5c1 24 16 35 40 36 23 0 39-12 38-36-1-31-31-36-65-34v-40c32 2 59-3 59-33 0-20-13-33-34-33s-33 13-35 32l-50-3c6-44 37-68 86-68 50 0 83 20 83 66 0 35-22 52-53 58" id="aQ"/><g id="k"><use transform="matrix(0.10012737735520977,0,0,0.10012737735520977,0,0)" xlink:href="#aN"/><use transform="matrix(0.10012737735520977,0,0,0.10012737735520977,28.035665659458736,0)" xlink:href="#aO"/><use transform="matrix(0.10012737735520977,0,0,0.10012737735520977,52.06623622470908,0)" xlink:href="#aP"/><use transform="matrix(0.10012737735520977,0,0,0.10012737735520977,77.99922695970841,0)" xlink:href="#aQ"/></g><path fill="#999" d="M67-125c0 53 21 87 73 88 37 1 54-22 65-47l45 17C233-25 199 4 140 4 58 4 20-42 15-125 8-235 124-281 211-232c18 10 29 29 36 50l-46 12c-8-25-30-41-62-41-52 0-71 34-72 86" id="aR"/><path fill="#999" d="M24 0v-248h52V0H24" id="aS"/><path fill="#999" d="M4 7l51-268h42L46 7H4" id="aT"/><path fill="#999" d="M24-248c120-7 223 5 221 122C244-46 201 0 124 0H24v-248zM76-40c74 7 117-18 117-86 0-67-45-88-117-82v168" id="aU"/><g id="l"><use transform="matrix(0.10012737735520977,0,0,0.10012737735520977,0,0)" xlink:href="#aR"/><use transform="matrix(0.10012737735520977,0,0,0.10012737735520977,25.93299073499933,0)" xlink:href="#aS"/><use transform="matrix(0.10012737735520977,0,0,0.10012737735520977,35.94572847052031,0)" xlink:href="#aT"/><use transform="matrix(0.10012737735520977,0,0,0.10012737735520977,45.95846620604129,0)" xlink:href="#aR"/><use transform="matrix(0.10012737735520977,0,0,0.10012737735520977,71.89145694104062,0)" xlink:href="#aU"/></g><path fill="#999" d="M24-248c93 1 206-16 204 79-1 75-69 88-152 82V0H24v-248zm52 121c47 0 100 7 100-41 0-47-54-39-100-39v80" id="aV"/><path fill="#999" d="M240-174c0 40-23 61-54 70L253 0h-59l-57-94H76V0H24v-248c93 4 217-23 216 74zM76-134c48-2 112 12 112-38 0-48-66-32-112-35v73" id="aW"/><path fill="#999" d="M140-251c80 0 125 45 125 126S219 4 139 4C58 4 15-44 15-125s44-126 125-126zm-1 214c52 0 73-35 73-88 0-50-21-86-72-86-52 0-73 35-73 86s22 88 72 88" id="aX"/><path fill="#999" d="M169-182c-1-43-94-46-97-3 18 66 151 10 154 114 3 95-165 93-204 36-6-8-10-19-12-30l50-8c3 46 112 56 116 5-17-69-150-10-154-114-4-87 153-88 188-35 5 8 8 18 10 28" id="aY"/><g id="m"><use transform="matrix(0.10012737735520977,0,0,0.10012737735520977,0,0)" xlink:href="#aV"/><use transform="matrix(0.10012737735520977,0,0,0.10012737735520977,24.030570565250343,0)" xlink:href="#aW"/><use transform="matrix(0.10012737735520977,0,0,0.10012737735520977,49.96356130024967,0)" xlink:href="#aX"/><use transform="matrix(0.10012737735520977,0,0,0.10012737735520977,77.99922695970841,0)" xlink:href="#aR"/><use transform="matrix(0.10012737735520977,0,0,0.10012737735520977,103.93221769470775,0)" xlink:href="#aO"/><use transform="matrix(0.10012737735520977,0,0,0.10012737735520977,127.96278825995809,0)" xlink:href="#aY"/><use transform="matrix(0.10012737735520977,0,0,0.10012737735520977,151.99335882520842,0)" xlink:href="#aY"/></g><path fill="#999" d="M114-157C55-157 80-60 75 0H25v-261h50l-1 109c12-26 28-41 61-42 86-1 58 113 63 194h-50c-7-57 23-157-34-157" id="aZ"/><path fill="#999" d="M25-224v-37h50v37H25zM25 0v-190h50V0H25" id="ba"/><path fill="#999" d="M25 0v-261h50V0H25" id="bb"/><path fill="#999" d="M137-138c1-29-70-34-71-4 15 46 118 7 119 86 1 83-164 76-172 9l43-7c4 19 20 25 44 25 33 8 57-30 24-41C81-84 22-81 20-136c-2-80 154-74 161-7" id="bc"/><g id="n"><use transform="matrix(0.07151955525372126,0,0,0.07151955525372126,0,0)" xlink:href="#aV"/><use transform="matrix(0.07151955525372126,0,0,0.07151955525372126,17.164693260893102,0)" xlink:href="#aZ"/><use transform="matrix(0.07151955525372126,0,0,0.07151955525372126,32.82747586145806,0)" xlink:href="#ba"/><use transform="matrix(0.07151955525372126,0,0,0.07151955525372126,39.979431386830186,0)" xlink:href="#bb"/><use transform="matrix(0.07151955525372126,0,0,0.07151955525372126,47.1313869122023,0)" xlink:href="#bb"/><use transform="matrix(0.07151955525372126,0,0,0.07151955525372126,54.28334243757443,0)" xlink:href="#ba"/><use transform="matrix(0.07151955525372126,0,0,0.07151955525372126,61.43529796294656,0)" xlink:href="#bc"/></g><path fill="#999" d="M136-208V0H84v-208H4v-40h212v40h-80" id="bd"/><path fill="#999" d="M133-34C117-15 103 5 69 4 32 3 11-16 11-54c-1-60 55-63 116-61 1-26-3-47-28-47-18 1-26 9-28 27l-52-2c7-38 36-58 82-57s74 22 75 68l1 82c-1 14 12 18 25 15v27c-30 8-71 5-69-32zm-48 3c29 0 43-24 42-57-32 0-66-3-65 30 0 17 8 27 23 27" id="be"/><path fill="#999" d="M135-194c87-1 58 113 63 194h-50c-7-57 23-157-34-157-59 0-34 97-39 157H25l-1-190h47c2 12-1 28 3 38 12-26 28-41 61-42" id="bf"/><path fill="#999" d="M195-6C206 82 75 100 31 46c-4-6-6-13-8-21l49-6c3 16 16 24 34 25 40 0 42-37 40-79-11 22-30 35-61 35-53 0-70-43-70-97 0-56 18-96 73-97 30 0 46 14 59 34l2-30h47zm-90-29c32 0 41-27 41-63 0-35-9-62-40-62-32 0-39 29-40 63 0 36 9 62 39 62" id="bg"/><g id="o"><use transform="matrix(0.07151955525372126,0,0,0.07151955525372126,0,0)" xlink:href="#bd"/><use transform="matrix(0.07151955525372126,0,0,0.07151955525372126,13.731754608714482,0)" xlink:href="#be"/><use transform="matrix(0.07151955525372126,0,0,0.07151955525372126,28.035665659458736,0)" xlink:href="#bf"/><use transform="matrix(0.07151955525372126,0,0,0.07151955525372126,43.698448260023696,0)" xlink:href="#bg"/></g><path fill="#999" d="M27 80v-341h46V80H27" id="bh"/><use transform="matrix(0.07151955525372126,0,0,0.07151955525372126,0,0)" xlink:href="#bh" id="p"/><path fill="#999" d="M230 0l2-204L168 0h-37L68-204 70 0H24v-248h70l56 185 57-185h69V0h-46" id="bi"/><path fill="#999" d="M135-150c-39-12-60 13-60 57V0H25l-1-190h47c2 13-1 29 3 40 6-28 27-53 61-41v41" id="bj"/><path fill="#999" d="M190-63c-7 42-38 67-86 67-59 0-84-38-90-98-12-110 154-137 174-36l-49 2c-2-19-15-32-35-32-30 0-35 28-38 64-6 74 65 87 74 30" id="bk"/><g id="q"><use transform="matrix(0.07151955525372126,0,0,0.07151955525372126,0,0)" xlink:href="#bi"/><use transform="matrix(0.07151955525372126,0,0,0.07151955525372126,21.38434702086266,0)" xlink:href="#be"/><use transform="matrix(0.07151955525372126,0,0,0.07151955525372126,35.68825807160691,0)" xlink:href="#bj"/><use transform="matrix(0.07151955525372126,0,0,0.07151955525372126,45.70099580712789,0)" xlink:href="#bk"/><use transform="matrix(0.07151955525372126,0,0,0.07151955525372126,60.00490685787214,0)" xlink:href="#aZ"/></g><path fill="#999" d="M182-182c0 78-84 86-111 141h115V0H12c-6-101 99-100 120-180 1-22-12-31-33-32-23 0-32 14-35 34l-49-3c5-45 32-70 84-70 51 0 83 22 83 69" id="bl"/><path fill="#999" d="M138-131c27 9 52 24 51 61 0 53-36 74-89 74S11-19 11-69c0-35 22-54 51-61-78-25-46-121 38-121 51 0 83 19 83 66 0 30-18 49-45 54zm-38-16c24 0 32-13 32-36 1-23-11-34-32-34-22 0-33 12-32 34 0 22 9 36 32 36zm1 116c27 0 37-17 37-43 0-25-13-39-39-39-24 0-37 15-37 40 0 27 11 42 39 42" id="bm"/><path fill="#999" d="M76-54c-1 42 2 86-19 110H24C36 42 46 24 48 0H25v-54h51" id="bn"/><g id="r"><use transform="matrix(0.07151955525372126,0,0,0.07151955525372126,0,0)" xlink:href="#bl"/><use transform="matrix(0.07151955525372126,0,0,0.07151955525372126,14.303911050744253,0)" xlink:href="#bm"/><use transform="matrix(0.07151955525372126,0,0,0.07151955525372126,28.607822101488505,0)" xlink:href="#bn"/></g><path fill="#999" d="M101-251c68 0 84 54 84 127C185-50 166 4 99 4S15-52 14-124c-1-75 17-127 87-127zm-1 216c37-5 36-46 36-89s4-89-36-89c-39 0-36 45-36 89 0 43-3 85 36 89" id="bo"/><path fill="#999" d="M23 0v-37h61v-169l-59 37v-38l62-41h46v211h57V0H23" id="bp"/><g id="s"><use transform="matrix(0.07151955525372126,0,0,0.07151955525372126,0,0)" xlink:href="#bl"/><use transform="matrix(0.07151955525372126,0,0,0.07151955525372126,14.303911050744253,0)" xlink:href="#bo"/><use transform="matrix(0.07151955525372126,0,0,0.07151955525372126,28.607822101488505,0)" xlink:href="#bp"/><use transform="matrix(0.07151955525372126,0,0,0.07151955525372126,42.911733152232756,0)" xlink:href="#bm"/></g><path fill="#333" d="M24-248c120-7 223 5 221 122C244-46 201 0 124 0H24v-248zM76-40c74 7 117-18 117-86 0-67-45-88-117-82v168" id="bq"/><path fill="#333" d="M128 0H69L1-190h53L99-40l48-150h52" id="br"/><path fill="#333" d="M23 0v-37h61v-169l-59 37v-38l62-41h46v211h57V0H23" id="bs"/><g id="t"><use transform="matrix(0.057215644202977006,0,0,0.057215644202977006,0,0)" xlink:href="#bq"/><use transform="matrix(0.057215644202977006,0,0,0.057215644202977006,14.818851848571045,0)" xlink:href="#az"/><use transform="matrix(0.057215644202977006,0,0,0.057215644202977006,26.261980689166446,0)" xlink:href="#br"/><use transform="matrix(0.057215644202977006,0,0,0.057215644202977006,37.70510952976185,0)" xlink:href="#bs"/></g><path fill="#333" d="M220-157c-53 9-28 100-34 157h-49v-107c1-27-5-49-29-50C55-147 81-57 75 0H25l-1-190h47c2 12-1 28 3 38 10-53 101-56 108 0 13-22 24-43 59-42 82 1 51 116 57 194h-49v-107c-1-25-5-48-29-50" id="bt"/><path fill="#333" d="M133-34C117-15 103 5 69 4 32 3 11-16 11-54c-1-60 55-63 116-61 1-26-3-47-28-47-18 1-26 9-28 27l-52-2c7-38 36-58 82-57s74 22 75 68l1 82c-1 14 12 18 25 15v27c-30 8-71 5-69-32zm-48 3c29 0 43-24 42-57-32 0-66-3-65 30 0 17 8 27 23 27" id="bu"/><g id="u"><use transform="matrix(0.057215644202977006,0,0,0.057215644202977006,0,0)" xlink:href="#bt"/><use transform="matrix(0.057215644202977006,0,0,0.057215644202977006,18.30900614495264,0)" xlink:href="#bu"/><use transform="matrix(0.057215644202977006,0,0,0.057215644202977006,29.752134985548036,0)" xlink:href="#aH"/><use transform="matrix(0.057215644202977006,0,0,0.057215644202977006,42.28236106600001,0)" xlink:href="#az"/></g><g id="v"><use transform="matrix(0.057215644202977006,0,0,0.057215644202977006,0,0)" xlink:href="#aI"/><use transform="matrix(0.057215644202977006,0,0,0.057215644202977006,12.530226080451964,0)" xlink:href="#aF"/><use transform="matrix(0.057215644202977006,0,0,0.057215644202977006,20.540416268868746,0)" xlink:href="#bs"/></g><g id="w"><use transform="matrix(0.057215644202977006,0,0,0.057215644202977006,0,0)" xlink:href="#aK"/><use transform="matrix(0.057215644202977006,0,0,0.057215644202977006,12.530226080451964,0)" xlink:href="#aA"/></g><path fill="#333" d="M121-226c-27-7-43 5-38 36h38v33H83V0H34v-157H6v-33h28c-9-59 32-81 87-68v32" id="bv"/><path fill="#333" d="M190-63c-7 42-38 67-86 67-59 0-84-38-90-98-12-110 154-137 174-36l-49 2c-2-19-15-32-35-32-30 0-35 28-38 64-6 74 65 87 74 30" id="bw"/><path fill="#333" d="M76-54c-1 42 2 86-19 110H24C36 42 46 24 48 0H25v-54h51" id="bx"/><g id="x"><use transform="matrix(0.057215644202977006,0,0,0.057215644202977006,0,0)" xlink:href="#bv"/><use transform="matrix(0.057215644202977006,0,0,0.057215644202977006,6.8086616601542636,0)" xlink:href="#az"/><use transform="matrix(0.057215644202977006,0,0,0.057215644202977006,18.251790500749664,0)" xlink:href="#aA"/><use transform="matrix(0.057215644202977006,0,0,0.057215644202977006,30.782016581201628,0)" xlink:href="#bw"/><use transform="matrix(0.057215644202977006,0,0,0.057215644202977006,42.22514542179703,0)" xlink:href="#az"/><use transform="matrix(0.057215644202977006,0,0,0.057215644202977006,53.66827426239243,0)" xlink:href="#bx"/></g><path fill="#333" d="M85 4C-2 5 27-109 22-190h50c7 57-23 150 33 157 60-5 35-97 40-157h50l1 190h-47c-2-12 1-28-3-38-12 25-28 42-61 42" id="by"/><path fill="#333" d="M4 7l51-268h42L46 7H4" id="bz"/><g id="y"><use transform="matrix(0.057215644202977006,0,0,0.057215644202977006,0,0)" xlink:href="#bt"/><use transform="matrix(0.057215644202977006,0,0,0.057215644202977006,18.30900614495264,0)" xlink:href="#bu"/><use transform="matrix(0.057215644202977006,0,0,0.057215644202977006,29.752134985548036,0)" xlink:href="#aA"/><use transform="matrix(0.057215644202977006,0,0,0.057215644202977006,42.28236106600001,0)" xlink:href="#by"/><use transform="matrix(0.057215644202977006,0,0,0.057215644202977006,54.812587146451975,0)" xlink:href="#bu"/><use transform="matrix(0.057215644202977006,0,0,0.057215644202977006,66.25571598704738,0)" xlink:href="#aJ"/><use transform="matrix(0.057215644202977006,0,0,0.057215644202977006,71.97728040734508,0)" xlink:href="#aJ"/><use transform="matrix(0.057215644202977006,0,0,0.057215644202977006,77.69884482764277,0)" xlink:href="#aL"/><use transform="matrix(0.057215644202977006,0,0,0.057215644202977006,89.14197366823818,0)" xlink:href="#bz"/><use transform="matrix(0.057215644202977006,0,0,0.057215644202977006,94.86353808853588,0)" xlink:href="#aK"/><use transform="matrix(0.057215644202977006,0,0,0.057215644202977006,107.39376416898784,0)" xlink:href="#aI"/><use transform="matrix(0.057215644202977006,0,0,0.057215644202977006,119.92399024943981,0)" xlink:href="#aE"/><use transform="matrix(0.057215644202977006,0,0,0.057215644202977006,126.73265190959407,0)" xlink:href="#aC"/><use transform="matrix(0.057215644202977006,0,0,0.057215644202977006,132.45421632989178,0)" xlink:href="#aK"/><use transform="matrix(0.057215644202977006,0,0,0.057215644202977006,144.98444241034375,0)" xlink:href="#aA"/><use transform="matrix(0.057215644202977006,0,0,0.057215644202977006,157.5146684907957,0)" xlink:href="#bu"/><use transform="matrix(0.057215644202977006,0,0,0.057215644202977006,168.9577973313911,0)" xlink:href="#aJ"/><use transform="matrix(0.057215644202977006,0,0,0.057215644202977006,174.67936175168882,0)" xlink:href="#aJ"/><use transform="matrix(0.057215644202977006,0,0,0.057215644202977006,180.40092617198653,0)" xlink:href="#aL"/></g><g id="z"><use transform="matrix(0.057215644202977006,0,0,0.057215644202977006,0,0)" xlink:href="#aE"/><use transform="matrix(0.057215644202977006,0,0,0.057215644202977006,6.8086616601542636,0)" xlink:href="#az"/><use transform="matrix(0.057215644202977006,0,0,0.057215644202977006,18.251790500749664,0)" xlink:href="#aD"/><use transform="matrix(0.057215644202977006,0,0,0.057215644202977006,29.69491934134506,0)" xlink:href="#aE"/><use transform="matrix(0.057215644202977006,0,0,0.057215644202977006,36.50358100149933,0)" xlink:href="#az"/><use transform="matrix(0.057215644202977006,0,0,0.057215644202977006,47.94670984209473,0)" xlink:href="#aH"/></g><g id="A"><use transform="matrix(0.057215644202977006,0,0,0.057215644202977006,0,0)" xlink:href="#aC"/><use transform="matrix(0.057215644202977006,0,0,0.057215644202977006,5.7215644202977005,0)" xlink:href="#aA"/></g><g id="B"><use transform="matrix(0.057215644202977006,0,0,0.057215644202977006,0,0)" xlink:href="#aH"/><use transform="matrix(0.057215644202977006,0,0,0.057215644202977006,12.530226080451964,0)" xlink:href="#az"/><use transform="matrix(0.057215644202977006,0,0,0.057215644202977006,23.973354921047367,0)" xlink:href="#br"/></g><path fill="#333" d="M35-132v-50h50v50H35zM35 0v-49h50V0H35" id="bA"/><g id="C"><use transform="matrix(0.057215644202977006,0,0,0.057215644202977006,0,0)" xlink:href="#br"/><use transform="matrix(0.057215644202977006,0,0,0.057215644202977006,11.443128840595401,0)" xlink:href="#aI"/><use transform="matrix(0.057215644202977006,0,0,0.057215644202977006,23.973354921047367,0)" xlink:href="#bw"/><use transform="matrix(0.057215644202977006,0,0,0.057215644202977006,35.416483761642766,0)" xlink:href="#bA"/></g><g id="D"><use transform="matrix(0.057215644202977006,0,0,0.057215644202977006,0,0)" xlink:href="#aH"/><use transform="matrix(0.057215644202977006,0,0,0.057215644202977006,12.530226080451964,0)" xlink:href="#az"/><use transform="matrix(0.057215644202977006,0,0,0.057215644202977006,23.973354921047367,0)" xlink:href="#br"/><use transform="matrix(0.057215644202977006,0,0,0.057215644202977006,35.416483761642766,0)" xlink:href="#bs"/></g><g id="E"><use transform="matrix(0.057215644202977006,0,0,0.057215644202977006,0,0)" xlink:href="#aA"/><use transform="matrix(0.057215644202977006,0,0,0.057215644202977006,12.530226080451964,0)" xlink:href="#bu"/><use transform="matrix(0.057215644202977006,0,0,0.057215644202977006,23.973354921047367,0)" xlink:href="#bt"/><use transform="matrix(0.057215644202977006,0,0,0.057215644202977006,42.28236106600001,0)" xlink:href="#az"/><use transform="matrix(0.057215644202977006,0,0,0.057215644202977006,53.725489906595406,0)" xlink:href="#aD"/><use transform="matrix(0.057215644202977006,0,0,0.057215644202977006,65.1686187471908,0)" xlink:href="#aI"/><use transform="matrix(0.057215644202977006,0,0,0.057215644202977006,77.69884482764277,0)" xlink:href="#bu"/><use transform="matrix(0.057215644202977006,0,0,0.057215644202977006,89.14197366823818,0)" xlink:href="#bw"/><use transform="matrix(0.057215644202977006,0,0,0.057215644202977006,100.58510250883359,0)" xlink:href="#az"/></g><g id="F"><use transform="matrix(0.057215644202977006,0,0,0.057215644202977006,0,0)" xlink:href="#by"/><use transform="matrix(0.057215644202977006,0,0,0.057215644202977006,12.530226080451964,0)" xlink:href="#aI"/><use transform="matrix(0.057215644202977006,0,0,0.057215644202977006,25.060452160903928,0)" xlink:href="#aH"/><use transform="matrix(0.057215644202977006,0,0,0.057215644202977006,37.59067824135589,0)" xlink:href="#bu"/><use transform="matrix(0.057215644202977006,0,0,0.057215644202977006,49.03380708195129,0)" xlink:href="#aE"/><use transform="matrix(0.057215644202977006,0,0,0.057215644202977006,55.84246874210555,0)" xlink:href="#az"/></g><path fill="#333" d="M14-72v-43h91v43H14" id="bB"/><g id="G"><use transform="matrix(0.057215644202977006,0,0,0.057215644202977006,0,0)" xlink:href="#bw"/><use transform="matrix(0.057215644202977006,0,0,0.057215644202977006,11.443128840595401,0)" xlink:href="#aH"/><use transform="matrix(0.057215644202977006,0,0,0.057215644202977006,23.973354921047367,0)" xlink:href="#aC"/><use transform="matrix(0.057215644202977006,0,0,0.057215644202977006,29.694919341345066,0)" xlink:href="#aD"/><use transform="matrix(0.057215644202977006,0,0,0.057215644202977006,41.13804818194047,0)" xlink:href="#bB"/><use transform="matrix(0.057215644202977006,0,0,0.057215644202977006,47.946709842094734,0)" xlink:href="#bt"/><use transform="matrix(0.057215644202977006,0,0,0.057215644202977006,66.25571598704738,0)" xlink:href="#bu"/><use transform="matrix(0.057215644202977006,0,0,0.057215644202977006,77.69884482764279,0)" xlink:href="#aA"/><use transform="matrix(0.057215644202977006,0,0,0.057215644202977006,90.22907090809476,0)" xlink:href="#aC"/><use transform="matrix(0.057215644202977006,0,0,0.057215644202977006,95.95063532839245,0)" xlink:href="#bv"/><use transform="matrix(0.057215644202977006,0,0,0.057215644202977006,102.75929698854671,0)" xlink:href="#az"/><use transform="matrix(0.057215644202977006,0,0,0.057215644202977006,114.20242582914211,0)" xlink:href="#aD"/><use transform="matrix(0.057215644202977006,0,0,0.057215644202977006,125.64555466973754,0)" xlink:href="#aE"/></g><path fill="#333" d="M84 4C32 4 15-41 15-95c0-55 18-99 73-99 29 0 47 12 58 34l2-30h48l-1 265h-49V-32C136-9 114 4 84 4zm21-34c32 0 41-29 41-66 0-36-9-64-40-64-33 0-39 30-40 65 0 43 13 65 39 65" id="bC"/><g id="H"><use transform="matrix(0.057215644202977006,0,0,0.057215644202977006,0,0)" xlink:href="#bC"/><use transform="matrix(0.057215644202977006,0,0,0.057215644202977006,12.530226080451964,0)" xlink:href="#bu"/></g><path fill="#333" d="M135-194c52 0 70 43 70 98 0 56-19 99-73 100-30 1-46-15-58-35L72 0H24l1-261h50v104c11-23 29-37 60-37zM114-30c31 0 40-27 40-66 0-37-7-63-39-63s-41 28-41 65c0 36 8 64 40 64" id="bD"/><path fill="#333" d="M114-157C55-157 80-60 75 0H25v-261h50l-1 109c12-26 28-41 61-42 86-1 58 113 63 194h-50c-7-57 23-157-34-157" id="bE"/><g id="I"><use transform="matrix(0.057215644202977006,0,0,0.057215644202977006,0,0)" xlink:href="#bD"/><use transform="matrix(0.057215644202977006,0,0,0.057215644202977006,12.530226080451964,0)" xlink:href="#aF"/><use transform="matrix(0.057215644202977006,0,0,0.057215644202977006,20.540416268868746,0)" xlink:href="#bu"/><use transform="matrix(0.057215644202977006,0,0,0.057215644202977006,31.983545109464146,0)" xlink:href="#aA"/><use transform="matrix(0.057215644202977006,0,0,0.057215644202977006,44.51377118991611,0)" xlink:href="#bw"/><use transform="matrix(0.057215644202977006,0,0,0.057215644202977006,55.95690003051151,0)" xlink:href="#bE"/></g><path fill="#333" d="M24 0v-54h51V0H24" id="bF"/><path fill="#333" d="M25-224v-37h50v37H25zM75 22c2 45-34 59-81 51V38c22 5 31-5 31-27v-201h50V22" id="bG"/><g id="J"><use transform="matrix(0.057215644202977006,0,0,0.057215644202977006,0,0)" xlink:href="#aH"/><use transform="matrix(0.057215644202977006,0,0,0.057215644202977006,12.530226080451964,0)" xlink:href="#az"/><use transform="matrix(0.057215644202977006,0,0,0.057215644202977006,23.973354921047367,0)" xlink:href="#br"/><use transform="matrix(0.057215644202977006,0,0,0.057215644202977006,35.416483761642766,0)" xlink:href="#bs"/><use transform="matrix(0.057215644202977006,0,0,0.057215644202977006,46.859612602238165,0)" xlink:href="#bC"/><use transform="matrix(0.057215644202977006,0,0,0.057215644202977006,59.38983868269012,0)" xlink:href="#bu"/><use transform="matrix(0.057215644202977006,0,0,0.057215644202977006,70.83296752328553,0)" xlink:href="#bF"/><use transform="matrix(0.057215644202977006,0,0,0.057215644202977006,76.55453194358323,0)" xlink:href="#bG"/><use transform="matrix(0.057215644202977006,0,0,0.057215644202977006,82.27609636388092,0)" xlink:href="#aD"/><use transform="matrix(0.057215644202977006,0,0,0.057215644202977006,93.71922520447633,0)" xlink:href="#aK"/><use transform="matrix(0.057215644202977006,0,0,0.057215644202977006,106.2494512849283,0)" xlink:href="#aA"/></g><path fill="#333" d="M15-22v-40l146-57-146-57v-40l181 69v56" id="bH"/><g id="K"><use transform="matrix(0.057215644202977006,0,0,0.057215644202977006,0,0)" xlink:href="#bB"/><use transform="matrix(0.057215644202977006,0,0,0.057215644202977006,6.8086616601542636,0)" xlink:href="#bH"/></g><g id="L"><use transform="matrix(0.057215644202977006,0,0,0.057215644202977006,0,0)" xlink:href="#aI"/><use transform="matrix(0.057215644202977006,0,0,0.057215644202977006,12.530226080451964,0)" xlink:href="#aF"/><use transform="matrix(0.057215644202977006,0,0,0.057215644202977006,20.540416268868746,0)" xlink:href="#bs"/></g><g id="M"><use transform="matrix(0.057215644202977006,0,0,0.057215644202977006,0,0)" xlink:href="#bt"/><use transform="matrix(0.057215644202977006,0,0,0.057215644202977006,18.30900614495264,0)" xlink:href="#az"/><use transform="matrix(0.057215644202977006,0,0,0.057215644202977006,29.752134985548036,0)" xlink:href="#aF"/><use transform="matrix(0.057215644202977006,0,0,0.057215644202977006,37.76232517396482,0)" xlink:href="#aG"/><use transform="matrix(0.057215644202977006,0,0,0.057215644202977006,50.29255125441678,0)" xlink:href="#az"/></g><g id="N"><use transform="matrix(0.057215644202977006,0,0,0.057215644202977006,0,0)" xlink:href="#aI"/><use transform="matrix(0.057215644202977006,0,0,0.057215644202977006,12.530226080451964,0)" xlink:href="#aF"/><use transform="matrix(0.057215644202977006,0,0,0.057215644202977006,20.540416268868746,0)" xlink:href="#bs"/></g><g id="O"><use transform="matrix(0.057215644202977006,0,0,0.057215644202977006,0,0)" xlink:href="#bD"/><use transform="matrix(0.057215644202977006,0,0,0.057215644202977006,12.530226080451964,0)" xlink:href="#aF"/><use transform="matrix(0.057215644202977006,0,0,0.057215644202977006,20.540416268868746,0)" xlink:href="#bu"/><use transform="matrix(0.057215644202977006,0,0,0.057215644202977006,31.983545109464146,0)" xlink:href="#aA"/><use transform="matrix(0.057215644202977006,0,0,0.057215644202977006,44.51377118991611,0)" xlink:href="#bw"/><use transform="matrix(0.057215644202977006,0,0,0.057215644202977006,55.95690003051151,0)" xlink:href="#bE"/></g><g id="P"><use transform="matrix(0.057215644202977006,0,0,0.057215644202977006,0,0)" xlink:href="#aB"/><use transform="matrix(0.057215644202977006,0,0,0.057215644202977006,11.443128840595401,0)" xlink:href="#bv"/></g><g id="Q"><use transform="matrix(0.057215644202977006,0,0,0.057215644202977006,0,0)" xlink:href="#bF"/><use transform="matrix(0.057215644202977006,0,0,0.057215644202977006,5.7215644202977005,0)" xlink:href="#bG"/><use transform="matrix(0.057215644202977006,0,0,0.057215644202977006,11.443128840595401,0)" xlink:href="#aD"/><use transform="matrix(0.057215644202977006,0,0,0.057215644202977006,22.886257681190802,0)" xlink:href="#aK"/><use transform="matrix(0.057215644202977006,0,0,0.057215644202977006,35.416483761642766,0)" xlink:href="#aA"/><use transform="matrix(0.057215644202977006,0,0,0.057215644202977006,47.946709842094734,0)" xlink:href="#bB"/><use transform="matrix(0.057215644202977006,0,0,0.057215644202977006,54.755371502249,0)" xlink:href="#bH"/></g><path fill="#333" d="M182-182c0 78-84 86-111 141h115V0H12c-6-101 99-100 120-180 1-22-12-31-33-32-23 0-32 14-35 34l-49-3c5-45 32-70 84-70 51 0 83 22 83 69" id="bI"/><path fill="#333" d="M101-251c68 0 84 54 84 127C185-50 166 4 99 4S15-52 14-124c-1-75 17-127 87-127zm-1 216c37-5 36-46 36-89s4-89-36-89c-39 0-36 45-36 89 0 43-3 85 36 89" id="bJ"/><g id="R"><use transform="matrix(0.057215644202977006,0,0,0.057215644202977006,0,0)" xlink:href="#bs"/><use transform="matrix(0.057215644202977006,0,0,0.057215644202977006,11.443128840595401,0)" xlink:href="#bF"/><use transform="matrix(0.057215644202977006,0,0,0.057215644202977006,17.164693260893102,0)" xlink:href="#bI"/><use transform="matrix(0.057215644202977006,0,0,0.057215644202977006,28.6078221014885,0)" xlink:href="#bF"/><use transform="matrix(0.057215644202977006,0,0,0.057215644202977006,34.329386521786205,0)" xlink:href="#bJ"/></g><g id="S"><use transform="matrix(0.057215644202977006,0,0,0.057215644202977006,0,0)" xlink:href="#bw"/><use transform="matrix(0.057215644202977006,0,0,0.057215644202977006,11.443128840595401,0)" xlink:href="#aF"/><use transform="matrix(0.057215644202977006,0,0,0.057215644202977006,19.45331902901218,0)" xlink:href="#az"/><use transform="matrix(0.057215644202977006,0,0,0.057215644202977006,30.896447869607584,0)" xlink:href="#bu"/><use transform="matrix(0.057215644202977006,0,0,0.057215644202977006,42.339576710202984,0)" xlink:href="#aE"/><use transform="matrix(0.057215644202977006,0,0,0.057215644202977006,49.14823837035725,0)" xlink:href="#az"/></g><g id="T"><use transform="matrix(0.057215644202977006,0,0,0.057215644202977006,0,0)" xlink:href="#bv"/><use transform="matrix(0.057215644202977006,0,0,0.057215644202977006,6.8086616601542636,0)" xlink:href="#az"/><use transform="matrix(0.057215644202977006,0,0,0.057215644202977006,18.251790500749664,0)" xlink:href="#aA"/><use transform="matrix(0.057215644202977006,0,0,0.057215644202977006,30.782016581201628,0)" xlink:href="#bw"/><use transform="matrix(0.057215644202977006,0,0,0.057215644202977006,42.22514542179703,0)" xlink:href="#az"/></g><g id="U"><use transform="matrix(0.057215644202977006,0,0,0.057215644202977006,0,0)" xlink:href="#aE"/><use transform="matrix(0.057215644202977006,0,0,0.057215644202977006,6.8086616601542636,0)" xlink:href="#bu"/><use transform="matrix(0.057215644202977006,0,0,0.057215644202977006,18.251790500749664,0)" xlink:href="#aG"/></g><g id="V"><use transform="matrix(0.057215644202977006,0,0,0.057215644202977006,0,0)" xlink:href="#bw"/><use transform="matrix(0.057215644202977006,0,0,0.057215644202977006,11.443128840595401,0)" xlink:href="#aH"/><use transform="matrix(0.057215644202977006,0,0,0.057215644202977006,23.973354921047367,0)" xlink:href="#aC"/><use transform="matrix(0.057215644202977006,0,0,0.057215644202977006,29.694919341345066,0)" xlink:href="#aD"/><use transform="matrix(0.057215644202977006,0,0,0.057215644202977006,41.13804818194047,0)" xlink:href="#bB"/><use transform="matrix(0.057215644202977006,0,0,0.057215644202977006,47.946709842094734,0)" xlink:href="#bt"/><use transform="matrix(0.057215644202977006,0,0,0.057215644202977006,66.25571598704738,0)" xlink:href="#bu"/><use transform="matrix(0.057215644202977006,0,0,0.057215644202977006,77.69884482764279,0)" xlink:href="#aA"/><use transform="matrix(0.057215644202977006,0,0,0.057215644202977006,90.22907090809476,0)" xlink:href="#aC"/><use transform="matrix(0.057215644202977006,0,0,0.057215644202977006,95.95063532839245,0)" xlink:href="#bv"/><use transform="matrix(0.057215644202977006,0,0,0.057215644202977006,102.75929698854671,0)" xlink:href="#az"/><use transform="matrix(0.057215644202977006,0,0,0.057215644202977006,114.20242582914211,0)" xlink:href="#aD"/><use transform="matrix(0.057215644202977006,0,0,0.057215644202977006,125.64555466973754,0)" xlink:href="#aE"/></g><g id="W"><use transform="matrix(0.057215644202977006,0,0,0.057215644202977006,0,0)" xlink:href="#bt"/><use transform="matrix(0.057215644202977006,0,0,0.057215644202977006,18.30900614495264,0)" xlink:href="#az"/><use transform="matrix(0.057215644202977006,0,0,0.057215644202977006,29.752134985548036,0)" xlink:href="#aF"/><use transform="matrix(0.057215644202977006,0,0,0.057215644202977006,37.76232517396482,0)" xlink:href="#aG"/><use transform="matrix(0.057215644202977006,0,0,0.057215644202977006,50.29255125441678,0)" xlink:href="#az"/></g><g id="X"><use transform="matrix(0.057215644202977006,0,0,0.057215644202977006,0,0)" xlink:href="#aE"/><use transform="matrix(0.057215644202977006,0,0,0.057215644202977006,6.8086616601542636,0)" xlink:href="#aK"/></g><g id="Y"><use transform="matrix(0.057215644202977006,0,0,0.057215644202977006,0,0)" xlink:href="#bt"/><use transform="matrix(0.057215644202977006,0,0,0.057215644202977006,18.30900614495264,0)" xlink:href="#bu"/><use transform="matrix(0.057215644202977006,0,0,0.057215644202977006,29.752134985548036,0)" xlink:href="#aD"/><use transform="matrix(0.057215644202977006,0,0,0.057215644202977006,41.19526382614344,0)" xlink:href="#aE"/><use transform="matrix(0.057215644202977006,0,0,0.057215644202977006,48.0039254862977,0)" xlink:href="#az"/><use transform="matrix(0.057215644202977006,0,0,0.057215644202977006,59.447054326893095,0)" xlink:href="#aF"/></g><g id="Z"><use transform="matrix(0.057215644202977006,0,0,0.057215644202977006,0,0)" xlink:href="#bq"/><use transform="matrix(0.057215644202977006,0,0,0.057215644202977006,14.818851848571045,0)" xlink:href="#az"/><use transform="matrix(0.057215644202977006,0,0,0.057215644202977006,26.261980689166446,0)" xlink:href="#aI"/><use transform="matrix(0.057215644202977006,0,0,0.057215644202977006,38.79220676961841,0)" xlink:href="#aJ"/><use transform="matrix(0.057215644202977006,0,0,0.057215644202977006,44.51377118991611,0)" xlink:href="#aK"/><use transform="matrix(0.057215644202977006,0,0,0.057215644202977006,57.04399727036808,0)" xlink:href="#aL"/></g><g id="aa"><use transform="matrix(0.057215644202977006,0,0,0.057215644202977006,0,0)" xlink:href="#aJ"/><use transform="matrix(0.057215644202977006,0,0,0.057215644202977006,5.7215644202977005,0)" xlink:href="#bu"/><use transform="matrix(0.057215644202977006,0,0,0.057215644202977006,17.164693260893102,0)" xlink:href="#aE"/><use transform="matrix(0.057215644202977006,0,0,0.057215644202977006,23.973354921047367,0)" xlink:href="#az"/><use transform="matrix(0.057215644202977006,0,0,0.057215644202977006,35.416483761642766,0)" xlink:href="#aD"/><use transform="matrix(0.057215644202977006,0,0,0.057215644202977006,46.859612602238165,0)" xlink:href="#aE"/></g><g id="ab"><use transform="matrix(0.057215644202977006,0,0,0.057215644202977006,0,0)" xlink:href="#bt"/><use transform="matrix(0.057215644202977006,0,0,0.057215644202977006,18.30900614495264,0)" xlink:href="#bu"/><use transform="matrix(0.057215644202977006,0,0,0.057215644202977006,29.752134985548036,0)" xlink:href="#aD"/><use transform="matrix(0.057215644202977006,0,0,0.057215644202977006,41.19526382614344,0)" xlink:href="#aE"/><use transform="matrix(0.057215644202977006,0,0,0.057215644202977006,48.0039254862977,0)" xlink:href="#az"/><use transform="matrix(0.057215644202977006,0,0,0.057215644202977006,59.447054326893095,0)" xlink:href="#aF"/></g><g id="ac"><use transform="matrix(0.057215644202977006,0,0,0.057215644202977006,0,0)" xlink:href="#aB"/><use transform="matrix(0.057215644202977006,0,0,0.057215644202977006,11.443128840595401,0)" xlink:href="#bv"/><use transform="matrix(0.057215644202977006,0,0,0.057215644202977006,18.251790500749664,0)" xlink:href="#bF"/><use transform="matrix(0.057215644202977006,0,0,0.057215644202977006,23.973354921047363,0)" xlink:href="#bG"/><use transform="matrix(0.057215644202977006,0,0,0.057215644202977006,29.69491934134506,0)" xlink:href="#aD"/><use transform="matrix(0.057215644202977006,0,0,0.057215644202977006,41.13804818194046,0)" xlink:href="#aK"/><use transform="matrix(0.057215644202977006,0,0,0.057215644202977006,53.66827426239243,0)" xlink:href="#aA"/></g><g id="ad"><use transform="matrix(0.057215644202977006,0,0,0.057215644202977006,0,0)" xlink:href="#bu"/><use transform="matrix(0.057215644202977006,0,0,0.057215644202977006,11.443128840595401,0)" xlink:href="#by"/><use transform="matrix(0.057215644202977006,0,0,0.057215644202977006,23.973354921047367,0)" xlink:href="#aE"/><use transform="matrix(0.057215644202977006,0,0,0.057215644202977006,30.782016581201628,0)" xlink:href="#aK"/><use transform="matrix(0.057215644202977006,0,0,0.057215644202977006,43.3122426616536,0)" xlink:href="#bt"/><use transform="matrix(0.057215644202977006,0,0,0.057215644202977006,61.62124880660624,0)" xlink:href="#bu"/><use transform="matrix(0.057215644202977006,0,0,0.057215644202977006,73.06437764720164,0)" xlink:href="#aE"/><use transform="matrix(0.057215644202977006,0,0,0.057215644202977006,79.8730393073559,0)" xlink:href="#aC"/><use transform="matrix(0.057215644202977006,0,0,0.057215644202977006,85.59460372765359,0)" xlink:href="#bw"/></g><g id="ae"><use transform="matrix(0.057215644202977006,0,0,0.057215644202977006,0,0)" xlink:href="#aE"/><use transform="matrix(0.057215644202977006,0,0,0.057215644202977006,6.8086616601542636,0)" xlink:href="#aF"/><use transform="matrix(0.057215644202977006,0,0,0.057215644202977006,14.818851848571045,0)" xlink:href="#aC"/><use transform="matrix(0.057215644202977006,0,0,0.057215644202977006,20.540416268868743,0)" xlink:href="#aG"/><use transform="matrix(0.057215644202977006,0,0,0.057215644202977006,33.07064234932071,0)" xlink:href="#aG"/><use transform="matrix(0.057215644202977006,0,0,0.057215644202977006,45.600868429772675,0)" xlink:href="#az"/><use transform="matrix(0.057215644202977006,0,0,0.057215644202977006,57.043997270368074,0)" xlink:href="#aF"/></g><g id="af"><use transform="matrix(0.057215644202977006,0,0,0.057215644202977006,0,0)" xlink:href="#aH"/><use transform="matrix(0.057215644202977006,0,0,0.057215644202977006,12.530226080451964,0)" xlink:href="#aK"/><use transform="matrix(0.057215644202977006,0,0,0.057215644202977006,25.060452160903928,0)" xlink:href="#aA"/><use transform="matrix(0.057215644202977006,0,0,0.057215644202977006,37.59067824135589,0)" xlink:href="#az"/></g><g id="ag"><use transform="matrix(0.057215644202977006,0,0,0.057215644202977006,0,0)" xlink:href="#bD"/><use transform="matrix(0.057215644202977006,0,0,0.057215644202977006,12.530226080451964,0)" xlink:href="#aL"/></g><g id="ah"><use transform="matrix(0.057215644202977006,0,0,0.057215644202977006,0,0)" xlink:href="#aH"/><use transform="matrix(0.057215644202977006,0,0,0.057215644202977006,12.530226080451964,0)" xlink:href="#az"/><use transform="matrix(0.057215644202977006,0,0,0.057215644202977006,23.973354921047367,0)" xlink:href="#br"/></g><g id="ai"><use transform="matrix(0.057215644202977006,0,0,0.057215644202977006,0,0)" xlink:href="#aH"/><use transform="matrix(0.057215644202977006,0,0,0.057215644202977006,12.530226080451964,0)" xlink:href="#az"/><use transform="matrix(0.057215644202977006,0,0,0.057215644202977006,23.973354921047367,0)" xlink:href="#br"/><use transform="matrix(0.057215644202977006,0,0,0.057215644202977006,35.416483761642766,0)" xlink:href="#aK"/><use transform="matrix(0.057215644202977006,0,0,0.057215644202977006,47.946709842094734,0)" xlink:href="#aI"/><use transform="matrix(0.057215644202977006,0,0,0.057215644202977006,60.476935922546694,0)" xlink:href="#aD"/></g></defs></g></svg>