<?xml version="1.0" encoding="utf-8"?><svg version="1.1" id="Layer_1" xmlns="http://www.w3.org/2000/svg" xmlns:xlink="http://www.w3.org/1999/xlink" x="0px" y="0px" viewBox="-528 662 578 130" enable-background="new -528 662 578 130" xml:space="preserve"><title>NIH: National Institute of Diabetes and Digestive and Kidney Diseases</title><g><g><path fill="#646569" d="M-383.6,698.1v58h-10.1l0,0v-26.3h-26.6v26.3h-10.1v-58h10.1v23.2h26.6v-23.2l0,0H-383.6z M-440.6,756.4 L-440.6,756.4h-10.1v-58h10.1V756.4z M-460.7,756.4L-460.7,756.4h-10.8l-26.6-42.8h-0.3v42.8h-9.8l0,0v-58l0,0h10.8l0,0l26.6,42.8 h0.3v-42.8h9.8V756.4z M-347.7,727l-35.9-65h-132.6c-6.7,0-11.9,5.4-11.9,11.9v106c0,6.7,5.4,11.9,11.9,11.9h132.3L-347.7,727z"/><path fill="#71963E" d="M-374.5,792l36.1-65l-35.9-65h9c4.9,0,10.8,3.6,13.2,7.7l31.5,57.3l-31.7,57.3c-2.3,4.4-8.3,7.7-13.4,7.7 H-374.5z"/></g><g>
<path fill="#616365" d="M-305,674.6h4.4l10.8,17.5l0,0v-17.5h3.9v24h-4.4l-10.8-17.5l0,0v17.5h-3.9 C-305,698.6-305,674.6-305,674.6z"/><path fill="#616365" d="M-266.6,694.8c0,0.3,0,0.8,0.3,1c0,0.3,0.3,0.3,0.8,0.3h1v2.6c-0.3,0-0.5,0-0.5,0.3c-0.3,0-0.5,0-0.8,0.3 h-1.3c-0.8,0-1.5-0.3-2.1-0.5c-0.5-0.3-1-1-1-1.5c-0.8,0.8-1.8,1.3-2.8,1.5c-1,0.3-2.1,0.5-3.1,0.5c-0.8,0-1.5,0-2.3-0.3 c-0.8-0.3-1.3-0.5-1.8-1c-0.5-0.5-1-1-1.3-1.5c-0.3-0.8-0.5-1.5-0.5-2.3c0-0.8,0.3-1.8,0.5-2.6c0.3-0.5,1-1.3,1.5-1.5 c0.5-0.5,1.3-0.8,2.1-0.8c0.8-0.3,1.5-0.3,2.3-0.3c0.8-0.3,1.3-0.3,2.1-0.3c0.5,0,1,0,1.5-0.3c0.3,0,0.8-0.3,1-0.5 c0.3-0.3,0.5-0.8,0.5-1.3c0-0.5,0-0.8-0.3-1.3l-0.8-0.8c-0.3-0.3-0.8-0.3-1-0.3h-1.3c-1,0-1.8,0.3-2.6,0.8s-1.3,1.3-1.3,2.1h-3.9 c0-1,0.3-2.1,0.8-2.8c0.5-0.8,1-1.3,1.8-1.8c0.8-0.5,1.5-0.8,2.6-1c1-0.3,1.8-0.3,2.8-0.3c0.8,0,1.8,0,2.6,0.3l2.3,0.8 c0.5,0.3,1.3,1,1.5,1.5c0.5,0.8,0.8,1.5,0.5,2.3V694.8L-266.6,694.8L-266.6,694.8z M-270.5,689.9c-0.8,0.3-1.3,0.5-2.1,0.8
c-0.8,0-1.8,0.3-2.6,0.3s-0.8,0.3-1.3,0.3s-0.8,0.3-1,0.5l-0.8,0.8c-0.3,0.5-0.3,0.8-0.3,1.3c0,0.3,0,0.8,0.3,1l0.8,0.8 c0.3,0.3,0.8,0.3,1,0.3h1c0.5,0,0.8,0,1.3-0.3c0.5,0,1-0.3,1.3-0.5c0.5-0.3,0.8-0.5,1-1c0.3-0.5,0.5-1,0.5-1.5v-2.6L-270.5,689.9 L-270.5,689.9z"/><path fill="#616365" d="M-264.3,681.3h2.8v-5.2h3.9v5.2h3.4v2.8h-3.4v10.3c0,0.3,0,0.5,0.3,0.8c0,0.3,0.3,0.5,0.5,0.5 c0.3,0.3,0.8,0.3,1,0.3h1.5v2.8c-0.5,0-0.8,0-1.3,0.3h-1.3c-0.8,0-1.5,0-2.3-0.3l-1.5-0.8c-0.3-0.5-0.5-0.8-0.8-1.3 c0-0.5-0.3-1.3-0.3-1.8v-10.3h-2.8v-3.4L-264.3,681.3L-264.3,681.3z"/><path fill="#616365" d="M-251.4,674.6h3.9v3.6h-3.9V674.6z M-251.4,681.3h3.9v17.3h-3.9V681.3z"/><path fill="#616365" d="M-235.4,699.1c-1.3,0-2.6-0.3-3.6-0.8c-2.1-0.8-3.9-2.6-4.6-4.6c-0.5-1-0.5-2.3-0.5-3.6s0.3-2.3,0.5-3.6 c0.5-1,1-2.1,1.8-2.8c0.8-0.8,1.8-1.5,2.8-1.8c2.3-1,4.9-1,7.2,0c2.1,0.8,3.9,2.6,4.6,4.6c0.5,1,0.5,2.3,0.5,3.6s-0.3,2.3-0.5,3.6 c-0.5,1-1,2.1-1.8,2.8c-0.8,0.8-1.8,1.5-2.8,1.8C-232.8,698.9-234.1,699.1-235.4,699.1z M-235.4,696c0.8,0,1.5-0.3,2.3-0.5
c0.5-0.3,1-0.8,1.5-1.3c0.5-0.5,0.8-1.3,0.8-2.1c0.3-1.5,0.3-3.1,0-4.6c-0.3-0.8-0.5-1.3-0.8-2.1c-0.5-0.5-1-1-1.5-1.3 c-0.8-0.3-1.5-0.5-2.3-0.5c-0.8,0-1.5,0.3-2.3,0.5c-0.5,0.3-1,0.8-1.5,1.3s-0.8,1.3-0.8,2.1c-0.3,1.5-0.3,3.1,0,4.6 c0.3,0.8,0.5,1.3,0.8,2.1c0.5,0.5,1,1,1.5,1.3C-236.9,696-236.2,696-235.4,696z"/><path fill="#616365" d="M-223.3,681.3h3.6v2.6l0,0c0.5-1,1.3-1.8,2.3-2.3c1-0.5,2.1-0.8,3.1-0.8c2.8-0.3,5.7,1.8,5.9,4.9 c0,0.3,0,0.8,0,1v11.9h-3.9v-10.8c0-1-0.3-2.1-0.8-3.1c-0.5-0.8-1.5-1.3-2.6-1c-0.5,0-1.3,0-1.8,0.3s-1,0.5-1.3,1 c-0.3,0.5-0.5,1-0.8,1.5c-0.3,0.5-0.3,1.3-0.3,1.8v10.3h-3.6V681.3z"/><path fill="#616365" d="M-189.5,694.8c0,0.3,0,0.8,0.3,1c0,0.3,0.3,0.3,0.8,0.3h1v2.6c-0.3,0-0.5,0-0.5,0.3c-0.3,0-0.5,0-0.8,0.3 h-1.3c-0.8,0-1.5-0.3-2.1-0.5c-0.5-0.3-1-1-1-1.5c-0.8,0.8-1.8,1.3-2.8,1.5s-2.1,0.5-3.1,0.5c-0.8,0-1.5,0-2.3-0.3 c-0.8-0.3-1.3-0.5-1.8-1c-0.5-0.5-1-1-1.3-1.5c-0.3-0.8-0.5-1.5-0.5-2.3c0-0.8,0.3-1.8,0.5-2.6c0.3-0.5,1-1.3,1.5-1.5
c0.5-0.5,1.3-0.8,2.1-0.8c0.8-0.3,1.5-0.3,2.3-0.3c0.8-0.3,1.3-0.3,2.1-0.3c0.5,0,1,0,1.5-0.3c0.3,0,0.8-0.3,1-0.5 c0.3-0.3,0.5-0.8,0.5-1.3c0-0.5,0-0.8-0.3-1.3l-0.8-0.8c-0.3-0.3-0.8-0.3-1-0.3h-1.3c-1,0-1.8,0.3-2.6,0.8 c-0.8,0.5-1.3,1.3-1.3,2.1h-3.9c0-1,0.3-2.1,0.8-2.8c0.5-0.8,1-1.3,1.8-1.8c0.8-0.5,1.5-0.8,2.6-1c1-0.3,1.8-0.3,2.8-0.3 c0.8,0,1.8,0,2.6,0.3l2.3,0.8c0.5,0.3,1.3,1,1.5,1.5c0.5,0.8,0.8,1.5,0.5,2.3V694.8L-189.5,694.8L-189.5,694.8z M-193.1,689.9 c-0.8,0.3-1.3,0.5-2.1,0.8c-0.8,0-1.8,0.3-2.6,0.3s-0.8,0.3-1.3,0.3c-0.5,0-0.8,0.3-1,0.5l-0.8,0.8c-0.3,0.5-0.3,0.8-0.3,1.3 c0,0.3,0,0.8,0.3,1l0.8,0.8c0.3,0.3,0.8,0.3,1,0.3h1c0.5,0,0.8,0,1.3-0.3c0.5,0,1-0.3,1.3-0.5c0.5-0.3,0.8-0.5,1-1 c0.3-0.5,0.5-1,0.5-1.5v-2.6L-193.1,689.9L-193.1,689.9z"/><path fill="#616365" d="M-185.1,674.6h3.9v24h-3.9V674.6z"/><path fill="#616365" d="M-167.3,674.6h4.1v24h-4.1V674.6z"/><path fill="#616365" d="M-158.5,681.3h3.6v2.6l0,0c0.5-1,1.3-1.8,2.3-2.3c1-0.5,2.1-0.8,3.1-0.8c2.8-0.3,5.7,1.8,5.9,4.9
c0,0.3,0,0.8,0,1v11.9h-3.9v-10.8c0-1-0.3-2.1-0.8-3.1c-0.5-0.8-1.5-1.3-2.6-1c-0.5,0-1.3,0-1.8,0.3c-0.5,0.3-1,0.5-1.3,1 c-0.3,0.5-0.5,1-0.8,1.5c-0.3,0.5-0.3,1.3-0.3,1.8v10.3h-3.9v-17.3L-158.5,681.3L-158.5,681.3z"/><path fill="#616365" d="M-136.3,693c0,1,0.5,1.8,1.3,2.3c0.8,0.5,1.5,0.8,2.6,0.8h1.3c0.5,0,0.8-0.3,1.3-0.3s0.8-0.3,1-0.8 c0.3-0.5,0.3-0.8,0.3-1.3c0-0.5-0.3-1-0.5-1.3c-0.5-0.3-0.8-0.5-1.3-0.8c-0.5-0.3-1.3-0.3-1.8-0.5c-0.8-0.3-1.3-0.3-2.1-0.5 c-0.8-0.3-1.3-0.3-2.1-0.5c-0.8-0.3-1.3-0.5-1.8-1c-0.5-0.5-1-1-1.3-1.5c-0.3-0.8-0.5-1.5-0.5-2.3c0-0.8,0.3-1.8,0.8-2.3 c0.5-0.5,1-1,1.8-1.5c0.8-0.5,1.5-0.8,2.3-0.8c1.8-0.3,3.4-0.3,5.2,0c0.8,0.3,1.5,0.5,2.3,1c1.5,0.8,2.3,2.6,2.3,4.1h-3.9 c0-0.8-0.5-1.5-1.3-1.8c-0.8-0.3-1.5-0.5-2.3-0.5h-1c-0.3,0-0.8,0-1,0.3c-0.3,0-0.5,0.3-0.8,0.5c-0.3,0.3-0.3,0.8-0.3,1 c0,0.5,0.3,0.8,0.5,1c0.5,0.3,0.8,0.5,1.3,0.8c0.5,0.3,1.3,0.3,1.8,0.5c0.8,0.3,1.3,0.3,2.1,0.5c0.8,0.3,1.3,0.3,2.1,0.5
c0.8,0.3,1.3,0.5,1.8,1c0.5,0.3,1,0.8,1.3,1.5c0.3,0.5,0.5,1.3,0.5,2.1c0,1-0.3,1.8-0.8,2.6c-0.5,0.8-1,1.3-1.8,1.8 c-0.8,0.5-1.5,0.8-2.6,1c-1,0.3-1.8,0.3-2.8,0.3c-1,0-2.1,0-3.1-0.3c-0.8-0.3-1.5-0.5-2.3-1c-0.8-0.5-1.3-1-1.5-1.8 c-0.5-0.8-0.5-1.8-0.5-2.6h3.6L-136.3,693L-136.3,693z"/><path fill="#616365" d="M-123.7,681.3h2.8v-5.2h3.9v5.2h3.4v2.8h-3.4v10.3c0,0.3,0,0.5,0.3,0.8c0,0.3,0.3,0.5,0.5,0.5 c0.3,0,0.8,0.3,1,0.3h1.5v2.8c-0.5,0-0.8,0-1.3,0.3h-1.3c-0.8,0-1.5,0-2.3-0.3l-1.5-0.8c-0.3-0.5-0.5-0.8-0.8-1.3 c0-0.5-0.3-1.3-0.3-1.8v-10.3h-2.8v-3.4L-123.7,681.3L-123.7,681.3z"/><path fill="#616365" d="M-110.5,674.6h3.9v3.6h-3.9V674.6z M-110.5,681.3h3.9v17.3h-3.9V681.3z"/><path fill="#616365" d="M-104.4,681.3h2.8v-5.2h3.9v5.2h3.4v2.8h-3.4v10.3c0,0.3,0,0.5,0.3,0.8c0,0.3,0.3,0.5,0.5,0.5 c0.3,0,0.8,0.3,1,0.3h1.5v2.8c-0.5,0-0.8,0-1.3,0.3h-1.3c-0.8,0-1.5,0-2.3-0.3l-1.5-0.8c-0.3-0.5-0.5-0.8-0.8-1.3 c0-0.5-0.3-1.3-0.3-1.8v-10.3h-2.8v-3.4L-104.4,681.3L-104.4,681.3z"/>
<path fill="#616365" d="M-76,698.6h-3.9v-2.3l0,0c-0.5,0.8-1.3,1.5-2.1,2.1c-0.8,0.5-1.8,0.8-2.8,0.8c-1.8,0.3-3.6-0.5-4.9-1.8 c-1.3-1.5-1.8-3.4-1.5-5.2v-11.1h3.9v10.6c-0.3,1,0.3,2.3,0.8,3.1c0.5,0.5,1.5,1,2.3,1c0.8,0,1.3,0,2.1-0.3c0.5-0.3,1-0.5,1.3-1 l0.8-1.5c0.3-0.5,0.3-1.3,0.3-1.8v-10.1h3.9V698.6L-76,698.6L-76,698.6z"/><path fill="#616365" d="M-73.7,681.3h2.8v-5.2h3.9v5.2h3.4v2.8H-67v10.3c0,0.3,0,0.5,0.3,0.8c0,0.3,0.3,0.5,0.5,0.5 c0.3,0,0.8,0.3,1,0.3h1.5v2.8c-0.5,0-0.8,0-1.3,0.3h-1.3c-0.8,0-1.5,0-2.3-0.3l-1.5-0.8c-0.3-0.5-0.5-0.8-0.8-1.3 c0-0.5-0.3-1.3-0.3-1.8v-10.3h-2.8v-3.4L-73.7,681.3L-73.7,681.3z"/><path fill="#616365" d="M-57.9,690.9c0,0.8,0,1.3,0.3,2.1c0.3,0.5,0.5,1,0.8,1.5c0.5,0.5,1,0.8,1.5,1c0.5,0.3,1.3,0.5,2.1,0.5 c1,0,1.8-0.3,2.6-0.8c0.8-0.5,1.3-1.3,1.5-2.1h3.6c-0.3,1-0.5,1.8-1,2.6c-0.5,0.8-1,1.3-1.8,1.8c-0.8,0.5-1.5,0.8-2.3,1 c-0.8,0.3-1.8,0.3-2.6,0.3c-1.3,0-2.6-0.3-3.6-0.8c-1-0.3-1.8-1-2.6-1.8c-0.8-0.8-1.3-1.8-1.5-2.8c-0.3-1.3-0.5-2.3-0.5-3.6
s0.3-2.3,0.5-3.6c0.5-1,1-1.8,1.5-2.8c0.8-0.8,1.5-1.5,2.6-2.1c1-0.5,2.3-0.8,3.6-0.8c1.3,0,2.6,0.3,3.6,0.8 c1,0.5,2.1,1.3,2.6,2.3c0.8,1,1.3,2.1,1.5,3.4c0.3,1.3,0.5,2.6,0.3,3.9L-57.9,690.9L-57.9,690.9z M-48.9,688.3 c0-0.5-0.3-1.3-0.3-1.8l-0.8-1.5c-0.3-0.5-0.8-0.8-1.3-1c-1.3-0.3-2.3-0.3-3.6,0c-0.5,0.3-1,0.5-1.3,1c-0.5,0.5-0.8,1-1,1.5 c-0.3,0.5-0.3,1.3-0.5,1.8H-48.9z"/><path fill="#616365" d="M-24.9,699.1c-1.3,0-2.6-0.3-3.6-0.8c-2.1-0.8-3.9-2.6-4.6-4.6c-0.5-1-0.5-2.3-0.5-3.6s0.3-2.3,0.5-3.6 c0.5-1,1-2.1,1.8-2.8c0.8-0.8,1.8-1.5,2.8-1.8c2.3-1,4.9-1,7.2,0c2.1,0.8,3.9,2.6,4.6,4.6c0.5,1,0.5,2.3,0.5,3.6s-0.3,2.3-0.5,3.6 c-0.5,1-1,2.1-1.8,2.8c-0.8,0.8-1.8,1.5-2.8,1.8C-22.3,699.1-23.6,699.4-24.9,699.1z M-24.9,696c0.8,0,1.5-0.3,2.3-0.5 c0.5-0.3,1-0.8,1.5-1.3c0.5-0.5,0.8-1.3,0.8-2.1c0.3-1.5,0.3-3.1,0-4.6c-0.3-0.8-0.5-1.3-0.8-2.1c-0.5-0.5-1-1-1.5-1.3 c-0.8-0.3-1.5-0.5-2.3-0.5s-1.5,0.3-2.3,0.5c-0.5,0.3-1,0.8-1.5,1.3c-0.5,0.5-0.8,1.3-0.8,2.1c-0.3,1.5-0.3,3.1,0,4.6
c0.3,0.8,0.5,1.3,0.8,2.1c0.5,0.5,1,1,1.5,1.3C-26.5,696-25.7,696-24.9,696z"/><path fill="#616365" d="M-14.6,681.3h2.8v-1.5c0-0.8,0.3-1.8,0.5-2.6c0-0.5,0.5-1.3,1-1.5l1.5-0.8c0.5,0,1.3-0.3,1.8-0.3 c0.8,0,1.8,0,2.6,0.3v3.1c-0.3,0-0.5,0-0.8-0.3h-1c-0.5,0-1,0-1.3,0.3c-0.3,0.5-0.5,1-0.5,1.5v1.8h3.4v2.8h-3.4v14.4h-3.9v-14.4 h-2.8L-14.6,681.3L-14.6,681.3L-14.6,681.3z"/><path fill="#616365" d="M-304.8,715.1h9.8c1.5,0,3.4,0.3,4.6,1c1.3,0.8,2.3,1.5,3.4,2.6s1.5,2.6,1.8,3.9c0.5,1.5,0.5,3.1,0.5,4.6 s-0.3,3.1-0.5,4.6c-0.3,1.3-1,2.8-1.8,3.9c-0.8,1-2.1,2.1-3.4,2.6c-1.5,0.5-3.1,1-4.6,1h-9.8V715.1L-304.8,715.1z M-300.6,735.8 h4.1c1.3,0,2.8-0.3,4.1-0.8c1-0.3,1.8-1,2.3-1.8c0.5-0.8,1-1.8,1.3-2.8c0.3-2.3,0.3-4.4,0-6.7c-0.3-1-0.5-2.1-1.3-2.8 c-0.8-0.8-1.5-1.3-2.3-1.8c-1.3-0.5-2.8-0.8-4.1-0.8h-4.1V735.8L-300.6,735.8z"/><path fill="#616365" d="M-281,715.1h3.9v3.6h-3.9V715.1z M-281,721.8h3.9v17.3h-3.9V721.8z"/><path fill="#616365" d="M-258.6,735.3c0,0.3,0,0.8,0.3,1c0,0.3,0.3,0.3,0.8,0.3h1v2.6c-0.3,0-0.5,0-0.5,0.3
c-0.3,0.3-0.5,0-0.8,0.3h-1.3c-0.8,0-1.5-0.3-2.1-0.5c-0.5-0.3-1-1-1-1.5c-0.8,0.8-1.8,1.3-2.8,1.5c-1,0.3-2.1,0.5-3.1,0.5 c-0.8,0-1.5,0-2.3-0.3s-1.3-0.5-1.8-1c-0.5-0.5-1-1-1.3-1.5c-0.3-0.8-0.5-1.5-0.5-2.3c0-0.8,0.3-1.8,0.5-2.6 c0.3-0.5,1-1.3,1.5-1.5c0.5-0.5,1.3-0.8,2.1-0.8c0.8-0.3,1.5-0.3,2.3-0.3c0.8-0.3,1.3-0.3,2.1-0.3c0.5,0,1,0,1.5-0.3 c0.3,0,0.8-0.3,1-0.5c0.3-0.3,0.5-0.8,0.5-1.3c0-0.5,0-0.8-0.3-1.3l-0.8-0.8c-0.3-0.3-0.8-0.3-1-0.3h-1.3c-1,0-1.8,0.3-2.6,0.8 c-0.8,0.5-1.3,1.3-1.3,2.1h-3.9c0-1,0.3-2.1,0.8-2.8c0.5-0.8,1-1.3,1.8-1.8c0.8-0.5,1.5-0.8,2.6-1c1-0.3,1.8-0.3,2.8-0.3 c0.8,0,1.8,0,2.6,0.3l2.3,0.8c0.5,0.3,1.3,1,1.5,1.5c0.5,0.8,0.8,1.5,0.5,2.3V735.3L-258.6,735.3L-258.6,735.3z M-262.5,730.4 c-0.8,0.3-1.3,0.5-2.1,0.8c-0.8,0-1.8,0.3-2.6,0.3s-0.8,0.3-1.3,0.3s-0.8,0.3-1,0.5l-0.8,0.8c-0.3,0.5-0.3,0.8-0.3,1.3 c0,0.3,0,0.8,0.3,1l0.8,0.8c0.3,0.3,0.8,0.3,1,0.3h1c0.5,0,0.8,0,1.3-0.3c0.5,0,1-0.3,1.3-0.5c0.5-0.3,0.8-0.5,1-1 c0.3-0.5,0.5-1,0.5-1.5v-2.6L-262.5,730.4L-262.5,730.4z"/>
<path fill="#616365" d="M-254.5,715.1h3.9v8.8l0,0c0.3-0.5,0.5-0.8,1-1c0.5-0.3,0.8-0.5,1.3-0.8s1-0.5,1.5-0.5 c0.5,0,1-0.3,1.5-0.3c1.3,0,2.6,0.3,3.6,0.8c1,0.5,1.8,1.3,2.6,2.1c0.8,0.8,1.3,1.8,1.5,2.8c0.3,1.3,0.5,2.3,0.5,3.6 c0,1-0.3,2.3-0.5,3.4c-0.3,1-0.8,2.1-1.3,2.8c-0.5,0.8-1.3,1.5-2.3,2.1c-1,0.5-2.3,0.8-3.4,0.8h-1.8c-0.5,0-1.3-0.3-1.8-0.5 c-0.5-0.3-1-0.5-1.5-0.8s-0.8-0.8-1-1.3l0,0v2.3h-3.9V715.1z M-241.1,730.4c0-0.8,0-1.5-0.3-2.3c-0.3-0.8-0.5-1.5-1-2.1 c-0.5-0.5-1-1-1.5-1.3c-0.5-0.3-1.3-0.5-2.1-0.5c-1.3,0-2.8,0.5-3.6,1.5c-0.8,1.3-1.3,2.8-1.3,4.4c0,0.8,0,1.5,0.3,2.3 c0.3,0.8,0.5,1.3,1,1.8s1,1,1.5,1.3s1.3,0.5,2.1,0.5c0.8,0,1.5-0.3,2.3-0.5c0.5-0.3,1-0.8,1.5-1.3c0.5-0.5,0.8-1.3,0.8-2.1 C-241.3,731.4-241.1,731.1-241.1,730.4z"/><path fill="#616365" d="M-231,731.4c0,0.8,0,1.3,0.3,2.1c0.3,0.5,0.5,1,0.8,1.5c0.5,0.5,1,0.8,1.5,1c0.5,0.3,1.3,0.5,2.1,0.5 c1,0,1.8-0.3,2.6-0.8c0.8-0.5,1.3-1.3,1.5-2.1h3.6c-0.3,1-0.5,1.8-1,2.6c-0.5,0.8-1,1.3-1.8,1.8c-1.5,0.8-3.1,1.3-4.9,1.5
c-1.3,0-2.6-0.3-3.6-0.8c-1-0.3-1.8-1-2.6-1.8c-0.8-0.8-1.3-1.8-1.5-2.8c-0.3-1.3-0.5-2.3-0.5-3.6s0.3-2.3,0.5-3.6 c0.5-1,1-1.8,1.5-2.8c0.8-0.8,1.5-1.5,2.6-2.1c1-0.5,2.3-0.8,3.6-0.8c1.3,0,2.6,0.3,3.6,0.8c1,0.5,2.1,1.3,2.6,2.3 c0.8,1,1.3,2.1,1.5,3.4c0.3,1.3,0.5,2.6,0.3,3.9H-231V731.4L-231,731.4z M-221.7,728.8c0-0.5-0.3-1.3-0.3-1.8l-0.8-1.5 c-0.3-0.5-0.8-0.8-1.3-1c-1.3-0.3-2.3-0.3-3.6,0c-0.5,0.3-1,0.5-1.3,1c-0.5,0.5-0.8,1-1,1.5c-0.3,0.5-0.3,1.3-0.3,1.8H-221.7z"/><path fill="#616365" d="M-216.8,721.8h2.8v-5.2h3.9v5.2h3.4v2.8h-3.4V735c0,0.3,0,0.5,0.3,0.8c0,0.3,0.3,0.5,0.5,0.5 c0.3,0.3,0.8,0.3,1,0.3h1.5v2.8c-0.5,0-0.8,0-1.3,0.3h-1.3c-0.8,0-1.5,0-2.3-0.3l-1.5-0.8c-0.3-0.5-0.5-0.8-0.8-1.3 c0-0.5-0.3-1.3-0.3-1.8v-10.3h-2.8v-3.4L-216.8,721.8L-216.8,721.8z"/><path fill="#616365" d="M-200.8,731.4c0,0.8,0,1.3,0.3,2.1c0.3,0.5,0.5,1,0.8,1.5c0.5,0.5,1,0.8,1.5,1c0.5,0.3,1.3,0.5,2.1,0.5 c1,0,1.8-0.3,2.6-0.8c0.8-0.5,1.3-1.3,1.5-2.1h3.6c-0.3,1-0.5,1.8-1,2.6c-0.5,0.8-1,1.3-1.8,1.8c-1.5,0.8-3.1,1.3-4.9,1.5
c-1.3,0-2.6-0.3-3.6-0.8c-1-0.3-1.8-1-2.6-1.8c-0.8-0.8-1.3-1.8-1.5-2.8c-0.3-1.3-0.5-2.3-0.5-3.6s0.3-2.3,0.5-3.6 c0.5-1,1-1.8,1.5-2.8c0.8-0.8,1.5-1.5,2.6-2.1c1-0.5,2.3-0.8,3.6-0.8c1.3,0,2.6,0.3,3.6,0.8c1,0.5,2.1,1.3,2.6,2.3 c0.8,1,1.3,2.1,1.5,3.4c0.3,1.3,0.5,2.6,0.3,3.9h-12.6V731.4L-200.8,731.4z M-192.1,728.8c0-0.5-0.3-1.3-0.3-1.8l-0.8-1.5 c-0.3-0.5-0.8-0.8-1.3-1c-1.3-0.3-2.3-0.3-3.6,0c-0.5,0.3-1,0.5-1.3,1c-0.5,0.5-0.8,1-1,1.5c-0.3,0.5-0.3,1.3-0.3,1.8H-192.1z"/><path fill="#616365" d="M-182.2,733.4c0,1,0.5,1.8,1.3,2.3c0.8,0.5,1.5,0.8,2.6,0.8h1.3c0.5,0,0.8-0.3,1.3-0.3 c0.5-0.3,0.8-0.5,1-0.8c0.3-0.5,0.3-0.8,0.3-1.3c0-0.5-0.3-1-0.5-1.3c-0.5-0.3-0.8-0.5-1.3-0.8c-0.5-0.3-1.3-0.3-1.8-0.5 c-0.8-0.3-1.3-0.3-2.1-0.5c-0.8-0.3-1.3-0.3-2.1-0.5c-0.8-0.3-1.3-0.5-1.8-1c-0.5-0.3-1-0.8-1.3-1.5c-0.3-0.8-0.5-1.5-0.5-2.3 c0-0.8,0.3-1.8,0.8-2.3c0.5-0.5,1-1,1.8-1.5c0.8-0.5,1.5-0.8,2.3-0.8c1.8-0.3,3.4-0.3,5.2,0c0.8,0.3,1.5,0.5,2.3,1
c1.5,0.8,2.3,2.6,2.3,4.1h-3.9c0-0.8-0.5-1.5-1.3-1.8c-0.8-0.3-1.5-0.5-2.3-0.5h-1c-0.3,0-0.8,0-1,0.3c-0.3,0-0.5,0.3-0.8,0.5 c-0.3,0.3-0.3,0.8-0.3,1c0,0.5,0.3,0.8,0.5,1c0.5,0.3,0.8,0.5,1.3,0.8c0.5,0.3,1.3,0.3,1.8,0.5c0.8,0.3,1.3,0.3,2.1,0.5 c0.8,0.3,1.3,0.3,2.1,0.5c0.8,0.3,1.3,0.5,1.8,1c0.5,0.3,1,0.8,1.3,1.5c0.3,0.5,0.5,1.3,0.5,2.1c0,1-0.3,1.8-0.8,2.6 c-0.5,0.8-1,1.3-1.8,1.8c-0.8,0.5-1.5,0.8-2.6,1c-1,0.3-1.8,0.3-2.8,0.3s-2.1,0-3.1-0.3c-0.8-0.3-1.5-0.5-2.3-1 c-0.8-0.5-1.3-1-1.5-1.8c-0.5-0.8-0.5-1.8-0.5-2.6h3.6V733.4L-182.2,733.4z"/><path fill="#616365" d="M-144.1,735.3c0,0.3,0,0.8,0.3,1c0,0.3,0.3,0.3,0.8,0.3h1v2.6c-0.3,0-0.5,0-0.5,0.3 c-0.3,0.3-0.5,0-0.8,0.3h-1.3c-0.8,0-1.5-0.3-2.1-0.5c-0.5-0.3-1-1-1-1.5c-0.8,0.8-1.8,1.3-2.8,1.5c-1,0.3-2.1,0.5-3.1,0.5 c-0.8,0-1.5,0-2.3-0.3c-0.8-0.3-1.3-0.5-1.8-1c-0.5-0.5-1-1-1.3-1.5c-0.3-0.8-0.5-1.5-0.5-2.3c0-0.8,0.3-1.8,0.5-2.6 c0.3-0.5,1-1.3,1.5-1.5c0.5-0.5,1.3-0.8,2.1-0.8c0.8-0.3,1.5-0.3,2.3-0.3c0.8-0.3,1.3-0.3,2.1-0.3c0.5,0,1,0,1.5-0.3
c0.3,0,0.8-0.3,1-0.5c0.3-0.3,0.5-0.8,0.5-1.3c0-0.5,0-0.8-0.3-1.3l-0.8-0.8c-0.3-0.3-0.8-0.3-1-0.3h-1.3c-1,0-1.8,0.3-2.6,0.8 c-0.8,0.5-1.3,1.3-1.3,2.1h-3.6c0-1,0.3-2.1,0.8-2.8c0.5-0.8,1-1.3,1.8-1.8c0.8-0.5,1.5-0.8,2.6-1c1-0.3,1.8-0.3,2.8-0.3 c0.8,0,1.8,0,2.6,0.3l2.3,0.8c0.5,0.3,1.3,1,1.5,1.5c0.5,0.8,0.8,1.5,0.5,2.3v8.8L-144.1,735.3L-144.1,735.3z M-147.9,730.4 c-0.8,0.3-1.3,0.5-2.1,0.8c-0.8,0-1.8,0.3-2.6,0.3s-0.8,0.3-1.3,0.3c-0.5,0-0.8,0.3-1,0.5l-0.8,0.8c-0.3,0.5-0.3,0.8-0.3,1.3 c0,0.3,0,0.8,0.3,1l0.8,0.8c0.3,0.3,0.8,0.3,1,0.3h1c0.5,0,0.8,0,1.3-0.3c0.5,0,1-0.3,1.3-0.5c0.5-0.3,0.8-0.5,1-1 c0.3-0.5,0.5-1,0.5-1.5v-2.6L-147.9,730.4L-147.9,730.4z"/><path fill="#616365" d="M-139.9,721.8h3.6v2.6l0,0c0.5-1,1.3-1.8,2.3-2.3c1-0.5,2.1-0.8,3.1-0.8c2.8-0.3,5.7,1.8,5.9,4.9 c0,0.3,0,0.8,0,1v11.9h-3.9v-10.8c0-1-0.3-2.1-0.8-3.1c-0.5-0.8-1.5-1.3-2.6-1c-0.5,0-1.3,0-1.8,0.3s-1,0.5-1.3,1 c-0.3,0.5-0.5,1-0.8,1.5c-0.3,0.5-0.3,1.3-0.3,1.8v10.3h-3.9v-17.3L-139.9,721.8L-139.9,721.8z"/>
<path fill="#616365" d="M-104.4,739.1h-3.6v-2.3l0,0c-0.5,1-1.3,1.8-2.3,2.1c-1,0.5-2.1,0.8-3.1,0.8c-1.3,0-2.6-0.3-3.6-0.8 c-1-0.5-1.8-1.3-2.6-2.1c-0.8-0.8-1.3-1.8-1.5-2.8c-0.3-1.3-0.5-2.3-0.5-3.6c0-1.3,0.3-2.8,0.5-4.1c0.5-1,1-2.1,1.8-2.8 c0.5-0.8,1.5-1.3,2.3-1.5c1-0.3,1.8-0.5,2.8-0.5c0.5,0,1,0,1.5,0.3c0.5,0,1,0.3,1.5,0.5l1.5,0.8c0.5,0.3,0.8,0.8,1,1.3l0,0v-8.8 h3.9v23.7H-104.4z M-117.8,730.6c0,0.8,0,1.3,0.3,2.1c0.3,0.5,0.5,1.3,0.8,1.8c0.5,0.5,1,1,1.5,1.3s1.3,0.5,2.1,0.5 c0.8,0,1.5-0.3,2.3-0.5c0.5-0.3,1-0.8,1.5-1.3c0.5-0.5,0.8-1.3,0.8-2.1c0.3-0.8,0.3-1.5,0.3-2.3c0-1.5-0.5-3.1-1.3-4.4 c-0.8-1-2.3-1.5-3.6-1.5c-0.8,0-1.5,0.3-2.3,0.5c-0.8,0.3-1.3,0.8-1.5,1.5c-0.5,0.5-0.8,1.3-0.8,2.1 C-117.5,729.1-117.5,729.8-117.8,730.6z"/><path fill="#616365" d="M-90.2,715.1h9.8c1.5,0,3.4,0.3,4.6,1c1.3,0.5,2.3,1.5,3.4,2.6s1.5,2.3,1.8,3.9c0.5,1.5,0.5,3.1,0.5,4.6 s-0.3,3.1-0.5,4.6c-0.3,1.3-1,2.8-1.8,3.9c-0.8,1-2.1,2.1-3.4,2.6c-1.5,0.5-3.1,1-4.6,1h-9.8V715.1L-90.2,715.1z M-86,735.8h4.1
c1.3,0,2.8-0.3,4.1-0.8c1-0.3,1.8-1,2.3-1.8c0.5-0.8,1-1.8,1.3-2.8c0.3-2.3,0.3-4.4,0-6.7c-0.3-1-0.5-2.1-1.3-2.8 c-0.5-0.8-1.3-1.5-2.3-1.8c-1.3-0.5-2.8-0.8-4.1-0.8H-86L-86,735.8L-86,735.8z"/><path fill="#616365" d="M-66.2,715.1h3.9v3.6h-3.9V715.1z M-66.2,721.8h3.9v17.3h-3.9V721.8z"/><path fill="#616365" d="M-42.2,738.1c0.3,2.3-0.8,4.4-2.3,5.9c-1.8,1.3-4.1,2.1-6.4,1.8c-0.8,0-1.8,0-2.6-0.3 c-0.8-0.3-1.5-0.5-2.3-1c-0.8-0.5-1.3-1-1.8-1.8c-0.5-0.8-0.8-1.5-0.8-2.6h3.9c0,0.5,0.3,1,0.5,1.3c0.3,0.3,0.5,0.5,1,0.8 c0.5,0.3,0.8,0.3,1.3,0.3h1.3c2.1,0.5,4.1-1,4.4-2.8c0-0.5,0-1,0-1.5v-2.6l0,0c-0.5,1-1.3,1.8-2.3,2.3c-1,0.5-2.1,0.8-3.1,0.8 c-1.3,0-2.6-0.3-3.6-0.8c-1-0.5-1.8-1-2.3-2.1c-0.5-0.8-1-1.8-1.3-2.8c-0.3-1.3-0.5-2.3-0.5-3.6c0-1,0.3-2.3,0.5-3.4 c0.3-1,0.8-2.1,1.5-2.8c0.8-0.8,1.5-1.5,2.6-1.8c1-0.5,2.3-0.8,3.4-0.8s2.1,0.3,3.1,0.8c0.8,0.5,1.5,1.3,2.1,2.1l0,0v-2.3h3.9 L-42.2,738.1L-42.2,738.1z M-50.7,736c0.8,0,1.5-0.3,2.1-0.5c0.5-0.3,1-0.8,1.5-1.3c0.3-0.8,0.5-1.3,0.8-2.1
c0.3-0.8,0.3-1.5,0.3-2.3c0-0.8,0-1.3-0.3-2.1c-0.3-0.5-0.5-1.3-0.8-1.8c-0.3-0.5-0.8-1-1.5-1.3c-1.3-0.8-2.8-0.8-4.1,0 c-0.5,0.3-1,0.8-1.3,1.3c-0.3,0.8-0.5,1.3-0.8,2.1c-0.3,1.3-0.3,2.8,0,4.1c0.3,0.5,0.5,1.3,0.8,1.8c0.3,0.5,0.8,1,1.3,1.3 C-52.2,735.8-51.5,736-50.7,736L-50.7,736z"/><path fill="#616365" d="M-35.5,731.4c0,0.8,0,1.3,0.3,2.1c0.3,0.5,0.5,1,0.8,1.5c0.5,0.5,1,0.8,1.5,1c0.5,0.3,1.3,0.5,2.1,0.5 c1,0,1.8-0.3,2.6-0.8c0.8-0.5,1.3-1.3,1.5-2.1h3.6c-0.3,1-0.5,1.8-1,2.6c-0.5,0.8-1,1.3-1.8,1.8c-1.5,0.8-3.1,1.3-4.9,1.5 c-1.3,0-2.6-0.3-3.6-0.8c-1-0.3-1.8-1-2.6-1.8c-0.8-0.8-1.3-1.8-1.5-2.8c-0.3-1.3-0.5-2.3-0.5-3.6s0.3-2.3,0.5-3.6 c0.5-1,1-1.8,1.5-2.8c0.8-0.8,1.5-1.5,2.6-2.1c1-0.5,2.3-0.8,3.6-0.8s2.6,0.3,3.6,0.8c1,0.5,2.1,1.3,2.6,2.3 c0.8,1,1.3,2.1,1.5,3.4s0.5,2.6,0.3,3.9h-12.6V731.4L-35.5,731.4z M-26.5,728.8c0-0.5-0.3-1.3-0.3-1.8l-0.8-1.5 c-0.3-0.5-0.8-0.8-1.3-1c-1.3-0.3-2.3-0.3-3.6,0c-0.5,0.3-1,0.5-1.3,1c-0.5,0.5-0.8,1-1,1.5c-0.3,0.5-0.3,1.3-0.5,1.8H-26.5z"/>
<path fill="#616365" d="M-16.9,733.4c0,1,0.5,1.8,1.3,2.3c0.8,0.5,1.5,0.8,2.6,0.8h1.3c0.5,0,0.8-0.3,1.3-0.3 c0.5-0.3,0.8-0.5,1-0.8c0.3-0.5,0.3-0.8,0.3-1.3c0-0.5-0.3-1-0.5-1.3c-0.5-0.3-0.8-0.5-1.3-0.8c-0.5-0.3-1.3-0.3-1.8-0.5 c-0.8-0.3-1.3-0.3-2.1-0.5c-0.8-0.3-1.3-0.3-2.1-0.5c-0.8-0.3-1.3-0.5-1.8-1c-0.5-0.3-1-0.8-1.3-1.5c-0.3-0.8-0.5-1.5-0.5-2.3 c0-0.8,0.3-1.8,0.8-2.3c0.5-0.5,1-1,1.8-1.5c0.8-0.5,1.5-0.8,2.3-0.8c1.8-0.3,3.4-0.3,5.2,0c0.8,0.3,1.5,0.5,2.3,1 c1.5,0.8,2.3,2.6,2.3,4.1h-3.9c0-0.8-0.5-1.5-1.3-1.8c-0.8-0.3-1.5-0.5-2.3-0.5h-1c-0.3,0-0.8,0-1,0.3c-0.3,0.3-0.5,0.3-0.8,0.5 c-0.3,0.3-0.3,0.8-0.3,1c0,0.5,0.3,0.8,0.5,1c0.5,0.3,0.8,0.5,1.3,0.8c0.5,0.3,1.3,0.3,1.8,0.5c0.8,0.3,1.3,0.3,2.1,0.5 c0.8,0.3,1.3,0.3,2.1,0.5c0.8,0.3,1.3,0.5,1.8,1c0.5,0.3,1,0.8,1.3,1.5c0.3,0.5,0.5,1.3,0.5,2.1c0,1-0.3,1.8-0.8,2.6 c-0.5,0.8-1,1.3-1.8,1.8c-0.8,0.5-1.5,0.8-2.6,1c-1,0.3-1.8,0.3-2.8,0.3s-2.1,0-3.1-0.3c-0.8-0.3-1.5-0.5-2.3-1s-1.3-1-1.5-1.8 c-0.5-0.8-0.5-1.8-0.5-2.6h3.6L-16.9,733.4L-16.9,733.4z"/>
<path fill="#616365" d="M-4,721.8h2.8v-5.2h3.9v5.2H6v2.8H2.7V735c0,0.3,0,0.5,0.3,0.8l0.5,0.5c0.3,0,0.8,0.3,1,0.3H6v2.8 c-0.5,0-0.8,0-1.3,0.3H3.5c-0.8,0-1.5,0-2.3-0.3l-1.5-0.8c-0.3-0.5-0.5-0.8-0.8-1.3c0-0.5-0.3-1.3-0.3-1.8v-10.3h-2.8v-3.4H-4 L-4,721.8z"/><path fill="#616365" d="M8.9,715.1h3.9v3.6H8.9V715.1z M8.9,721.8h3.9v17.3H8.9V721.8z"/><path fill="#616365" d="M15.1,721.8h4.1l4.4,13.4l0,0l4.1-13.4h3.9l-6.2,17.3H21L15.1,721.8z"/><path fill="#616365" d="M37.3,731.4c0,0.8,0,1.3,0.3,2.1c0.3,0.5,0.5,1,0.8,1.5c0.5,0.5,1,0.8,1.5,1c0.5,0.3,1.3,0.5,2.1,0.5 c1,0,1.8-0.3,2.6-0.8c0.8-0.5,1.3-1.3,1.5-2.1h3.6c-0.3,1-0.5,1.8-1,2.6c-0.5,0.8-1,1.3-1.8,1.8c-1.5,0.8-3.1,1.3-4.9,1.5 c-1.3,0-2.6-0.3-3.6-0.8c-1-0.3-1.8-1-2.6-1.8c-0.8-0.8-1.3-1.8-1.5-2.8c-0.3-1.3-0.5-2.3-0.5-3.6s0.3-2.3,0.5-3.6 c0.5-1,1-1.8,1.5-2.8c0.8-0.8,1.5-1.5,2.6-2.1c1-0.5,2.3-0.8,3.6-0.8c1.3,0,2.6,0.3,3.6,0.8c1,0.5,2.1,1.3,2.6,2.3 c0.8,1,1.3,2.1,1.5,3.4c0.3,1.3,0.5,2.6,0.3,3.9H37.3V731.4L37.3,731.4z M46.3,728.8c0-0.5-0.3-1.3-0.3-1.8l-0.8-1.5
c-0.3-0.5-0.8-0.8-1.3-1c-1.3-0.3-2.3-0.3-3.6,0c-0.5,0.3-1,0.5-1.3,1c-0.5,0.5-0.8,1-1,1.5c-0.3,0.5-0.3,1.3-0.5,1.8H46.3z"/><path fill="#616365" d="M-290.8,775.5c0,0.3,0,0.8,0.3,1c0,0.3,0.3,0.3,0.8,0.3h1v2.6c-0.3,0-0.5,0-0.5,0.3c-0.3,0-0.5,0-0.8,0.3 h-1.3c-0.8,0-1.5-0.3-2.1-0.5c-0.5-0.3-1-1-1-1.5c-0.8,0.8-1.8,1.3-2.8,1.5s-2.1,0.5-3.1,0.5c-0.8,0-1.5,0-2.3-0.3s-1.3-0.5-1.8-1 s-1-1-1.3-1.5c-0.3-0.8-0.5-1.5-0.5-2.3c0-0.8,0.3-1.8,0.5-2.6c0.3-0.5,1-1.3,1.5-1.5c0.5-0.5,1.3-0.8,2.1-0.8 c0.8-0.3,1.5-0.3,2.3-0.5c0.8-0.3,1.3-0.3,2.1-0.3c0.5,0,1,0,1.5-0.3c0.3,0,0.8-0.3,1-0.5c0.3-0.3,0.5-0.8,0.5-1.3 c0-0.5,0-0.8-0.3-1.3l-0.8-0.8c-0.3-0.3-0.8-0.3-1-0.3h-1.3c-1,0-1.8,0.3-2.6,0.8c-0.8,0.5-1.3,1.3-1.3,2.1h-3.9 c0-1,0.3-2.1,0.8-2.8c0.5-0.8,1-1.3,1.8-1.8c0.8-0.5,1.5-0.8,2.6-1c1-0.3,1.8-0.3,2.8-0.3c0.8,0,1.8,0,2.6,0.3l2.3,0.8 c0.5,0.3,1.3,1,1.5,1.5c0.5,0.8,0.8,1.5,0.5,2.3V775.5L-290.8,775.5L-290.8,775.5z M-294.7,770.6c-0.8,0.3-1.3,0.5-2.1,0.8
c-0.8,0-1.8,0.3-2.6,0.3s-0.8,0.3-1.3,0.3c-0.5,0-0.8,0.3-1,0.5l-0.8,0.8c-0.3,0.5-0.3,0.8-0.3,1.3c0,0.3,0,0.8,0.3,1l0.8,0.8 c0.3,0.3,0.8,0.3,1,0.3h1c0.5,0,0.8,0,1.3-0.3c0.5,0,1-0.3,1.3-0.5c0.5-0.3,0.8-0.5,1-1c0.3-0.5,0.5-1,0.5-1.5v-2.6L-294.7,770.6 L-294.7,770.6z"/><path fill="#616365" d="M-286.7,762.1h3.6v2.6l0,0c0.5-1,1.3-1.8,2.3-2.3c1-0.5,2.1-0.8,3.1-0.8c2.8-0.3,5.7,1.8,5.9,4.9 c0,0.3,0,0.8,0,1v11.9h-3.9v-10.8c0-1-0.3-2.1-0.8-3.1c-0.5-0.8-1.5-1.3-2.6-1c-0.5,0-1.3,0-1.8,0.3s-1,0.5-1.3,1 c-0.3,0.5-0.5,1-0.8,1.5c-0.3,0.5-0.3,1.3-0.3,1.8v10.3h-3.9v-17.3L-286.7,762.1L-286.7,762.1z"/><path fill="#616365" d="M-251.1,779.4h-3.6V777l0,0c-0.5,1-1.3,1.8-2.3,2.1c-1,0.5-2.1,0.8-3.1,0.8c-1.3,0-2.6-0.3-3.6-0.8 c-1-0.5-1.8-1.3-2.6-2.1c-0.8-0.8-1.3-1.8-1.5-2.8c-0.3-1.3-0.5-2.3-0.5-3.6s0.3-2.8,0.5-4.1c0.5-1,1-2.1,1.8-2.8 c0.5-0.8,1.5-1.3,2.3-1.5c1-0.3,1.8-0.5,2.8-0.5c0.5,0,1,0,1.5,0.3c0.5,0,1,0.3,1.5,0.5l1.5,0.8c0.5,0.3,0.8,0.8,1,1.3l0,0v-8.8
h3.9v23.7H-251.1L-251.1,779.4z M-264.5,770.8c0,0.8,0,1.3,0.3,2.1c0.3,0.5,0.5,1.3,0.8,1.8c0.5,0.5,1,1,1.5,1.3s1.3,0.5,2.1,0.5 s1.5-0.3,2.3-0.5c0.5-0.3,1-0.8,1.5-1.3c0.5-0.5,0.8-1.3,0.8-2.1c0-0.8,0.3-1.5,0.3-2.3c0-1.5-0.5-3.1-1.3-4.4 c-0.8-1-2.3-1.5-3.6-1.5c-0.8,0-1.5,0.3-2.3,0.5c-0.5,0.3-1.3,1-1.5,1.5c-0.5,0.5-0.8,1.3-0.8,2.1V770.8L-264.5,770.8z"/><path fill="#616365" d="M-237.2,755.4h4.1v10.8l10.6-10.8h5.2l-9.5,9.5l10.3,14.4h-5.2l-7.7-11.3l-3.4,3.4v8h-4.1v-24 L-237.2,755.4L-237.2,755.4z"/><path fill="#616365" d="M-214.2,755.4h3.9v3.6h-3.9V755.4z M-214.2,762.1h3.9v17.3h-3.9V762.1z"/><path fill="#616365" d="M-190,779.4h-3.6V777l0,0c-0.5,1-1.3,1.8-2.3,2.1c-1,0.5-2.1,0.8-3.1,0.8c-1.3,0-2.6-0.3-3.6-0.8 c-1-0.5-1.8-1.3-2.6-2.1c-0.8-0.8-1.3-1.8-1.5-2.8c-0.3-1.3-0.5-2.3-0.5-3.6s0.3-2.8,0.5-4.1c0.5-1,1-2.1,1.8-2.8 c0.5-0.8,1.5-1.3,2.3-1.5c1-0.3,1.8-0.5,2.8-0.5c0.5,0,1,0,1.5,0.3c0.5,0,1,0.3,1.5,0.5l1.5,0.8c0.5,0.3,0.8,0.8,1,1.3l0,0v-8.8
h3.9v23.7H-190L-190,779.4z M-203.4,770.8c0,0.8,0,1.3,0.3,2.1c0.3,0.5,0.5,1.3,0.8,1.8c0.5,0.5,1,1,1.5,1.3 c0.5,0.3,1.3,0.5,2.1,0.5c0.8,0,1.5-0.3,2.3-0.5c0.5-0.3,1-0.8,1.5-1.3c0.5-0.5,0.8-1.3,0.8-2.1c0-0.8,0.3-1.5,0.3-2.3 c0-1.5-0.5-3.1-1.3-4.4c-0.8-1-2.3-1.5-3.6-1.5c-0.8,0-1.5,0.3-2.3,0.5c-0.5,0.3-1.3,1-1.5,1.5c-0.5,0.5-0.8,1.3-0.8,2.1V770.8z" /><path fill="#616365" d="M-185.9,762.1h3.6v2.6l0,0c0.5-1,1.3-1.8,2.3-2.3c1-0.5,2.1-0.8,3.1-0.8c2.8-0.3,5.7,1.8,5.9,4.9 c0,0.3,0,0.8,0,1v11.9h-3.9v-10.8c0-1-0.3-2.1-0.8-3.1c-0.5-0.8-1.5-1.3-2.6-1c-0.5,0-1.3,0-1.8,0.3c-0.5,0.3-1,0.5-1.3,1 c-0.3,0.5-0.5,1-0.8,1.5c-0.3,0.5-0.3,1.3-0.3,1.8v10.3h-3.9v-17.3L-185.9,762.1L-185.9,762.1z"/><path fill="#616365" d="M-163.7,771.6c0,0.8,0,1.3,0.3,2.1c0.3,0.5,0.5,1,0.8,1.5c0.3,0.5,1,1,1.5,1c0.5,0.3,1.3,0.5,2.1,0.5 c1,0,1.8-0.3,2.6-0.8c0.8-0.5,1.3-1.3,1.5-2.1h3.6c-0.3,1-0.5,1.8-1,2.6c-0.5,0.8-1,1.3-1.8,1.8c-0.8,0.5-1.5,0.8-2.3,1
c-0.8,0.3-1.8,0.3-2.6,0.3c-1.3,0-2.6-0.3-3.6-0.8c-1-0.3-1.8-1-2.6-1.8c-0.8-0.8-1.3-1.8-1.5-2.8c-0.3-1.3-0.5-2.3-0.5-3.6 s0.3-2.3,0.5-3.6c0.5-1,1-1.8,1.5-2.8c0.8-0.8,1.5-1.5,2.6-2.1c1-0.5,2.3-0.8,3.6-0.8c1.3,0,2.6,0.3,3.6,0.8 c1,0.5,2.1,1.3,2.6,2.3c0.8,1,1.3,2.1,1.5,3.4c0.3,1.3,0.5,2.6,0.3,3.9L-163.7,771.6L-163.7,771.6z M-154.7,769 c0-0.5-0.3-1.3-0.3-1.8l-0.8-1.5c-0.3-0.5-0.8-0.8-1.3-1c-1.3-0.3-2.3-0.3-3.6,0c-0.5,0.3-1,0.5-1.3,1c-0.5,0.5-0.8,1-1,1.5 c-0.3,0.5-0.3,1.3-0.3,1.8H-154.7z"/><path fill="#616365" d="M-150,762.1h4.1l4.6,12.9l0,0l4.4-12.9h3.9l-6.7,18.3c-0.3,0.8-0.5,1.5-1,2.3c-0.3,0.5-0.5,1.3-1,1.8 c-0.5,0.5-1,1-1.5,1.3c-0.8,0.3-1.8,0.5-2.6,0.5c-0.8,0-1.8,0-2.6-0.3V783c0.3,0,0.8,0,1,0.3s0.8,0.3,1,0c0.3,0,0.8,0,1-0.3 c0.3,0,0.5-0.3,0.8-0.5c0.3-0.3,0.3-0.5,0.5-0.8s0.3-0.8,0.3-1l0.5-1.3L-150,762.1z"/><path fill="#616365" d="M-120.6,755.4h9.8c1.5,0,3.4,0.3,4.6,1c1.3,0.5,2.3,1.5,3.4,2.6c1,1,1.5,2.3,1.8,3.9
c0.5,1.5,0.5,3.1,0.5,4.6s-0.3,3.1-0.5,4.6c-0.5,1.3-1,2.6-1.8,3.9c-0.8,1-2.1,2.1-3.4,2.6c-1.5,0.5-3.1,1-4.6,1h-9.8V755.4 L-120.6,755.4z M-116.5,776h4.1c1.3,0,2.8-0.3,4.1-0.8c1-0.3,1.8-1,2.3-1.8s1-1.8,1.3-2.8c0.3-2.3,0.3-4.4,0-6.7 c-0.3-1-0.5-2.1-1.3-2.8c-0.5-0.8-1.3-1.5-2.3-1.8c-1.3-0.5-2.8-0.8-4.1-0.8h-4.1V776L-116.5,776z"/><path fill="#616365" d="M-96.9,755.4h3.9v3.6h-3.9V755.4z M-96.9,762.1h3.9v17.3h-3.9V762.1z"/><path fill="#616365" d="M-86,773.7c0,1,0.5,1.8,1.3,2.3c0.8,0.5,1.5,0.8,2.6,0.8h1.3c0.5,0,0.8-0.3,1.3-0.3c0.5,0,0.8-0.3,1-0.8 c0.3-0.5,0.3-0.8,0.3-1.3c0-0.5-0.3-1-0.5-1.3c-0.5-0.3-0.8-0.5-1.3-0.8s-1.3-0.3-1.8-0.5c-0.8-0.3-1.3-0.3-2.1-0.5 c-0.8-0.3-1.3-0.3-2.1-0.5c-0.8-0.3-1.3-0.5-1.8-1c-0.5-0.3-1-0.8-1.3-1.5c-0.3-0.8-0.5-1.5-0.5-2.3c0-0.8,0.3-1.8,0.8-2.3 c0.5-0.5,1-1,1.8-1.5c0.8-0.5,1.5-0.8,2.3-0.8c1.8-0.3,3.4-0.3,5.2,0c0.8,0.3,1.5,0.5,2.3,1c0.5,0.3,1.3,1,1.5,1.5 c0.5,0.8,0.8,1.5,0.8,2.6h-3.9c0-0.8-0.5-1.5-1.3-1.8c-0.8-0.3-1.5-0.5-2.3-0.5h-1c-0.3,0-0.8,0-1,0.3c-0.3,0-0.5,0.3-0.8,0.5
c-0.3,0.3-0.3,0.8-0.3,1c0,0.5,0.3,0.8,0.5,1c0.5,0.3,0.8,0.5,1.3,0.8s1.3,0.3,1.8,0.5c0.8,0.3,1.3,0.3,2.1,0.5 c0.8,0.3,1.3,0.3,2.1,0.5c0.8,0.3,1.3,0.5,1.8,1c0.5,0.3,1,0.8,1.3,1.5c0.3,0.5,0.5,1.3,0.5,2.1c0,1-0.3,1.8-0.8,2.6 c-0.5,0.8-1,1.3-1.8,1.8c-0.8,0.5-1.5,0.8-2.6,1c-1,0.3-1.8,0.3-2.8,0.3c-1,0-2.1,0-3.1-0.3c-0.8-0.3-1.5-0.5-2.3-1 c-0.8-0.5-1.3-1-1.5-1.8c-0.5-0.8-0.5-1.8-0.5-2.6h3.6L-86,773.7L-86,773.7z"/><path fill="#616365" d="M-68.2,771.6c0,0.8,0,1.3,0.3,2.1c0.3,0.5,0.5,1,0.8,1.5c0.3,0.5,1,1,1.5,1c0.5,0.3,1.3,0.5,2.1,0.5 c1,0,1.8-0.3,2.6-0.8c0.8-0.5,1.3-1.3,1.5-2.1h3.6c-0.3,1-0.5,1.8-1,2.6c-0.5,0.8-1,1.3-1.8,1.8c-0.8,0.5-1.5,0.8-2.3,1 c-0.8,0.3-1.8,0.3-2.6,0.3c-1.3,0-2.6-0.3-3.6-0.8c-1-0.3-1.8-1-2.6-1.8c-0.8-0.8-1.3-1.8-1.5-2.8c-0.3-1.3-0.5-2.3-0.5-3.6 s0.3-2.3,0.5-3.6c0.5-1,1-1.8,1.5-2.8c0.8-0.8,1.5-1.5,2.6-2.1c1-0.5,2.3-0.8,3.6-0.8s2.6,0.3,3.6,0.8c1,0.5,2.1,1.3,2.6,2.3 c0.8,1,1.3,2.1,1.5,3.4c0.3,1.3,0.5,2.6,0.3,3.9L-68.2,771.6L-68.2,771.6z M-59.5,769c0-0.5-0.3-1.3-0.3-1.8l-0.8-1.5
c-0.3-0.5-0.8-0.8-1.3-1c-1.3-0.3-2.3-0.3-3.6,0c-0.5,0.3-1,0.5-1.3,1c-0.5,0.5-0.8,1-1,1.5c-0.3,0.5-0.3,1.3-0.5,1.8H-59.5z"/><path fill="#616365" d="M-38.1,775.5c0,0.3,0,0.8,0.3,1c0.3,0.3,0.5,0.3,0.8,0.3h1v2.6c-0.3,0-0.5,0-0.5,0.3c-0.3,0-0.5,0-0.8,0.3 c-0.3,0-0.5,0-0.8,0h-0.5c-0.8,0-1.5-0.3-2.1-0.5c-0.5-0.3-1-1-1-1.5c-0.8,0.8-1.8,1.3-2.8,1.5s-2.1,0.5-3.1,0.5 c-0.8,0-1.5,0-2.3-0.3c-0.8-0.3-1.3-0.5-1.8-1s-1-1-1.3-1.5c-0.3-0.8-0.5-1.5-0.5-2.3c0-0.8,0.3-1.8,0.5-2.6 c0.3-0.5,1-1.3,1.5-1.5c0.5-0.5,1.3-0.8,2.1-0.8c0.8-0.3,1.5-0.3,2.3-0.5c0.8-0.3,1.3-0.3,2.1-0.3c0.5,0,1.3-0.3,1.5-0.3 c0.3,0,0.8-0.3,1-0.5c0.3-0.3,0.5-0.8,0.5-1.3c0-0.5,0-0.8-0.3-1.3l-0.8-0.8c-0.3-0.3-0.8-0.3-1-0.3h-1.3c-1,0-1.8,0.3-2.6,0.8 c-0.8,0.5-1.3,1.3-1.3,2.1H-53c0-1,0.3-2.1,0.8-2.8c0.5-0.8,1-1.3,1.8-1.8c0.8-0.5,1.5-0.8,2.6-1c1-0.3,1.8-0.3,2.8-0.3 c0.8,0,1.8,0,2.6,0.3l2.3,0.8c0.5,0.3,1.3,1,1.5,1.5c0.5,0.8,0.8,1.5,0.5,2.3V775.5L-38.1,775.5z M-41.9,770.6
c-0.8,0.3-1.3,0.5-2.1,0.8c-0.8,0-1.8,0.3-2.6,0.3c-0.8,0-0.8,0.3-1.3,0.3s-0.8,0.3-1,0.5l-0.8,0.8c-0.3,0.5-0.3,0.8-0.3,1.3 c0,0.3,0,0.8,0.3,1l0.8,0.8c0.3,0.3,0.8,0.3,1,0.3h1c0.5,0,0.8,0,1.3-0.3c0.5,0,1-0.3,1.3-0.5c0.5-0.3,0.8-0.5,1-1 c0.3-0.5,0.5-1,0.5-1.5v-2.6L-41.9,770.6L-41.9,770.6z"/><path fill="#616365" d="M-31.1,773.7c0,1,0.5,1.8,1.3,2.3c0.8,0.5,1.5,0.8,2.6,0.8h1.3c0.5,0,0.8-0.3,1.3-0.3s0.8-0.3,1-0.8 c0.3-0.5,0.3-0.8,0.3-1.3c0-0.5-0.3-1-0.5-1.3c-0.5-0.3-0.8-0.5-1.3-0.8s-1.3-0.3-1.8-0.5c-0.8-0.3-1.3-0.3-2.1-0.5 c-0.8-0.3-1.3-0.3-2.1-0.5c-0.8-0.3-1.3-0.5-1.8-1c-0.5-0.3-1-0.8-1.3-1.5c-0.3-0.8-0.5-1.5-0.5-2.3c0-0.8,0.3-1.8,0.8-2.3 c0.5-0.5,1-1,1.8-1.5c0.8-0.5,1.5-0.8,2.3-0.8c1.8-0.3,3.4-0.3,5.2,0c0.8,0.3,1.5,0.5,2.3,1c0.5,0.3,1.3,1,1.5,1.5 c0.5,0.8,0.8,1.5,0.8,2.6h-3.9c0-0.8-0.5-1.5-1.3-1.8c-0.8-0.3-1.5-0.5-2.3-0.5h-1c-0.3,0-0.8,0-1,0.3c-0.3,0-0.5,0.3-0.8,0.5 c-0.3,0.3-0.3,0.8-0.3,1c0,0.5,0.3,0.8,0.5,1c0.5,0.3,0.8,0.5,1.3,0.8c0.5,0.3,1.3,0.3,1.8,0.5c0.8,0.3,1.3,0.3,2.1,0.5
c0.8,0.3,1.3,0.3,2.1,0.5c0.8,0.3,1.3,0.5,1.8,1c0.5,0.3,1,0.8,1.3,1.5c0.3,0.5,0.5,1.3,0.5,2.1c0,1-0.3,1.8-0.8,2.6 c-0.5,0.8-1,1.3-1.8,1.8c-0.8,0.5-1.5,0.8-2.6,1c-1,0.3-1.8,0.3-2.8,0.3s-2.1,0-3.1-0.3c-0.8-0.3-1.5-0.5-2.3-1 c-0.8-0.5-1.3-1-1.5-1.8c-0.5-0.8-0.5-1.8-0.5-2.6h3.6L-31.1,773.7L-31.1,773.7z"/><path fill="#616365" d="M-13.6,771.6c0,0.8,0,1.3,0.3,2.1c0.3,0.5,0.5,1,0.8,1.5c0.3,0.5,1,1,1.5,1c0.5,0.3,1.3,0.5,2.1,0.5 c1,0,1.8-0.3,2.6-0.8c0.8-0.5,1.3-1.3,1.5-2.1h3.6c-0.3,1-0.5,1.8-1,2.6c-0.5,0.8-1,1.3-1.8,1.8c-0.8,0.5-1.5,0.8-2.3,1 c-0.8,0.3-1.8,0.3-2.6,0.3c-1.3,0-2.6-0.3-3.6-0.8c-1-0.3-1.8-1-2.6-1.8c-0.8-0.8-1.3-1.8-1.5-2.8c-0.3-1.3-0.5-2.3-0.5-3.6 s0.3-2.3,0.5-3.6c0.5-1,1-1.8,1.5-2.8c0.8-0.8,1.5-1.5,2.6-2.1c1-0.5,2.3-0.8,3.6-0.8s2.6,0.3,3.6,0.8c1,0.5,2.1,1.3,2.6,2.3 c0.8,1,1.3,2.1,1.5,3.4c0.3,1.3,0.5,2.6,0.3,3.9L-13.6,771.6L-13.6,771.6z M-4.8,769c0-0.5-0.3-1.3-0.3-1.8l-0.8-1.5 c-0.3-0.5-0.8-0.8-1.3-1c-1.3-0.3-2.3-0.3-3.6,0c-0.5,0.3-1,0.5-1.3,1c-0.5,0.5-0.8,1-1,1.5c-0.3,0.5-0.3,1.3-0.5,1.8H-4.8z"/>
<path fill="#616365" d="M5,773.7c0,1,0.5,1.8,1.3,2.3c0.8,0.5,1.5,0.8,2.6,0.8h1.3c0.5,0,0.8-0.3,1.3-0.3c0.5,0,0.8-0.3,1-0.8 c0.3-0.5,0.3-0.8,0.3-1.3c0-0.5-0.3-1-0.5-1.3c-0.5-0.3-0.8-0.5-1.3-0.8s-1.3-0.3-1.8-0.5c-0.8-0.3-1.3-0.3-2.1-0.5 c-0.8-0.3-1.3-0.3-2.1-0.5c-0.8-0.3-1.3-0.5-1.8-1c-0.5-0.3-1-0.8-1.3-1.5c-0.3-0.8-0.5-1.5-0.5-2.3c0-0.8,0.3-1.8,0.8-2.3 c0.5-0.5,1-1,1.8-1.5c0.8-0.5,1.5-0.8,2.3-0.8c1.8-0.3,3.4-0.3,5.2,0c0.8,0.3,1.5,0.5,2.3,1c0.5,0.3,1.3,1,1.5,1.5 c0.5,0.8,0.8,1.5,0.8,2.6h-3.9c0-0.8-0.5-1.5-1.3-1.8c-0.8-0.3-1.5-0.5-2.3-0.5h-1c-0.3,0-0.8,0-1,0.3c-0.3,0-0.5,0.3-0.8,0.5 c-0.3,0.3-0.3,0.8-0.3,1c0,0.5,0.3,0.8,0.5,1c0.5,0.3,0.8,0.5,1.3,0.8s1.3,0.3,1.8,0.5c0.8,0.3,1.3,0.3,2.1,0.5 c0.8,0.3,1.3,0.3,2.1,0.5c0.8,0.3,1.3,0.5,1.8,1c0.5,0.3,1,0.8,1.3,1.5c0.3,0.5,0.5,1.3,0.5,2.1c0,1-0.3,1.8-0.8,2.6 c-0.5,0.8-1,1.3-1.8,1.8c-0.8,0.5-1.5,0.8-2.6,1c-1,0.3-1.8,0.3-2.8,0.3s-2.1,0-3.1-0.3c-0.8-0.3-1.5-0.5-2.3-1 c-0.8-0.5-1.3-1-1.5-1.8c-0.5-0.8-0.5-1.8-0.5-2.6H5L5,773.7L5,773.7z"/></g></g></svg>