<svg width="36" height="42" viewBox="0 0 36 42" fill="none" xmlns="http://www.w3.org/2000/svg">
<g id="main-logo 1" clip-path="url(#clip0_1184_4876)">
<g id="Canvas">
<g id="Group">
<g id="Group_2">
<g id="Group_3">
<g id="g">
<g id="path">
<g id="path9 fill">
<path id="Vector" d="M2.18585 21.6665C2.18585 22.9244 2.08587 23.3341 1.82878 23.636C1.54265 23.8953 1.17118 24.0388 0.786133 24.0385L0.886113 24.7573C1.48306 24.7655 2.0623 24.5532 2.51436 24.1607C2.75759 23.8622 2.93859 23.5174 3.04656 23.1469C3.15454 22.7764 3.18726 22.3878 3.1428 22.0043V17.2458H2.18585V21.6377V21.6665Z" fill="#4E4E4E"/>
</g>
</g>
<g id="path_2">
<g id="path10 fill">
<path id="Vector_2" d="M9.32255 21.0995C9.32255 21.6386 9.32255 22.1202 9.36539 22.5372H8.51557L8.45844 21.6818C8.28068 21.9844 8.02648 22.2343 7.72167 22.406C7.41686 22.5777 7.07232 22.6651 6.72307 22.6594C5.89467 22.6594 4.90915 22.2065 4.90915 20.3592V17.2898H5.8661V20.1651C5.8661 21.1642 6.17318 21.8327 7.0373 21.8327C7.21507 21.8347 7.39144 21.8008 7.55606 21.7332C7.72069 21.6656 7.87024 21.5656 7.99596 21.4391C8.12167 21.3126 8.22102 21.162 8.28818 20.9963C8.35532 20.8306 8.38893 20.6531 8.38702 20.4742V17.2539H9.34397V21.0708L9.32255 21.0995Z" fill="#4E4E4E"/>
</g>
</g>
<g id="path_3">
<g id="path11 fill">
<path id="Vector_3" d="M11.1364 18.9999C11.1364 18.3314 11.1364 17.7851 11.0936 17.2891H11.9506L11.9934 18.1876C12.1843 17.863 12.4592 17.5966 12.7887 17.4168C13.1182 17.2371 13.49 17.1507 13.8645 17.1669C15.1356 17.1669 16.0926 18.2379 16.0926 19.8337C16.0926 21.717 14.9428 22.6514 13.7002 22.6514C13.3822 22.6657 13.0658 22.5971 12.7819 22.4523C12.4979 22.3075 12.2558 22.0913 12.0791 21.8248V24.7H11.1364V19.0214V18.9999ZM12.0791 20.4015C12.0817 20.532 12.096 20.6619 12.122 20.7897C12.203 21.1089 12.3874 21.3917 12.6461 21.5935C12.9048 21.7953 13.223 21.9045 13.5502 21.9039C14.5572 21.9039 15.1499 21.0772 15.1499 19.8768C15.1499 18.8274 14.5929 17.9288 13.586 17.9288C13.1875 17.9617 12.8146 18.1397 12.5372 18.4295C12.2598 18.7193 12.0969 19.101 12.0791 19.503V20.4015Z" fill="#4E4E4E"/>
</g>
</g>
<g id="path_4">
<g id="path12 fill">
<path id="Vector_4" d="M17.7976 17.2842L18.9474 20.3823C19.0688 20.7273 19.1973 21.1442 19.283 21.4533C19.383 21.137 19.4901 20.7345 19.6187 20.3607L20.6613 17.2842H21.6683L20.24 21.022C19.5258 22.819 19.0902 23.7463 18.4332 24.307C18.1023 24.6112 17.6988 24.8242 17.262 24.9252L17.0263 24.1201C17.3318 24.0191 17.6153 23.8605 17.8619 23.6529C18.2103 23.3671 18.4868 23.0026 18.6689 22.589C18.7078 22.5174 18.7344 22.4396 18.7474 22.359C18.7393 22.2723 18.7176 22.1874 18.6832 22.1074L16.7407 17.2698H17.7833L17.7976 17.2842Z" fill="#4E4E4E"/>
</g>
</g>
<g id="path_5">
<g id="path13 fill">
<path id="Vector_5" d="M24.2087 15.7763V17.2858H25.5798V18.0046H24.2087V20.8367C24.2087 21.4837 24.3944 21.8574 24.9228 21.8574C25.1105 21.8605 25.2978 21.8388 25.4799 21.7927L25.5227 22.5115C25.2497 22.6067 24.9616 22.6506 24.6729 22.6409C24.4817 22.653 24.2901 22.6233 24.1114 22.5538C23.9326 22.4843 23.7709 22.3767 23.6374 22.2384C23.3465 21.8468 23.2138 21.3588 23.266 20.8727V17.9974H22.4519V17.2786H23.2803V15.9991L24.2087 15.7763Z" fill="#4E4E4E"/>
</g>
</g>
<g id="path_6">
<g id="path14 fill">
<path id="Vector_6" d="M27.3426 20.0788C27.3232 20.3226 27.3567 20.5677 27.4406 20.7972C27.5246 21.0267 27.657 21.2351 27.8288 21.408C28.0006 21.581 28.2077 21.7143 28.4357 21.7988C28.6637 21.8833 28.9072 21.9169 29.1494 21.8974C29.6393 21.9084 30.126 21.8154 30.5777 21.6243L30.7419 22.3431C30.1876 22.5729 29.5916 22.6831 28.9923 22.6665C28.6429 22.6906 28.2925 22.6383 27.9651 22.5133C27.6377 22.3883 27.3411 22.1934 27.0955 21.9422C26.8499 21.6909 26.6613 21.3891 26.5424 21.0576C26.4236 20.726 26.3774 20.3725 26.4071 20.0213C26.4071 18.4399 27.3426 17.1892 28.8709 17.1892C30.5848 17.1892 31.0133 18.6987 31.0133 19.6619C31.0225 19.8103 31.0225 19.9592 31.0133 20.1076H27.3212L27.3426 20.0788ZM30.1421 19.36C30.1696 19.1678 30.1559 18.9719 30.1019 18.7855C30.0479 18.5991 29.9548 18.4266 29.829 18.2794C29.7031 18.1323 29.5473 18.014 29.3722 17.9326C29.1971 17.8512 29.0067 17.8085 28.8138 17.8074C28.4214 17.836 28.0538 18.011 27.7829 18.2982C27.5121 18.5855 27.3576 18.9641 27.3498 19.36H30.1421Z" fill="#4E4E4E"/>
</g>
</g>
<g id="path_7">
<g id="path15 fill">
<path id="Vector_7" d="M32.4653 18.9188C32.4653 18.3006 32.4653 17.7687 32.4225 17.2799H33.2794V18.3078H33.3223C33.4122 17.9906 33.5981 17.7094 33.854 17.5033C34.11 17.2972 34.4233 17.1764 34.7506 17.1577C34.8406 17.1458 34.9319 17.1458 35.0219 17.1577V18.0562C34.9128 18.0435 34.8026 18.0435 34.6934 18.0562C34.3692 18.0689 34.0607 18.1999 33.8255 18.4247C33.5902 18.6496 33.4444 18.953 33.4151 19.2782C33.3884 19.4253 33.3741 19.5744 33.3723 19.7239V22.52H32.4296V18.926L32.4653 18.9188Z" fill="#4E4E4E"/>
</g>
</g>
</g>
</g>
<g id="g_2">
<g id="path_8">
<g id="path16 fill">
<path id="Vector_8" d="M32.0459 2.84652C32.0752 3.32942 31.9611 3.81018 31.718 4.22755C31.4749 4.64492 31.1139 4.98001 30.6809 5.19014C30.248 5.40026 29.7627 5.4759 29.2869 5.40744C28.811 5.33896 28.3662 5.12948 28.0091 4.80566C27.652 4.48186 27.3987 4.05837 27.2816 3.58916C27.1644 3.11995 27.1887 2.62625 27.3512 2.17097C27.5138 1.71569 27.8074 1.31941 28.1945 1.03265C28.5816 0.745877 29.0448 0.581587 29.525 0.560705C29.8398 0.543267 30.155 0.588648 30.4524 0.694239C30.7497 0.799829 31.0234 0.963547 31.2577 1.17598C31.492 1.3884 31.6822 1.64535 31.8175 1.93205C31.9528 2.21874 32.0304 2.52953 32.0459 2.84652Z" fill="#767677"/>
</g>
</g>
<g id="path_9">
<g id="path17 fill">
<path id="Vector_9" d="M17.9247 30.9974C11.4975 30.9974 5.8486 28.6756 2.92776 25.2469C4.06106 28.3314 6.10596 30.9925 8.78722 32.8718C11.4685 34.7512 14.6574 35.7587 17.9247 35.7587C21.1921 35.7587 24.381 34.7512 27.0623 32.8718C29.7435 30.9925 31.7884 28.3314 32.9218 25.2469C30.0081 28.6756 24.3806 30.9974 17.9247 30.9974Z" fill="#F37726"/>
</g>
</g>
<g id="path_10">
<g id="path18 fill">
<path id="Vector_10" d="M17.9247 8.70127C24.352 8.70127 30.0009 11.023 32.9218 14.4517C31.7884 11.3672 29.7435 8.70618 27.0623 6.82681C24.381 4.94743 21.1921 3.93994 17.9247 3.93994C14.6574 3.93994 11.4685 4.94743 8.78722 6.82681C6.10596 8.70618 4.06106 11.3672 2.92776 14.4517C5.8486 11.0158 11.4689 8.70127 17.9247 8.70127Z" fill="#F37726"/>
</g>
</g>
<g id="path_11">
<g id="path19 fill">
<path id="Vector_11" d="M9.07683 37.6697C9.11453 38.278 8.97148 38.8838 8.66591 39.4099C8.36032 39.936 7.90606 40.3587 7.36098 40.624C6.8159 40.8893 6.20469 40.9853 5.60522 40.8997C5.00574 40.8142 4.44514 40.5509 3.99484 40.1435C3.54454 39.7361 3.22494 39.203 3.07674 38.6121C2.92854 38.0212 2.95845 37.3993 3.16268 36.8256C3.3669 36.2518 3.73618 35.7523 4.22348 35.3906C4.71078 35.0289 5.29402 34.8214 5.8989 34.7945C6.29515 34.7732 6.6917 34.8306 7.06589 34.9636C7.44007 35.0966 7.78456 35.3024 8.07968 35.5694C8.37479 35.8364 8.61476 36.1594 8.78585 36.5197C8.95695 36.8801 9.05583 37.2709 9.07683 37.6697Z" fill="#9E9E9E"/>
</g>
</g>
<g id="path_12">
<g id="path20 fill">
<path id="Vector_12" d="M3.65824 7.9199C3.31191 7.92953 2.97049 7.83587 2.67691 7.65072C2.38333 7.46555 2.15069 7.19714 2.00826 6.87926C1.86583 6.56137 1.81996 6.20819 1.87642 5.86413C1.93288 5.52008 2.08915 5.2005 2.32558 4.9456C2.56201 4.6907 2.86804 4.51185 3.20519 4.43155C3.54233 4.35125 3.89553 4.37308 4.22039 4.4943C4.54524 4.61552 4.82724 4.8307 5.0309 5.11281C5.23457 5.39491 5.35082 5.73133 5.36504 6.07975C5.37857 6.55088 5.20693 7.00838 4.88737 7.3529C4.56782 7.69742 4.12613 7.90117 3.65824 7.9199Z" fill="#616262"/>
</g>
</g>
</g>
</g>
</g>
</g>
</g>
<defs>
<clipPath id="clip0_1184_4876">
<rect width="35.2941" height="41.1765" fill="white" transform="translate(0.352936)"/>
</clipPath>
</defs>
</svg>
