<?xml version="1.0" encoding="utf-8"?>
<!-- Generator: Adobe Illustrator 20.0.0, SVG Export Plug-In . SVG Version: 6.00 Build 0)  -->
<svg version="1.1" id="Layer_1" xmlns="http://www.w3.org/2000/svg" xmlns:xlink="http://www.w3.org/1999/xlink" x="0px" y="0px"
	 viewBox="0 0 250 60.5" style="enable-background:new 0 0 250 60.5;" xml:space="preserve">
<style type="text/css">
	.st0{fill:#FFFFFF;}
</style>
<g>
	<path class="st0" d="M93,30.1L93,30.1L79.6,5.8c-1.7-3.1-3.9-4.8-7-4.8h-3.7l13.9,25.1l2,3.7l-2,3.7L68.9,59h3.9
		c3.1,0,5.3-1.5,7-4.8L93,30.1L93,30.1L93,30.1L93,30.1z"/>
	<path class="st0" d="M64.8,1.3H5.2c-2.5,0-4.8,2-4.8,4.8v24.1l0,0v24.1c0,2.5,2,4.8,4.8,4.8h59.6L81,30L64.8,1.3z M30.2,43h-4.8
		L13.5,24v19H8.9V17.2h4.9l11.9,19v-19H30V43H30.2z M39.3,43.2h-4.6v-26h4.6V43.2z M60.4,43.2V31.5H48.5v11.7h-4.6v-26h4.6v10.4
		h11.9V17.2H65v26H60.4z"/>
</g>
<g>
	<g>
		<path class="st0" d="M98.1,12.8h2.2l5.5,8.8h0v-8.8h2v12h-2.2l-5.4-8.8h-0.1v8.8h-2V12.8z"/>
		<path class="st0" d="M116.7,22.9c0,0.2,0,0.4,0.1,0.5c0.1,0.1,0.2,0.2,0.4,0.2c0.1,0,0.1,0,0.2,0c0.1,0,0.2,0,0.3,0v1.3
			c-0.1,0-0.2,0-0.3,0.1c-0.1,0-0.2,0.1-0.3,0.1c-0.1,0-0.2,0-0.3,0.1c-0.1,0-0.2,0-0.3,0c-0.4,0-0.7-0.1-1-0.2
			c-0.3-0.2-0.4-0.4-0.5-0.8c-0.4,0.4-0.8,0.6-1.4,0.8C113,25,112.5,25,112,25c-0.4,0-0.8-0.1-1.1-0.2c-0.4-0.1-0.7-0.3-0.9-0.5
			c-0.3-0.2-0.5-0.5-0.7-0.8c-0.2-0.3-0.2-0.7-0.2-1.1c0-0.5,0.1-1,0.3-1.3c0.2-0.3,0.5-0.6,0.8-0.8c0.3-0.2,0.7-0.3,1.1-0.4
			c0.4-0.1,0.8-0.1,1.2-0.2c0.3-0.1,0.7-0.1,1-0.1c0.3,0,0.6-0.1,0.8-0.1c0.2-0.1,0.4-0.2,0.6-0.3c0.1-0.1,0.2-0.3,0.2-0.6
			c0-0.2-0.1-0.4-0.2-0.6c-0.1-0.2-0.3-0.3-0.4-0.4c-0.2-0.1-0.4-0.1-0.6-0.2c-0.2,0-0.4,0-0.6,0c-0.5,0-1,0.1-1.3,0.3
			c-0.3,0.2-0.5,0.6-0.6,1h-1.9c0-0.6,0.2-1,0.4-1.4c0.2-0.4,0.5-0.7,0.9-0.9c0.4-0.2,0.8-0.4,1.2-0.5c0.5-0.1,0.9-0.1,1.4-0.1
			c0.4,0,0.8,0,1.3,0.1c0.4,0.1,0.8,0.2,1.1,0.4c0.3,0.2,0.6,0.5,0.8,0.8c0.2,0.3,0.3,0.7,0.3,1.2V22.9z M114.8,20.5
			c-0.3,0.2-0.6,0.3-1.1,0.3c-0.4,0-0.8,0.1-1.3,0.2c-0.2,0-0.4,0.1-0.6,0.1c-0.2,0.1-0.4,0.1-0.5,0.3c-0.1,0.1-0.3,0.2-0.3,0.4
			c-0.1,0.2-0.1,0.4-0.1,0.6c0,0.2,0.1,0.4,0.2,0.5c0.1,0.1,0.3,0.3,0.4,0.3c0.2,0.1,0.4,0.1,0.6,0.2c0.2,0,0.4,0.1,0.6,0.1
			c0.2,0,0.4,0,0.7-0.1c0.2-0.1,0.5-0.2,0.7-0.3c0.2-0.1,0.4-0.3,0.5-0.5c0.1-0.2,0.2-0.5,0.2-0.8V20.5z"/>
		<path class="st0" d="M117.4,16.1h1.4v-2.6h1.9v2.6h1.7v1.4h-1.7v4.6c0,0.2,0,0.4,0,0.5c0,0.1,0.1,0.3,0.1,0.4
			c0.1,0.1,0.2,0.2,0.3,0.2c0.1,0.1,0.3,0.1,0.5,0.1c0.1,0,0.3,0,0.4,0c0.1,0,0.3,0,0.4-0.1v1.5c-0.2,0-0.4,0-0.6,0.1
			c-0.2,0-0.4,0-0.6,0c-0.5,0-0.9,0-1.2-0.1c-0.3-0.1-0.5-0.2-0.7-0.4s-0.3-0.4-0.4-0.7c-0.1-0.3-0.1-0.6-0.1-1v-5.1h-1.4V16.1z"/>
		<path class="st0" d="M123.4,12.8h1.9v1.8h-1.9V12.8z M123.4,16.1h1.9v8.7h-1.9V16.1z"/>
		<path class="st0" d="M130.9,25c-0.7,0-1.3-0.1-1.9-0.3c-0.5-0.2-1-0.5-1.4-0.9c-0.4-0.4-0.7-0.9-0.9-1.4c-0.2-0.6-0.3-1.2-0.3-1.8
			c0-0.7,0.1-1.3,0.3-1.8c0.2-0.6,0.5-1,0.9-1.4c0.4-0.4,0.8-0.7,1.4-0.9c0.5-0.2,1.2-0.3,1.9-0.3s1.3,0.1,1.9,0.3
			c0.5,0.2,1,0.5,1.4,0.9c0.4,0.4,0.7,0.9,0.9,1.4c0.2,0.6,0.3,1.2,0.3,1.8c0,0.7-0.1,1.3-0.3,1.8c-0.2,0.6-0.5,1-0.9,1.4
			c-0.4,0.4-0.8,0.7-1.4,0.9C132.2,24.9,131.6,25,130.9,25z M130.9,23.5c0.4,0,0.8-0.1,1.1-0.3c0.3-0.2,0.6-0.4,0.8-0.7
			c0.2-0.3,0.3-0.6,0.4-1c0.1-0.4,0.1-0.7,0.1-1.1c0-0.4,0-0.7-0.1-1.1c-0.1-0.4-0.2-0.7-0.4-1c-0.2-0.3-0.5-0.5-0.8-0.7
			c-0.3-0.2-0.7-0.3-1.1-0.3c-0.4,0-0.8,0.1-1.1,0.3c-0.3,0.2-0.6,0.4-0.8,0.7c-0.2,0.3-0.3,0.6-0.4,1c-0.1,0.4-0.1,0.7-0.1,1.1
			c0,0.4,0,0.8,0.1,1.1c0.1,0.4,0.2,0.7,0.4,1c0.2,0.3,0.5,0.5,0.8,0.7C130.1,23.4,130.4,23.5,130.9,23.5z"/>
		<path class="st0" d="M136.3,16.1h1.8v1.3l0,0c0.3-0.5,0.7-0.9,1.1-1.1c0.5-0.3,1-0.4,1.6-0.4c0.9,0,1.7,0.2,2.2,0.7
			c0.5,0.5,0.8,1.2,0.8,2.2v5.9H142v-5.4c0-0.7-0.2-1.2-0.4-1.5c-0.3-0.3-0.7-0.5-1.3-0.5c-0.3,0-0.6,0.1-0.9,0.2
			c-0.3,0.1-0.5,0.3-0.7,0.5c-0.2,0.2-0.3,0.4-0.4,0.7c-0.1,0.3-0.2,0.6-0.2,0.9v5.1h-1.9V16.1z"/>
		<path class="st0" d="M152.7,22.9c0,0.2,0,0.4,0.1,0.5c0.1,0.1,0.2,0.2,0.4,0.2c0.1,0,0.1,0,0.2,0c0.1,0,0.2,0,0.3,0v1.3
			c-0.1,0-0.2,0-0.3,0.1c-0.1,0-0.2,0.1-0.3,0.1c-0.1,0-0.2,0-0.3,0.1c-0.1,0-0.2,0-0.3,0c-0.4,0-0.7-0.1-1-0.2s-0.4-0.4-0.5-0.8
			c-0.4,0.4-0.8,0.6-1.4,0.8c-0.6,0.2-1.1,0.3-1.6,0.3c-0.4,0-0.8-0.1-1.1-0.2s-0.7-0.3-0.9-0.5c-0.3-0.2-0.5-0.5-0.7-0.8
			c-0.2-0.3-0.2-0.7-0.2-1.1c0-0.5,0.1-1,0.3-1.3c0.2-0.3,0.5-0.6,0.8-0.8c0.3-0.2,0.7-0.3,1.1-0.4c0.4-0.1,0.8-0.1,1.2-0.2
			c0.3-0.1,0.7-0.1,1-0.1c0.3,0,0.6-0.1,0.8-0.1c0.2-0.1,0.4-0.2,0.6-0.3c0.1-0.1,0.2-0.3,0.2-0.6c0-0.2-0.1-0.4-0.2-0.6
			c-0.1-0.2-0.3-0.3-0.4-0.4c-0.2-0.1-0.4-0.1-0.6-0.2c-0.2,0-0.4,0-0.6,0c-0.5,0-1,0.1-1.3,0.3c-0.3,0.2-0.5,0.6-0.6,1h-1.9
			c0-0.6,0.2-1,0.4-1.4c0.2-0.4,0.5-0.7,0.9-0.9c0.4-0.2,0.8-0.4,1.2-0.5c0.5-0.1,0.9-0.1,1.4-0.1c0.4,0,0.8,0,1.3,0.1
			c0.4,0.1,0.8,0.2,1.1,0.4c0.3,0.2,0.6,0.5,0.8,0.8c0.2,0.3,0.3,0.7,0.3,1.2V22.9z M150.8,20.5c-0.3,0.2-0.6,0.3-1.1,0.3
			c-0.4,0-0.8,0.1-1.3,0.2c-0.2,0-0.4,0.1-0.6,0.1c-0.2,0.1-0.4,0.1-0.5,0.3c-0.1,0.1-0.3,0.2-0.3,0.4c-0.1,0.2-0.1,0.4-0.1,0.6
			c0,0.2,0.1,0.4,0.2,0.5c0.1,0.1,0.3,0.3,0.4,0.3c0.2,0.1,0.4,0.1,0.6,0.2c0.2,0,0.4,0.1,0.6,0.1c0.2,0,0.4,0,0.7-0.1
			c0.2-0.1,0.5-0.2,0.7-0.3c0.2-0.1,0.4-0.3,0.5-0.5c0.1-0.2,0.2-0.5,0.2-0.8V20.5z"/>
		<path class="st0" d="M154.3,12.8h1.9v12h-1.9V12.8z"/>
		<path class="st0" d="M162.2,12.8h2.1v4.8h5.4v-4.8h2.1v12h-2.1v-5.4h-5.4v5.4h-2.1V12.8z"/>
		<path class="st0" d="M175,21c0,0.3,0,0.7,0.1,1c0.1,0.3,0.2,0.6,0.4,0.8c0.2,0.2,0.4,0.4,0.7,0.6c0.3,0.1,0.6,0.2,1,0.2
			c0.6,0,1-0.1,1.3-0.4c0.3-0.2,0.6-0.6,0.8-1.1h1.8c-0.1,0.5-0.3,0.9-0.5,1.3c-0.2,0.4-0.5,0.7-0.9,0.9c-0.3,0.3-0.7,0.4-1.2,0.6
			c-0.4,0.1-0.9,0.2-1.3,0.2c-0.7,0-1.3-0.1-1.8-0.3c-0.5-0.2-1-0.5-1.3-0.9c-0.4-0.4-0.6-0.9-0.8-1.4c-0.2-0.6-0.3-1.2-0.3-1.8
			c0-0.6,0.1-1.2,0.3-1.8s0.5-1,0.8-1.5c0.4-0.4,0.8-0.8,1.3-1c0.5-0.2,1.1-0.4,1.7-0.4c0.7,0,1.3,0.1,1.8,0.4
			c0.5,0.3,1,0.7,1.3,1.1s0.6,1,0.8,1.6s0.2,1.2,0.1,1.9H175z M179.5,19.7c0-0.3-0.1-0.6-0.2-0.9c-0.1-0.3-0.3-0.5-0.4-0.7
			c-0.2-0.2-0.4-0.4-0.7-0.5c-0.3-0.1-0.6-0.2-0.9-0.2c-0.3,0-0.6,0.1-0.9,0.2c-0.3,0.1-0.5,0.3-0.7,0.5c-0.2,0.2-0.4,0.4-0.5,0.7
			c-0.1,0.3-0.2,0.6-0.2,0.9H179.5z"/>
		<path class="st0" d="M189.6,22.9c0,0.2,0,0.4,0.1,0.5c0.1,0.1,0.2,0.2,0.4,0.2c0.1,0,0.1,0,0.2,0c0.1,0,0.2,0,0.3,0v1.3
			c-0.1,0-0.2,0-0.3,0.1c-0.1,0-0.2,0.1-0.3,0.1c-0.1,0-0.2,0-0.3,0.1c-0.1,0-0.2,0-0.3,0c-0.4,0-0.7-0.1-1-0.2s-0.4-0.4-0.5-0.8
			c-0.4,0.4-0.8,0.6-1.4,0.8c-0.6,0.2-1.1,0.3-1.6,0.3c-0.4,0-0.8-0.1-1.1-0.2s-0.7-0.3-0.9-0.5c-0.3-0.2-0.5-0.5-0.7-0.8
			c-0.2-0.3-0.2-0.7-0.2-1.1c0-0.5,0.1-1,0.3-1.3c0.2-0.3,0.5-0.6,0.8-0.8c0.3-0.2,0.7-0.3,1.1-0.4c0.4-0.1,0.8-0.1,1.2-0.2
			c0.3-0.1,0.7-0.1,1-0.1c0.3,0,0.6-0.1,0.8-0.1c0.2-0.1,0.4-0.2,0.6-0.3c0.1-0.1,0.2-0.3,0.2-0.6c0-0.2-0.1-0.4-0.2-0.6
			c-0.1-0.2-0.3-0.3-0.4-0.4c-0.2-0.1-0.4-0.1-0.6-0.2c-0.2,0-0.4,0-0.6,0c-0.5,0-1,0.1-1.3,0.3c-0.3,0.2-0.5,0.6-0.6,1h-1.9
			c0-0.6,0.2-1,0.4-1.4c0.2-0.4,0.5-0.7,0.9-0.9c0.4-0.2,0.8-0.4,1.2-0.5c0.5-0.1,0.9-0.1,1.4-0.1c0.4,0,0.8,0,1.3,0.1
			c0.4,0.1,0.8,0.2,1.1,0.4c0.3,0.2,0.6,0.5,0.8,0.8c0.2,0.3,0.3,0.7,0.3,1.2V22.9z M187.7,20.5c-0.3,0.2-0.6,0.3-1.1,0.3
			c-0.4,0-0.8,0.1-1.3,0.2c-0.2,0-0.4,0.1-0.6,0.1c-0.2,0.1-0.4,0.1-0.5,0.3c-0.1,0.1-0.3,0.2-0.3,0.4c-0.1,0.2-0.1,0.4-0.1,0.6
			c0,0.2,0.1,0.4,0.2,0.5c0.1,0.1,0.3,0.3,0.4,0.3c0.2,0.1,0.4,0.1,0.6,0.2c0.2,0,0.4,0.1,0.6,0.1c0.2,0,0.4,0,0.7-0.1
			c0.2-0.1,0.5-0.2,0.7-0.3c0.2-0.1,0.4-0.3,0.5-0.5c0.1-0.2,0.2-0.5,0.2-0.8V20.5z"/>
		<path class="st0" d="M191.2,16.1h1.8v1.7h0c0.1-0.2,0.2-0.5,0.3-0.7c0.2-0.2,0.4-0.4,0.6-0.6c0.2-0.2,0.5-0.3,0.8-0.4
			c0.3-0.1,0.6-0.2,0.9-0.2c0.2,0,0.4,0,0.5,0c0.1,0,0.2,0,0.3,0v1.8c-0.1,0-0.3,0-0.4-0.1s-0.3,0-0.4,0c-0.3,0-0.6,0.1-0.9,0.2
			c-0.3,0.1-0.5,0.3-0.7,0.6c-0.2,0.3-0.4,0.6-0.5,0.9c-0.1,0.4-0.2,0.8-0.2,1.3v4.1h-1.9V16.1z"/>
		<path class="st0" d="M195.7,16.1h1.4v-2.6h1.9v2.6h1.7v1.4H199v4.6c0,0.2,0,0.4,0,0.5c0,0.1,0.1,0.3,0.1,0.4
			c0.1,0.1,0.2,0.2,0.3,0.2c0.1,0.1,0.3,0.1,0.5,0.1c0.1,0,0.3,0,0.4,0c0.1,0,0.3,0,0.4-0.1v1.5c-0.2,0-0.4,0-0.6,0.1
			c-0.2,0-0.4,0-0.6,0c-0.5,0-0.9,0-1.2-0.1c-0.3-0.1-0.5-0.2-0.7-0.4c-0.2-0.2-0.3-0.4-0.4-0.7c-0.1-0.3-0.1-0.6-0.1-1v-5.1h-1.4
			V16.1z"/>
		<path class="st0" d="M201.8,22.5h2.3v2.3c0,0.7-0.2,1.3-0.6,1.7c-0.4,0.5-1,0.8-1.6,0.9v-1c0.4-0.1,0.6-0.3,0.8-0.6
			c0.2-0.3,0.3-0.7,0.3-1h-1.2V22.5z"/>
		<path class="st0" d="M210.2,12.8h2.1V23h6.1v1.8h-8.2V12.8z"/>
		<path class="st0" d="M226.7,24.8h-1.9v-1.2h0c-0.2,0.4-0.6,0.8-1,1c-0.5,0.3-0.9,0.4-1.4,0.4c-1.1,0-2-0.3-2.5-0.8
			c-0.5-0.6-0.8-1.4-0.8-2.6v-5.5h1.9v5.3c0,0.8,0.1,1.3,0.4,1.6c0.3,0.3,0.7,0.5,1.2,0.5c0.4,0,0.7-0.1,1-0.2
			c0.3-0.1,0.5-0.3,0.7-0.5c0.2-0.2,0.3-0.5,0.4-0.7s0.1-0.6,0.1-0.9v-5h1.9V24.8z"/>
		<path class="st0" d="M228.2,16.1h1.8v1.3l0,0c0.3-0.5,0.7-0.9,1.1-1.1c0.5-0.3,1-0.4,1.6-0.4c0.9,0,1.7,0.2,2.2,0.7
			c0.5,0.5,0.8,1.2,0.8,2.2v5.9h-1.9v-5.4c0-0.7-0.2-1.2-0.4-1.5s-0.7-0.5-1.3-0.5c-0.3,0-0.6,0.1-0.9,0.2c-0.3,0.1-0.5,0.3-0.7,0.5
			c-0.2,0.2-0.3,0.4-0.4,0.7c-0.1,0.3-0.2,0.6-0.2,0.9v5.1h-1.9V16.1z"/>
		<path class="st0" d="M245.3,24.4c0,1.3-0.4,2.3-1.1,2.9c-0.7,0.6-1.8,1-3.2,1c-0.4,0-0.9,0-1.3-0.1c-0.4-0.1-0.8-0.2-1.2-0.5
			c-0.4-0.2-0.7-0.5-0.9-0.8c-0.2-0.3-0.4-0.8-0.4-1.3h1.9c0.1,0.3,0.1,0.5,0.3,0.7c0.1,0.2,0.3,0.3,0.5,0.4
			c0.2,0.1,0.4,0.2,0.6,0.2c0.2,0,0.5,0,0.7,0c0.8,0,1.3-0.2,1.7-0.6s0.5-0.9,0.5-1.6v-1.3h0c-0.3,0.5-0.6,0.9-1.1,1.1
			c-0.5,0.3-1,0.4-1.5,0.4c-0.7,0-1.3-0.1-1.8-0.4c-0.5-0.2-0.9-0.6-1.2-1c-0.3-0.4-0.6-0.9-0.7-1.4c-0.1-0.5-0.2-1.1-0.2-1.8
			c0-0.6,0.1-1.1,0.3-1.7c0.2-0.5,0.4-1,0.8-1.4c0.3-0.4,0.7-0.7,1.2-0.9s1-0.4,1.6-0.4c0.5,0,1,0.1,1.5,0.3
			c0.5,0.2,0.8,0.6,1.1,1.1h0v-1.2h1.9V24.4z M241,23.3c0.4,0,0.8-0.1,1.1-0.3c0.3-0.2,0.5-0.4,0.7-0.7c0.2-0.3,0.3-0.6,0.4-1
			c0.1-0.4,0.1-0.7,0.1-1.1c0-0.4,0-0.7-0.1-1.1c-0.1-0.3-0.2-0.7-0.4-0.9c-0.2-0.3-0.4-0.5-0.7-0.6c-0.3-0.2-0.7-0.2-1.1-0.2
			c-0.4,0-0.8,0.1-1.1,0.3c-0.3,0.2-0.5,0.4-0.7,0.7c-0.2,0.3-0.3,0.6-0.4,1c-0.1,0.4-0.1,0.7-0.1,1.1s0,0.7,0.1,1
			c0.1,0.3,0.2,0.6,0.4,0.9c0.2,0.3,0.4,0.5,0.7,0.7C240.3,23.2,240.6,23.3,241,23.3z"/>
		<path class="st0" d="M246.9,22.5h2.3v2.3c0,0.7-0.2,1.3-0.6,1.7c-0.4,0.5-1,0.8-1.6,0.9v-1c0.4-0.1,0.6-0.3,0.8-0.6
			c0.2-0.3,0.3-0.7,0.3-1h-1.2V22.5z"/>
		<path class="st0" d="M105.1,43c0,0.2,0,0.4,0.1,0.5c0.1,0.1,0.2,0.2,0.4,0.2c0.1,0,0.1,0,0.2,0c0.1,0,0.2,0,0.3,0v1.3
			c-0.1,0-0.2,0-0.3,0.1c-0.1,0-0.2,0.1-0.3,0.1c-0.1,0-0.2,0-0.3,0.1c-0.1,0-0.2,0-0.3,0c-0.4,0-0.7-0.1-1-0.2
			c-0.3-0.2-0.4-0.4-0.5-0.8c-0.4,0.4-0.8,0.6-1.4,0.8c-0.6,0.2-1.1,0.3-1.6,0.3c-0.4,0-0.8-0.1-1.1-0.2c-0.4-0.1-0.7-0.3-0.9-0.5
			c-0.3-0.2-0.5-0.5-0.7-0.8c-0.2-0.3-0.2-0.7-0.2-1.1c0-0.5,0.1-1,0.3-1.3c0.2-0.3,0.5-0.6,0.8-0.8c0.3-0.2,0.7-0.3,1.1-0.4
			c0.4-0.1,0.8-0.1,1.2-0.2c0.3-0.1,0.7-0.1,1-0.1c0.3,0,0.6-0.1,0.8-0.1c0.2-0.1,0.4-0.2,0.6-0.3s0.2-0.3,0.2-0.6
			c0-0.2-0.1-0.4-0.2-0.6c-0.1-0.2-0.3-0.3-0.4-0.4c-0.2-0.1-0.4-0.1-0.6-0.2c-0.2,0-0.4,0-0.6,0c-0.5,0-1,0.1-1.3,0.3
			c-0.3,0.2-0.5,0.6-0.6,1h-1.9c0-0.6,0.2-1,0.4-1.4c0.2-0.4,0.5-0.7,0.9-0.9c0.4-0.2,0.8-0.4,1.2-0.5c0.5-0.1,0.9-0.1,1.4-0.1
			c0.4,0,0.8,0,1.3,0.1c0.4,0.1,0.8,0.2,1.1,0.4c0.3,0.2,0.6,0.5,0.8,0.8c0.2,0.3,0.3,0.7,0.3,1.2V43z M103.2,40.6
			c-0.3,0.2-0.6,0.3-1.1,0.3c-0.4,0-0.8,0.1-1.3,0.2c-0.2,0-0.4,0.1-0.6,0.1c-0.2,0.1-0.4,0.1-0.5,0.3c-0.1,0.1-0.3,0.2-0.3,0.4
			c-0.1,0.2-0.1,0.4-0.1,0.6c0,0.2,0.1,0.4,0.2,0.5c0.1,0.1,0.3,0.3,0.4,0.3s0.4,0.1,0.6,0.2c0.2,0,0.4,0.1,0.6,0.1
			c0.2,0,0.4,0,0.7-0.1c0.2-0.1,0.5-0.2,0.7-0.3c0.2-0.1,0.4-0.3,0.5-0.5s0.2-0.5,0.2-0.8V40.6z"/>
		<path class="st0" d="M106.7,36.3h1.8v1.3l0,0c0.3-0.5,0.7-0.9,1.1-1.1c0.5-0.3,1-0.4,1.6-0.4c0.9,0,1.7,0.2,2.2,0.7
			c0.5,0.5,0.8,1.2,0.8,2.2v5.9h-1.9v-5.4c0-0.7-0.2-1.2-0.4-1.5c-0.3-0.3-0.7-0.5-1.3-0.5c-0.3,0-0.6,0.1-0.9,0.2
			c-0.3,0.1-0.5,0.3-0.7,0.5c-0.2,0.2-0.3,0.4-0.4,0.7c-0.1,0.3-0.2,0.6-0.2,0.9v5.1h-1.9V36.3z"/>
		<path class="st0" d="M124,44.9h-1.8v-1.2h0c-0.3,0.5-0.6,0.9-1.1,1.1c-0.5,0.2-1,0.3-1.6,0.3c-0.7,0-1.3-0.1-1.8-0.4
			s-0.9-0.6-1.3-1c-0.3-0.4-0.6-0.9-0.8-1.5c-0.2-0.6-0.3-1.2-0.3-1.8c0-0.8,0.1-1.5,0.3-2c0.2-0.6,0.5-1,0.8-1.4s0.8-0.6,1.2-0.8
			c0.5-0.2,0.9-0.3,1.4-0.3c0.3,0,0.5,0,0.8,0.1c0.3,0,0.5,0.1,0.8,0.2c0.3,0.1,0.5,0.3,0.7,0.4c0.2,0.2,0.4,0.4,0.5,0.6h0V33h1.9
			V44.9z M117.3,40.7c0,0.4,0,0.7,0.1,1.1c0.1,0.4,0.2,0.7,0.4,1c0.2,0.3,0.4,0.5,0.7,0.7c0.3,0.2,0.7,0.3,1.1,0.3
			c0.4,0,0.8-0.1,1.1-0.3c0.3-0.2,0.6-0.4,0.8-0.7c0.2-0.3,0.3-0.6,0.4-1c0.1-0.4,0.1-0.7,0.1-1.1c0-1-0.2-1.7-0.6-2.2
			c-0.4-0.5-1-0.8-1.8-0.8c-0.4,0-0.8,0.1-1.1,0.3c-0.3,0.2-0.6,0.4-0.8,0.7c-0.2,0.3-0.3,0.6-0.4,1
			C117.3,39.9,117.3,40.3,117.3,40.7z"/>
		<path class="st0" d="M130,33h5.8c1.1,0,1.9,0.2,2.6,0.7c0.6,0.5,1,1.2,1,2.2c0,0.6-0.1,1.1-0.4,1.6c-0.3,0.4-0.7,0.8-1.3,1v0
			c0.7,0.2,1.3,0.5,1.7,1c0.4,0.5,0.6,1.2,0.6,2c0,0.5-0.1,0.9-0.3,1.3c-0.2,0.4-0.4,0.8-0.8,1.1c-0.4,0.3-0.8,0.5-1.4,0.7
			c-0.6,0.2-1.2,0.3-2,0.3H130V33z M132.1,38h3.4c0.5,0,0.9-0.1,1.3-0.4c0.3-0.3,0.5-0.7,0.5-1.2c0-0.6-0.1-1-0.5-1.3
			c-0.3-0.2-0.7-0.4-1.3-0.4h-3.4V38z M132.1,43.2h3.7c0.6,0,1.1-0.2,1.5-0.5c0.4-0.3,0.5-0.8,0.5-1.4c0-0.6-0.2-1-0.5-1.4
			c-0.4-0.3-0.8-0.5-1.5-0.5h-3.7V43.2z"/>
		<path class="st0" d="M141,33h1.9v12H141V33z"/>
		<path class="st0" d="M148.5,45.1c-0.7,0-1.3-0.1-1.9-0.3c-0.5-0.2-1-0.5-1.4-0.9c-0.4-0.4-0.7-0.9-0.9-1.4
			c-0.2-0.6-0.3-1.2-0.3-1.8c0-0.7,0.1-1.3,0.3-1.8c0.2-0.6,0.5-1,0.9-1.4c0.4-0.4,0.8-0.7,1.4-0.9c0.5-0.2,1.2-0.3,1.9-0.3
			s1.3,0.1,1.9,0.3s1,0.5,1.4,0.9c0.4,0.4,0.7,0.9,0.9,1.4c0.2,0.6,0.3,1.2,0.3,1.8c0,0.7-0.1,1.3-0.3,1.8c-0.2,0.6-0.5,1-0.9,1.4
			c-0.4,0.4-0.8,0.7-1.4,0.9C149.8,45,149.2,45.1,148.5,45.1z M148.5,43.6c0.4,0,0.8-0.1,1.1-0.3c0.3-0.2,0.6-0.4,0.8-0.7
			c0.2-0.3,0.3-0.6,0.4-1c0.1-0.4,0.1-0.7,0.1-1.1c0-0.4,0-0.7-0.1-1.1c-0.1-0.4-0.2-0.7-0.4-1c-0.2-0.3-0.5-0.5-0.8-0.7
			c-0.3-0.2-0.7-0.3-1.1-0.3c-0.4,0-0.8,0.1-1.1,0.3c-0.3,0.2-0.6,0.4-0.8,0.7c-0.2,0.3-0.3,0.6-0.4,1c-0.1,0.4-0.1,0.7-0.1,1.1
			c0,0.4,0,0.8,0.1,1.1c0.1,0.4,0.2,0.7,0.4,1c0.2,0.3,0.5,0.5,0.8,0.7C147.7,43.6,148.1,43.6,148.5,43.6z"/>
		<path class="st0" d="M157.9,45.1c-0.7,0-1.3-0.1-1.9-0.3c-0.5-0.2-1-0.5-1.4-0.9c-0.4-0.4-0.7-0.9-0.9-1.4
			c-0.2-0.6-0.3-1.2-0.3-1.8c0-0.7,0.1-1.3,0.3-1.8c0.2-0.6,0.5-1,0.9-1.4c0.4-0.4,0.8-0.7,1.4-0.9c0.5-0.2,1.2-0.3,1.9-0.3
			s1.3,0.1,1.9,0.3c0.5,0.2,1,0.5,1.4,0.9c0.4,0.4,0.7,0.9,0.9,1.4c0.2,0.6,0.3,1.2,0.3,1.8c0,0.7-0.1,1.3-0.3,1.8
			c-0.2,0.6-0.5,1-0.9,1.4c-0.4,0.4-0.8,0.7-1.4,0.9C159.2,45,158.6,45.1,157.9,45.1z M157.9,43.6c0.4,0,0.8-0.1,1.1-0.3
			c0.3-0.2,0.6-0.4,0.8-0.7c0.2-0.3,0.3-0.6,0.4-1c0.1-0.4,0.1-0.7,0.1-1.1c0-0.4,0-0.7-0.1-1.1c-0.1-0.4-0.2-0.7-0.4-1
			c-0.2-0.3-0.5-0.5-0.8-0.7c-0.3-0.2-0.7-0.3-1.1-0.3c-0.4,0-0.8,0.1-1.1,0.3c-0.3,0.2-0.6,0.4-0.8,0.7c-0.2,0.3-0.3,0.6-0.4,1
			s-0.1,0.7-0.1,1.1c0,0.4,0,0.8,0.1,1.1c0.1,0.4,0.2,0.7,0.4,1c0.2,0.3,0.5,0.5,0.8,0.7C157.1,43.6,157.5,43.6,157.9,43.6z"/>
		<path class="st0" d="M171.5,44.9h-1.8v-1.2h0c-0.3,0.5-0.6,0.9-1.1,1.1c-0.5,0.2-1,0.3-1.6,0.3c-0.7,0-1.3-0.1-1.8-0.4
			c-0.5-0.2-0.9-0.6-1.3-1s-0.6-0.9-0.8-1.5c-0.2-0.6-0.3-1.2-0.3-1.8c0-0.8,0.1-1.5,0.3-2c0.2-0.6,0.5-1,0.8-1.4
			c0.4-0.4,0.8-0.6,1.2-0.8s0.9-0.3,1.4-0.3c0.3,0,0.5,0,0.8,0.1c0.3,0,0.5,0.1,0.8,0.2c0.3,0.1,0.5,0.3,0.7,0.4s0.4,0.4,0.5,0.6h0
			V33h1.9V44.9z M164.9,40.7c0,0.4,0,0.7,0.1,1.1c0.1,0.4,0.2,0.7,0.4,1c0.2,0.3,0.4,0.5,0.7,0.7c0.3,0.2,0.7,0.3,1.1,0.3
			c0.4,0,0.8-0.1,1.1-0.3c0.3-0.2,0.6-0.4,0.8-0.7c0.2-0.3,0.3-0.6,0.4-1c0.1-0.4,0.1-0.7,0.1-1.1c0-1-0.2-1.7-0.6-2.2
			c-0.4-0.5-1-0.8-1.8-0.8c-0.4,0-0.8,0.1-1.1,0.3c-0.3,0.2-0.6,0.4-0.8,0.7c-0.2,0.3-0.3,0.6-0.4,1
			C164.9,39.9,164.9,40.3,164.9,40.7z"/>
		<path class="st0" d="M177.5,33h2.1v12h-2.1V33z"/>
		<path class="st0" d="M181.4,36.3h1.8v1.3l0,0c0.3-0.5,0.7-0.9,1.1-1.1c0.5-0.3,1-0.4,1.6-0.4c0.9,0,1.7,0.2,2.2,0.7
			c0.5,0.5,0.8,1.2,0.8,2.2v5.9h-1.9v-5.4c0-0.7-0.2-1.2-0.4-1.5c-0.3-0.3-0.7-0.5-1.3-0.5c-0.3,0-0.6,0.1-0.9,0.2
			c-0.3,0.1-0.5,0.3-0.7,0.5c-0.2,0.2-0.3,0.4-0.4,0.7c-0.1,0.3-0.2,0.6-0.2,0.9v5.1h-1.9V36.3z"/>
		<path class="st0" d="M192,42.1c0.1,0.6,0.3,0.9,0.6,1.2c0.4,0.2,0.8,0.3,1.3,0.3c0.2,0,0.4,0,0.6,0c0.2,0,0.4-0.1,0.6-0.2
			c0.2-0.1,0.4-0.2,0.5-0.3c0.1-0.2,0.2-0.3,0.2-0.6c0-0.2-0.1-0.4-0.3-0.6c-0.2-0.2-0.4-0.3-0.6-0.4c-0.3-0.1-0.6-0.2-0.9-0.2
			s-0.7-0.1-1-0.2c-0.4-0.1-0.7-0.2-1-0.3c-0.3-0.1-0.6-0.3-0.9-0.5c-0.3-0.2-0.5-0.4-0.6-0.7c-0.2-0.3-0.2-0.7-0.2-1.1
			c0-0.5,0.1-0.9,0.3-1.2c0.2-0.3,0.5-0.6,0.9-0.8c0.4-0.2,0.7-0.3,1.2-0.4c0.4-0.1,0.8-0.1,1.2-0.1c0.4,0,0.9,0,1.3,0.1
			s0.8,0.2,1.1,0.5c0.3,0.2,0.6,0.5,0.8,0.8c0.2,0.3,0.4,0.8,0.4,1.2h-2c-0.1-0.5-0.3-0.8-0.6-0.9c-0.3-0.2-0.7-0.2-1.1-0.2
			c-0.1,0-0.3,0-0.5,0s-0.4,0.1-0.5,0.1c-0.2,0.1-0.3,0.2-0.4,0.3c-0.1,0.1-0.2,0.3-0.2,0.5c0,0.2,0.1,0.4,0.2,0.6
			c0.2,0.1,0.4,0.3,0.6,0.4c0.3,0.1,0.6,0.2,0.9,0.2c0.3,0.1,0.7,0.1,1,0.2c0.3,0.1,0.7,0.2,1,0.3c0.3,0.1,0.6,0.3,0.9,0.5
			c0.3,0.2,0.5,0.4,0.6,0.7c0.2,0.3,0.2,0.6,0.2,1.1c0,0.5-0.1,0.9-0.4,1.3c-0.2,0.4-0.5,0.6-0.9,0.9c-0.4,0.2-0.8,0.4-1.2,0.5
			c-0.5,0.1-0.9,0.2-1.4,0.2c-0.5,0-1.1-0.1-1.5-0.2c-0.5-0.1-0.9-0.3-1.2-0.6c-0.3-0.3-0.6-0.6-0.8-0.9s-0.3-0.8-0.3-1.3H192z"/>
		<path class="st0" d="M197.9,36.3h1.4v-2.6h1.9v2.6h1.7v1.4h-1.7v4.6c0,0.2,0,0.4,0,0.5c0,0.1,0.1,0.3,0.1,0.4
			c0.1,0.1,0.2,0.2,0.3,0.2c0.1,0.1,0.3,0.1,0.5,0.1c0.1,0,0.3,0,0.4,0c0.1,0,0.3,0,0.4-0.1v1.5c-0.2,0-0.4,0-0.6,0.1
			c-0.2,0-0.4,0-0.6,0c-0.5,0-0.9,0-1.2-0.1c-0.3-0.1-0.5-0.2-0.7-0.4c-0.2-0.2-0.3-0.4-0.4-0.7c-0.1-0.3-0.1-0.6-0.1-1v-5.1h-1.4
			V36.3z"/>
		<path class="st0" d="M203.9,33h1.9v1.8h-1.9V33z M203.9,36.3h1.9v8.7h-1.9V36.3z"/>
		<path class="st0" d="M206.5,36.3h1.4v-2.6h1.9v2.6h1.7v1.4h-1.7v4.6c0,0.2,0,0.4,0,0.5c0,0.1,0.1,0.3,0.1,0.4
			c0.1,0.1,0.2,0.2,0.3,0.2c0.1,0.1,0.3,0.1,0.5,0.1c0.1,0,0.3,0,0.4,0c0.1,0,0.3,0,0.4-0.1v1.5c-0.2,0-0.4,0-0.6,0.1
			c-0.2,0-0.4,0-0.6,0c-0.5,0-0.9,0-1.2-0.1c-0.3-0.1-0.5-0.2-0.7-0.4c-0.2-0.2-0.3-0.4-0.4-0.7c-0.1-0.3-0.1-0.6-0.1-1v-5.1h-1.4
			V36.3z"/>
		<path class="st0" d="M220,44.9h-1.9v-1.2h0c-0.2,0.4-0.6,0.8-1,1c-0.5,0.3-0.9,0.4-1.4,0.4c-1.1,0-2-0.3-2.5-0.8
			c-0.5-0.6-0.8-1.4-0.8-2.6v-5.5h1.9v5.3c0,0.8,0.1,1.3,0.4,1.6c0.3,0.3,0.7,0.5,1.2,0.5c0.4,0,0.7-0.1,1-0.2
			c0.3-0.1,0.5-0.3,0.7-0.5c0.2-0.2,0.3-0.5,0.4-0.7s0.1-0.6,0.1-0.9v-5h1.9V44.9z"/>
		<path class="st0" d="M220.7,36.3h1.4v-2.6h1.9v2.6h1.7v1.4H224v4.6c0,0.2,0,0.4,0,0.5c0,0.1,0.1,0.3,0.1,0.4
			c0.1,0.1,0.2,0.2,0.3,0.2c0.1,0.1,0.3,0.1,0.5,0.1c0.1,0,0.3,0,0.4,0c0.1,0,0.3,0,0.4-0.1v1.5c-0.2,0-0.4,0-0.6,0.1
			c-0.2,0-0.4,0-0.6,0c-0.5,0-0.9,0-1.2-0.1c-0.3-0.1-0.5-0.2-0.7-0.4c-0.2-0.2-0.3-0.4-0.4-0.7c-0.1-0.3-0.1-0.6-0.1-1v-5.1h-1.4
			V36.3z"/>
		<path class="st0" d="M228.1,41.1c0,0.3,0,0.7,0.1,1c0.1,0.3,0.2,0.6,0.4,0.8c0.2,0.2,0.4,0.4,0.7,0.6s0.6,0.2,1,0.2
			c0.6,0,1-0.1,1.3-0.4c0.3-0.2,0.6-0.6,0.8-1.1h1.8c-0.1,0.5-0.3,0.9-0.5,1.3c-0.2,0.4-0.5,0.7-0.9,0.9c-0.3,0.3-0.7,0.4-1.2,0.6
			c-0.4,0.1-0.9,0.2-1.3,0.2c-0.7,0-1.3-0.1-1.8-0.3c-0.5-0.2-1-0.5-1.3-0.9c-0.4-0.4-0.6-0.9-0.8-1.4c-0.2-0.6-0.3-1.2-0.3-1.8
			c0-0.6,0.1-1.2,0.3-1.8c0.2-0.6,0.5-1,0.8-1.5c0.4-0.4,0.8-0.8,1.3-1c0.5-0.2,1.1-0.4,1.7-0.4c0.7,0,1.3,0.1,1.8,0.4
			c0.5,0.3,1,0.7,1.3,1.1c0.4,0.5,0.6,1,0.8,1.6c0.2,0.6,0.2,1.2,0.1,1.9H228.1z M232.6,39.8c0-0.3-0.1-0.6-0.2-0.9
			c-0.1-0.3-0.3-0.5-0.4-0.7c-0.2-0.2-0.4-0.4-0.7-0.5c-0.3-0.1-0.6-0.2-0.9-0.2c-0.3,0-0.6,0.1-0.9,0.2c-0.3,0.1-0.5,0.3-0.7,0.5
			c-0.2,0.2-0.4,0.4-0.5,0.7c-0.1,0.3-0.2,0.6-0.2,0.9H232.6z"/>
	</g>
</g>
</svg>
