<svg width="318" height="103" viewBox="0 0 318 103" fill="none" xmlns="http://www.w3.org/2000/svg">
<path d="M44 46.7538C43.508 46.7538 43.0209 46.8507 42.5664 47.0389C42.1119 47.2272 41.6989 47.5031 41.351 47.851C41.0031 48.1989 40.7272 48.6119 40.5389 49.0664C40.3506 49.5209 40.2537 50.008 40.2537 50.5C40.2537 50.992 40.3506 51.4791 40.5389 51.9336C40.7272 52.3881 41.0031 52.8011 41.351 53.149C41.6989 53.4969 42.1119 53.7728 42.5664 53.9611C43.0209 54.1494 43.508 54.2463 44 54.2463C44.9936 54.2463 45.9464 53.8516 46.649 53.149C47.3516 52.4464 47.7463 51.4936 47.7463 50.5C47.7463 49.5064 47.3516 48.5536 46.649 47.851C45.9464 47.1484 44.9936 46.7538 44 46.7538ZM52.4375 48.625C51.6916 48.625 50.9762 48.9213 50.4488 49.4488C49.9213 49.9762 49.625 50.6916 49.625 51.4375C49.625 52.1834 49.9213 52.8988 50.4488 53.4262C50.9762 53.9537 51.6916 54.25 52.4375 54.25C53.1834 54.25 53.8988 53.9537 54.4262 53.4262C54.9537 52.8988 55.25 52.1834 55.25 51.4375C55.25 50.6916 54.9537 49.9762 54.4262 49.4488C53.8988 48.9213 53.1834 48.625 52.4375 48.625ZM35.5625 48.625C34.8166 48.625 34.1012 48.9213 33.5738 49.4488C33.0463 49.9762 32.75 50.6916 32.75 51.4375C32.75 52.1834 33.0463 52.8988 33.5738 53.4262C34.1012 53.9537 34.8166 54.25 35.5625 54.25C36.3084 54.25 37.0238 53.9537 37.5512 53.4262C38.0787 52.8988 38.375 52.1834 38.375 51.4375C38.375 50.6916 38.0787 49.9762 37.5512 49.4488C37.0238 48.9213 36.3084 48.625 35.5625 48.625ZM38.375 57.9869C38.3785 57.4919 38.5775 57.0183 38.9288 56.6695C39.28 56.3207 39.755 56.125 40.25 56.125H47.75C48.2473 56.125 48.7242 56.3225 49.0758 56.6742C49.4275 57.0258 49.625 57.5027 49.625 58V63.625C49.6255 64.2152 49.5331 64.8017 49.3512 65.3631C48.9361 66.6357 48.0808 67.7186 46.9391 68.4173C45.7973 69.1161 44.4439 69.3849 43.1218 69.1755C41.7997 68.9662 40.5955 68.2923 39.7255 67.275C38.8555 66.2577 38.3767 64.9636 38.375 63.625V57.9869ZM36.5 58C36.5 57.3156 36.6819 56.6763 37.0025 56.125H32.75C32.2527 56.125 31.7758 56.3225 31.4242 56.6742C31.0725 57.0258 30.875 57.5027 30.875 58V62.6875C30.8747 63.455 31.0629 64.2107 31.423 64.8884C31.7831 65.5662 32.3041 66.1451 32.9402 66.5744C33.5763 67.0038 34.3081 67.2704 35.0714 67.3508C35.8346 67.4312 36.6059 67.323 37.3175 67.0356C36.779 65.9788 36.4988 64.8093 36.5 63.6231V58ZM51.5 58V63.625C51.5 64.8531 51.2056 66.0119 50.6825 67.0356C51.3941 67.323 52.1654 67.4312 52.9286 67.3508C53.6919 67.2704 54.4237 67.0038 55.0598 66.5744C55.6959 66.1451 56.2169 65.5662 56.577 64.8884C56.9371 64.2107 57.1253 63.455 57.125 62.6875V58C57.125 57.5027 56.9275 57.0258 56.5758 56.6742C56.2242 56.3225 55.7473 56.125 55.25 56.125H50.9975C51.3162 56.6763 51.5 57.3156 51.5 58Z" fill="#00205B"/>
<path d="M71.1458 39.2083C70.5657 39.2083 70.0093 38.9779 69.599 38.5676C69.1888 38.1574 68.9583 37.601 68.9583 37.0208C68.9583 36.4407 69.1888 35.8843 69.599 35.474C70.0093 35.0638 70.5657 34.8333 71.1458 34.8333C71.726 34.8333 72.2824 35.0638 72.6926 35.474C73.1029 35.8843 73.3333 36.4407 73.3333 37.0208C73.3333 37.601 73.1029 38.1574 72.6926 38.5676C72.2824 38.9779 71.726 39.2083 71.1458 39.2083ZM71.1458 39.2083V50.1458C71.1458 52.1817 71.1458 53.1996 70.895 54.025C70.6169 54.9433 70.1166 55.7787 69.4384 56.4574C68.7602 57.1361 67.9251 57.637 67.0071 57.9158C66.1788 58.1667 65.1608 58.1667 63.125 58.1667M17.1875 77.125C17.7677 77.125 18.3241 77.3555 18.7343 77.7657C19.1445 78.1759 19.375 78.7323 19.375 79.3125C19.375 79.8927 19.1445 80.4491 18.7343 80.8593C18.3241 81.2695 17.7677 81.5 17.1875 81.5C16.6073 81.5 16.0509 81.2695 15.6407 80.8593C15.2305 80.4491 15 79.8927 15 79.3125C15 78.7323 15.2305 78.1759 15.6407 77.7657C16.0509 77.3555 16.6073 77.125 17.1875 77.125ZM17.1875 77.125V66.1875C17.1875 64.1517 17.1875 63.1338 17.4383 62.3083C17.7164 61.3901 18.2167 60.5546 18.8949 59.8759C19.5731 59.1972 20.4082 58.6963 21.3263 58.4175C22.1546 58.1667 23.1725 58.1667 25.2083 58.1667M25.2083 31.1875C25.2083 31.7677 24.9779 32.3241 24.5676 32.7343C24.1574 33.1445 23.601 33.375 23.0208 33.375C22.4407 33.375 21.8843 33.1445 21.474 32.7343C21.0638 32.3241 20.8333 31.7677 20.8333 31.1875C20.8333 30.6073 21.0638 30.0509 21.474 29.6407C21.8843 29.2305 22.4407 29 23.0208 29C23.601 29 24.1574 29.2305 24.5676 29.6407C24.9779 30.0509 25.2083 30.6073 25.2083 31.1875ZM25.2083 31.1875H36.1458C38.1817 31.1875 39.1996 31.1875 40.025 31.4383C40.9433 31.7164 41.7787 32.2167 42.4574 32.8949C43.1361 33.5731 43.637 34.4082 43.9158 35.3263C44.1667 36.1546 44.1667 37.1725 44.1667 39.2083M63.125 85.1458C63.125 84.5657 63.3555 84.0093 63.7657 83.599C64.1759 83.1888 64.7323 82.9583 65.3125 82.9583C65.8927 82.9583 66.4491 83.1888 66.8593 83.599C67.2695 84.0093 67.5 84.5657 67.5 85.1458C67.5 85.726 67.2695 86.2824 66.8593 86.6926C66.4491 87.1029 65.8927 87.3333 65.3125 87.3333C64.7323 87.3333 64.1759 87.1029 63.7657 86.6926C63.3555 86.2824 63.125 85.726 63.125 85.1458ZM63.125 85.1458H52.1875C50.1517 85.1458 49.1338 85.1458 48.3083 84.895C47.3901 84.6169 46.5546 84.1166 45.8759 83.4384C45.1972 82.7602 44.6963 81.9251 44.4175 81.0071C44.1667 80.1788 44.1667 79.1608 44.1667 77.125" stroke="#00205B" stroke-width="2" stroke-linecap="round" stroke-linejoin="round"/>
<path d="M25.3513 58.0238C25.3513 49.0871 25.3513 44.6188 28.128 41.8421C30.9047 39.0654 35.373 39.0654 44.3097 39.0654C53.2463 39.0654 57.7147 39.0654 60.4913 41.8421C63.268 44.6188 63.268 49.0871 63.268 58.0238C63.268 66.9604 63.268 71.4288 60.4913 74.2054C57.7147 76.9821 53.2463 76.9821 44.3097 76.9821C35.373 76.9821 30.9047 76.9821 28.128 74.2054C25.3513 71.4288 25.3513 66.9604 25.3513 58.0238Z" stroke="#00205B" stroke-width="2" stroke-linecap="round" stroke-linejoin="round"/>
<path d="M44.5 0C55.1847 0 64.8897 1.01138 71.9512 2.66211C75.4738 3.48557 78.3941 4.48049 80.458 5.62109C81.4896 6.19126 82.3543 6.82313 82.9707 7.52734C83.5927 8.238 84 9.06959 84 10V91C84 91.9204 83.6003 92.7722 82.998 93.5244C82.3959 94.2765 81.5461 94.9875 80.5186 95.6543C78.4625 96.9885 75.5465 98.2415 72.0156 99.3203C64.9419 101.482 55.2171 103 44.5 103C33.7829 103 24.0581 101.482 16.9844 99.3203C13.4535 98.2415 10.5375 96.9885 8.48145 95.6543C7.4539 94.9875 6.60413 94.2765 6.00195 93.5244C5.39973 92.7722 5 91.9204 5 91V10C5 9.06959 5.40726 8.238 6.0293 7.52734C6.64573 6.82313 7.51037 6.19126 8.54199 5.62109C10.6059 4.48049 13.5262 3.48557 17.0488 2.66211C24.1103 1.01138 33.8153 0 44.5 0ZM82 13.373C81.5456 13.7276 81.0282 14.0638 80.458 14.3789C78.3941 15.5195 75.4738 16.5144 71.9512 17.3379C64.8897 18.9886 55.1847 20 44.5 20C33.8153 20 24.1103 18.9886 17.0488 17.3379C13.5262 16.5144 10.6059 15.5195 8.54199 14.3789C7.97185 14.0638 7.45442 13.7276 7 13.373V91C7 91.3221 7.13924 91.7456 7.5625 92.2744C7.98603 92.8034 8.64966 93.3791 9.57031 93.9766C11.4106 95.1707 14.1324 96.3574 17.5684 97.4072C24.4288 99.5033 33.9542 101 44.5 101C55.0458 101 64.5712 99.5033 71.4316 97.4072C74.8676 96.3574 77.5894 95.1707 79.4297 93.9766C80.3503 93.3791 81.014 92.8034 81.4375 92.2744C81.8608 91.7456 82 91.3221 82 91V13.373ZM44.5 2C33.9218 2 24.3767 3.00276 17.5039 4.60938C14.0596 5.41455 11.3413 6.35927 9.50879 7.37207C8.5924 7.87858 7.9434 8.37724 7.53418 8.84473C7.13067 9.30574 7 9.68785 7 10C7 10.3121 7.13067 10.6943 7.53418 11.1553C7.9434 11.6228 8.5924 12.1214 9.50879 12.6279C11.3413 13.6407 14.0596 14.5855 17.5039 15.3906C24.3767 16.9972 33.9218 18 44.5 18C55.0782 18 64.6233 16.9972 71.4961 15.3906C74.9404 14.5855 77.6587 13.6407 79.4912 12.6279C80.4076 12.1214 81.0566 11.6228 81.4658 11.1553C81.8693 10.6943 82 10.3121 82 10C82 9.68785 81.8693 9.30574 81.4658 8.84473C81.0566 8.37724 80.4076 7.87858 79.4912 7.37207C77.6587 6.35927 74.9404 5.41455 71.4961 4.60938C64.6233 3.00276 55.0782 2 44.5 2Z" fill="#00205B"/>
<path fill-rule="evenodd" clip-rule="evenodd" d="M77.9997 66C77.802 66 77.6087 66.0587 77.4443 66.1686C77.2799 66.2785 77.1517 66.4346 77.076 66.6173C77.0004 66.8 76.9806 67.0011 77.0191 67.195C77.0577 67.389 77.1529 67.5671 77.2927 67.707L82.2927 72.707C82.4803 72.8945 82.7346 72.9998 82.9997 72.9998C83.2649 72.9998 83.5192 72.8945 83.7067 72.707L88.7067 67.707C88.8465 67.5671 88.9417 67.389 88.9803 67.195C89.0189 67.0011 88.9991 66.8 88.9234 66.6173C88.8477 66.4346 88.7196 66.2785 88.5552 66.1686C88.3908 66.0587 88.1975 66 87.9997 66H77.9997Z" fill="#00205B"/>
<path fill-rule="evenodd" clip-rule="evenodd" d="M10.9998 42.9998C11.1975 42.9997 11.3908 42.9411 11.5552 42.8312C11.7197 42.7213 11.8478 42.5651 11.9235 42.3824C11.9991 42.1997 12.0189 41.9987 11.9804 41.8048C11.9418 41.6108 11.8466 41.4326 11.7068 41.2928L6.70679 36.2928C6.51926 36.1053 6.26495 36 5.99979 36C5.73462 36 5.48031 36.1053 5.29279 36.2928L0.292787 41.2928C0.152978 41.4326 0.057771 41.6108 0.0192034 41.8048C-0.0193641 41.9987 0.000439122 42.1997 0.0761092 42.3824C0.151779 42.5651 0.279919 42.7213 0.444329 42.8312C0.608738 42.9411 0.802037 42.9997 0.999787 42.9998H10.9998Z" fill="#00205B"/>
<path d="M116.004 40.2227H120.105C120.051 41.4102 119.73 42.457 119.145 43.3633C118.559 44.2695 117.746 44.9766 116.707 45.4844C115.676 45.9844 114.457 46.2344 113.051 46.2344C111.91 46.2344 110.891 46.043 109.992 45.6602C109.102 45.2773 108.344 44.7266 107.719 44.0078C107.102 43.2891 106.629 42.418 106.301 41.3945C105.98 40.3711 105.82 39.2188 105.82 37.9375V37.0117C105.82 35.7305 105.988 34.5781 106.324 33.5547C106.668 32.5234 107.152 31.6484 107.777 30.9297C108.41 30.2031 109.168 29.6484 110.051 29.2656C110.934 28.8828 111.914 28.6914 112.992 28.6914C114.477 28.6914 115.73 28.957 116.754 29.4883C117.777 30.0195 118.57 30.75 119.133 31.6797C119.695 32.6016 120.027 33.6523 120.129 34.832H116.027C116.012 34.1914 115.902 33.6562 115.699 33.2266C115.496 32.7891 115.176 32.4609 114.738 32.2422C114.301 32.0234 113.719 31.9141 112.992 31.9141C112.484 31.9141 112.043 32.0078 111.668 32.1953C111.293 32.3828 110.98 32.6797 110.73 33.0859C110.48 33.4922 110.293 34.0195 110.168 34.668C110.051 35.3086 109.992 36.082 109.992 36.9883V37.9375C109.992 38.8438 110.047 39.6172 110.156 40.2578C110.266 40.8984 110.441 41.4219 110.684 41.8281C110.926 42.2344 111.238 42.5352 111.621 42.7305C112.012 42.918 112.488 43.0117 113.051 43.0117C113.676 43.0117 114.203 42.9141 114.633 42.7188C115.062 42.5156 115.395 42.2109 115.629 41.8047C115.863 41.3906 115.988 40.8633 116.004 40.2227ZM136.488 37.1289V37.8203C136.488 39.125 136.305 40.2969 135.938 41.3359C135.578 42.3672 135.066 43.25 134.402 43.9844C133.738 44.7109 132.953 45.2695 132.047 45.6602C131.141 46.043 130.141 46.2344 129.047 46.2344C127.945 46.2344 126.938 46.043 126.023 45.6602C125.117 45.2695 124.328 44.7109 123.656 43.9844C122.992 43.25 122.477 42.3672 122.109 41.3359C121.75 40.2969 121.57 39.125 121.57 37.8203V37.1289C121.57 35.8242 121.75 34.6523 122.109 33.6133C122.477 32.5742 122.988 31.6914 123.645 30.9648C124.309 30.2305 125.094 29.6719 126 29.2891C126.914 28.8984 127.922 28.7031 129.023 28.7031C130.117 28.7031 131.117 28.8984 132.023 29.2891C132.938 29.6719 133.727 30.2305 134.391 30.9648C135.055 31.6914 135.57 32.5742 135.938 33.6133C136.305 34.6523 136.488 35.8242 136.488 37.1289ZM132.316 37.8203V37.1055C132.316 36.2617 132.242 35.5195 132.094 34.8789C131.953 34.2305 131.742 33.6875 131.461 33.25C131.18 32.8125 130.832 32.4844 130.418 32.2656C130.012 32.0391 129.547 31.9258 129.023 31.9258C128.477 31.9258 128 32.0391 127.594 32.2656C127.188 32.4844 126.848 32.8125 126.574 33.25C126.301 33.6875 126.094 34.2305 125.953 34.8789C125.82 35.5195 125.754 36.2617 125.754 37.1055V37.8203C125.754 38.6562 125.82 39.3984 125.953 40.0469C126.094 40.6875 126.301 41.2305 126.574 41.6758C126.855 42.1211 127.199 42.457 127.605 42.6836C128.02 42.9102 128.5 43.0234 129.047 43.0234C129.57 43.0234 130.035 42.9102 130.441 42.6836C130.848 42.457 131.188 42.1211 131.461 41.6758C131.742 41.2305 131.953 40.6875 132.094 40.0469C132.242 39.3984 132.316 38.6562 132.316 37.8203ZM150.117 35.7109V38.875H141.363V35.7109H150.117ZM142.734 28.9375V46H138.621V28.9375H142.734ZM152.883 28.9375V46H148.781V28.9375H152.883ZM169.934 37.1289V37.8203C169.934 39.125 169.75 40.2969 169.383 41.3359C169.023 42.3672 168.512 43.25 167.848 43.9844C167.184 44.7109 166.398 45.2695 165.492 45.6602C164.586 46.043 163.586 46.2344 162.492 46.2344C161.391 46.2344 160.383 46.043 159.469 45.6602C158.562 45.2695 157.773 44.7109 157.102 43.9844C156.438 43.25 155.922 42.3672 155.555 41.3359C155.195 40.2969 155.016 39.125 155.016 37.8203V37.1289C155.016 35.8242 155.195 34.6523 155.555 33.6133C155.922 32.5742 156.434 31.6914 157.09 30.9648C157.754 30.2305 158.539 29.6719 159.445 29.2891C160.359 28.8984 161.367 28.7031 162.469 28.7031C163.562 28.7031 164.562 28.8984 165.469 29.2891C166.383 29.6719 167.172 30.2305 167.836 30.9648C168.5 31.6914 169.016 32.5742 169.383 33.6133C169.75 34.6523 169.934 35.8242 169.934 37.1289ZM165.762 37.8203V37.1055C165.762 36.2617 165.688 35.5195 165.539 34.8789C165.398 34.2305 165.188 33.6875 164.906 33.25C164.625 32.8125 164.277 32.4844 163.863 32.2656C163.457 32.0391 162.992 31.9258 162.469 31.9258C161.922 31.9258 161.445 32.0391 161.039 32.2656C160.633 32.4844 160.293 32.8125 160.02 33.25C159.746 33.6875 159.539 34.2305 159.398 34.8789C159.266 35.5195 159.199 36.2617 159.199 37.1055V37.8203C159.199 38.6562 159.266 39.3984 159.398 40.0469C159.539 40.6875 159.746 41.2305 160.02 41.6758C160.301 42.1211 160.645 42.457 161.051 42.6836C161.465 42.9102 161.945 43.0234 162.492 43.0234C163.016 43.0234 163.48 42.9102 163.887 42.6836C164.293 42.457 164.633 42.1211 164.906 41.6758C165.188 41.2305 165.398 40.6875 165.539 40.0469C165.688 39.3984 165.762 38.6562 165.762 37.8203ZM172.066 28.9375H178.781C180.094 28.9375 181.234 29.1328 182.203 29.5234C183.172 29.9141 183.918 30.4922 184.441 31.2578C184.973 32.0234 185.238 32.9688 185.238 34.0938C185.238 35.0703 185.086 35.8867 184.781 36.543C184.477 37.1992 184.051 37.7422 183.504 38.1719C182.965 38.5938 182.336 38.9414 181.617 39.2148L180.27 39.9766H174.633L174.609 36.8008H178.781C179.305 36.8008 179.738 36.707 180.082 36.5195C180.426 36.332 180.684 36.0664 180.855 35.7227C181.035 35.3711 181.125 34.9531 181.125 34.4688C181.125 33.9766 181.035 33.5547 180.855 33.2031C180.676 32.8516 180.41 32.582 180.059 32.3945C179.715 32.207 179.289 32.1133 178.781 32.1133H176.18V46H172.066V28.9375ZM181.406 46L177.633 38.4531L181.992 38.4297L185.812 45.8242V46H181.406ZM195.398 28.9375V46H191.285V28.9375H195.398ZM200.531 28.9375V32.1133H186.27V28.9375H200.531ZM214.781 32.5234L210.621 46H206.203L212.473 28.9375H215.273L214.781 32.5234ZM218.227 46L214.055 32.5234L213.516 28.9375H216.352L222.656 46H218.227ZM218.062 39.6367V42.8125H209.309V39.6367H218.062ZM238.16 28.9375V46H234.059L228.023 35.3828V46H223.91V28.9375H228.023L234.059 39.5547V28.9375H238.16ZM248.203 32.5234L244.043 46H239.625L245.895 28.9375H248.695L248.203 32.5234ZM251.648 46L247.477 32.5234L246.938 28.9375H249.773L256.078 46H251.648ZM251.484 39.6367V42.8125H242.73V39.6367H251.484ZM268.605 42.8359V46H259.98V42.8359H268.605ZM261.445 28.9375V46H257.332V28.9375H261.445ZM270.152 28.9375L273.293 36.3438L276.445 28.9375H280.875L275.391 39.8711V46H271.207V39.8711L265.711 28.9375H270.152ZM290.73 41.4648C290.73 41.1992 290.691 40.9609 290.613 40.75C290.535 40.5312 290.391 40.3281 290.18 40.1406C289.969 39.9531 289.664 39.7656 289.266 39.5781C288.875 39.3828 288.359 39.1797 287.719 38.9688C286.969 38.7188 286.246 38.4375 285.551 38.125C284.855 37.8047 284.234 37.4336 283.688 37.0117C283.141 36.582 282.707 36.082 282.387 35.5117C282.066 34.9336 281.906 34.2617 281.906 33.4961C281.906 32.7617 282.07 32.1016 282.398 31.5156C282.727 30.9219 283.184 30.418 283.77 30.0039C284.363 29.582 285.059 29.2617 285.855 29.043C286.652 28.8164 287.523 28.7031 288.469 28.7031C289.719 28.7031 290.82 28.9219 291.773 29.3594C292.734 29.7891 293.484 30.4023 294.023 31.1992C294.57 31.9883 294.844 32.9219 294.844 34H290.754C290.754 33.5703 290.664 33.1914 290.484 32.8633C290.312 32.5352 290.051 32.2773 289.699 32.0898C289.348 31.9023 288.906 31.8086 288.375 31.8086C287.859 31.8086 287.426 31.8867 287.074 32.043C286.723 32.1992 286.457 32.4102 286.277 32.6758C286.098 32.9336 286.008 33.2188 286.008 33.5312C286.008 33.7891 286.078 34.0234 286.219 34.2344C286.367 34.4375 286.574 34.6289 286.84 34.8086C287.113 34.9883 287.441 35.1602 287.824 35.3242C288.215 35.4883 288.652 35.6484 289.137 35.8047C290.043 36.0938 290.848 36.418 291.551 36.7773C292.262 37.1289 292.859 37.5312 293.344 37.9844C293.836 38.4297 294.207 38.9375 294.457 39.5078C294.715 40.0781 294.844 40.7227 294.844 41.4414C294.844 42.207 294.695 42.8867 294.398 43.4805C294.102 44.0742 293.676 44.5781 293.121 44.9922C292.566 45.3984 291.902 45.707 291.129 45.918C290.355 46.1289 289.492 46.2344 288.539 46.2344C287.664 46.2344 286.801 46.125 285.949 45.9062C285.105 45.6797 284.34 45.3359 283.652 44.875C282.965 44.4062 282.414 43.8086 282 43.082C281.594 42.3477 281.391 41.4766 281.391 40.4688H285.516C285.516 40.9688 285.582 41.3906 285.715 41.7344C285.848 42.0781 286.043 42.3555 286.301 42.5664C286.559 42.7695 286.875 42.918 287.25 43.0117C287.625 43.0977 288.055 43.1406 288.539 43.1406C289.062 43.1406 289.484 43.0664 289.805 42.918C290.125 42.7617 290.359 42.5586 290.508 42.3086C290.656 42.0508 290.73 41.7695 290.73 41.4648ZM301.336 28.9375V46H297.234V28.9375H301.336ZM313.02 41.4648C313.02 41.1992 312.98 40.9609 312.902 40.75C312.824 40.5312 312.68 40.3281 312.469 40.1406C312.258 39.9531 311.953 39.7656 311.555 39.5781C311.164 39.3828 310.648 39.1797 310.008 38.9688C309.258 38.7188 308.535 38.4375 307.84 38.125C307.145 37.8047 306.523 37.4336 305.977 37.0117C305.43 36.582 304.996 36.082 304.676 35.5117C304.355 34.9336 304.195 34.2617 304.195 33.4961C304.195 32.7617 304.359 32.1016 304.688 31.5156C305.016 30.9219 305.473 30.418 306.059 30.0039C306.652 29.582 307.348 29.2617 308.145 29.043C308.941 28.8164 309.812 28.7031 310.758 28.7031C312.008 28.7031 313.109 28.9219 314.062 29.3594C315.023 29.7891 315.773 30.4023 316.312 31.1992C316.859 31.9883 317.133 32.9219 317.133 34H313.043C313.043 33.5703 312.953 33.1914 312.773 32.8633C312.602 32.5352 312.34 32.2773 311.988 32.0898C311.637 31.9023 311.195 31.8086 310.664 31.8086C310.148 31.8086 309.715 31.8867 309.363 32.043C309.012 32.1992 308.746 32.4102 308.566 32.6758C308.387 32.9336 308.297 33.2188 308.297 33.5312C308.297 33.7891 308.367 34.0234 308.508 34.2344C308.656 34.4375 308.863 34.6289 309.129 34.8086C309.402 34.9883 309.73 35.1602 310.113 35.3242C310.504 35.4883 310.941 35.6484 311.426 35.8047C312.332 36.0938 313.137 36.418 313.84 36.7773C314.551 37.1289 315.148 37.5312 315.633 37.9844C316.125 38.4297 316.496 38.9375 316.746 39.5078C317.004 40.0781 317.133 40.7227 317.133 41.4414C317.133 42.207 316.984 42.8867 316.688 43.4805C316.391 44.0742 315.965 44.5781 315.41 44.9922C314.855 45.3984 314.191 45.707 313.418 45.918C312.645 46.1289 311.781 46.2344 310.828 46.2344C309.953 46.2344 309.09 46.125 308.238 45.9062C307.395 45.6797 306.629 45.3359 305.941 44.875C305.254 44.4062 304.703 43.8086 304.289 43.082C303.883 42.3477 303.68 41.4766 303.68 40.4688H307.805C307.805 40.9688 307.871 41.3906 308.004 41.7344C308.137 42.0781 308.332 42.3555 308.59 42.5664C308.848 42.7695 309.164 42.918 309.539 43.0117C309.914 43.0977 310.344 43.1406 310.828 43.1406C311.352 43.1406 311.773 43.0664 312.094 42.918C312.414 42.7617 312.648 42.5586 312.797 42.3086C312.945 42.0508 313.02 41.7695 313.02 41.4648Z" fill="#00205B"/>
<path d="M111.598 74H108.035L108.059 72.1602H111.598C112.816 72.1602 113.832 71.9062 114.645 71.3984C115.457 70.8828 116.066 70.1641 116.473 69.2422C116.887 68.3125 117.094 67.2266 117.094 65.9844V64.9414C117.094 63.9648 116.977 63.0977 116.742 62.3398C116.508 61.5742 116.164 60.9297 115.711 60.4062C115.258 59.875 114.703 59.4727 114.047 59.1992C113.398 58.9258 112.652 58.7891 111.809 58.7891H107.965V56.9375H111.809C112.926 56.9375 113.945 57.125 114.867 57.5C115.789 57.8672 116.582 58.4023 117.246 59.1055C117.918 59.8008 118.434 60.6445 118.793 61.6367C119.152 62.6211 119.332 63.7305 119.332 64.9648V65.9844C119.332 67.2188 119.152 68.332 118.793 69.3242C118.434 70.3086 117.914 71.1484 117.234 71.8438C116.562 72.5391 115.75 73.0742 114.797 73.4492C113.852 73.8164 112.785 74 111.598 74ZM109.242 56.9375V74H106.98V56.9375H109.242ZM128.789 58.4492L123.141 74H120.832L127.336 56.9375H128.824L128.789 58.4492ZM133.523 74L127.863 58.4492L127.828 56.9375H129.316L135.844 74H133.523ZM133.23 67.6836V69.5352H123.645V67.6836H133.23ZM142.91 56.9375V74H140.684V56.9375H142.91ZM148.395 56.9375V58.7891H135.211V56.9375H148.395ZM156.305 58.4492L150.656 74H148.348L154.852 56.9375H156.34L156.305 58.4492ZM161.039 74L155.379 58.4492L155.344 56.9375H156.832L163.359 74H161.039ZM160.746 67.6836V69.5352H151.16V67.6836H160.746ZM181.898 68.5742H184.148C184.031 69.6523 183.723 70.6172 183.223 71.4688C182.723 72.3203 182.016 72.9961 181.102 73.4961C180.188 73.9883 179.047 74.2344 177.68 74.2344C176.68 74.2344 175.77 74.0469 174.949 73.6719C174.137 73.2969 173.438 72.7656 172.852 72.0781C172.266 71.3828 171.812 70.5508 171.492 69.582C171.18 68.6055 171.023 67.5195 171.023 66.3242V64.625C171.023 63.4297 171.18 62.3477 171.492 61.3789C171.812 60.4023 172.27 59.5664 172.863 58.8711C173.465 58.1758 174.188 57.6406 175.031 57.2656C175.875 56.8906 176.824 56.7031 177.879 56.7031C179.168 56.7031 180.258 56.9453 181.148 57.4297C182.039 57.9141 182.73 58.5859 183.223 59.4453C183.723 60.2969 184.031 61.2852 184.148 62.4102H181.898C181.789 61.6133 181.586 60.9297 181.289 60.3594C180.992 59.7812 180.57 59.3359 180.023 59.0234C179.477 58.7109 178.762 58.5547 177.879 58.5547C177.121 58.5547 176.453 58.6992 175.875 58.9883C175.305 59.2773 174.824 59.6875 174.434 60.2188C174.051 60.75 173.762 61.3867 173.566 62.1289C173.371 62.8711 173.273 63.6953 173.273 64.6016V66.3242C173.273 67.1602 173.359 67.9453 173.531 68.6797C173.711 69.4141 173.98 70.0586 174.34 70.6133C174.699 71.168 175.156 71.6055 175.711 71.9258C176.266 72.2383 176.922 72.3945 177.68 72.3945C178.641 72.3945 179.406 72.2422 179.977 71.9375C180.547 71.6328 180.977 71.1953 181.266 70.625C181.562 70.0547 181.773 69.3711 181.898 68.5742ZM200.367 64.9297V66.0078C200.367 67.2891 200.207 68.4375 199.887 69.4531C199.566 70.4688 199.105 71.332 198.504 72.043C197.902 72.7539 197.18 73.2969 196.336 73.6719C195.5 74.0469 194.562 74.2344 193.523 74.2344C192.516 74.2344 191.59 74.0469 190.746 73.6719C189.91 73.2969 189.184 72.7539 188.566 72.043C187.957 71.332 187.484 70.4688 187.148 69.4531C186.812 68.4375 186.645 67.2891 186.645 66.0078V64.9297C186.645 63.6484 186.809 62.5039 187.137 61.4961C187.473 60.4805 187.945 59.6172 188.555 58.9062C189.164 58.1875 189.887 57.6406 190.723 57.2656C191.566 56.8906 192.492 56.7031 193.5 56.7031C194.539 56.7031 195.477 56.8906 196.312 57.2656C197.156 57.6406 197.879 58.1875 198.48 58.9062C199.09 59.6172 199.555 60.4805 199.875 61.4961C200.203 62.5039 200.367 63.6484 200.367 64.9297ZM198.129 66.0078V64.9062C198.129 63.8906 198.023 62.9922 197.812 62.2109C197.609 61.4297 197.309 60.7734 196.91 60.2422C196.512 59.7109 196.023 59.3086 195.445 59.0352C194.875 58.7617 194.227 58.625 193.5 58.625C192.797 58.625 192.16 58.7617 191.59 59.0352C191.027 59.3086 190.543 59.7109 190.137 60.2422C189.738 60.7734 189.43 61.4297 189.211 62.2109C188.992 62.9922 188.883 63.8906 188.883 64.9062V66.0078C188.883 67.0312 188.992 67.9375 189.211 68.7266C189.43 69.5078 189.742 70.168 190.148 70.707C190.562 71.2383 191.051 71.6406 191.613 71.9141C192.184 72.1875 192.82 72.3242 193.523 72.3242C194.258 72.3242 194.91 72.1875 195.48 71.9141C196.051 71.6406 196.531 71.2383 196.922 70.707C197.32 70.168 197.621 69.5078 197.824 68.7266C198.027 67.9375 198.129 67.0312 198.129 66.0078ZM204.469 56.9375H206.66L212.25 70.8477L217.828 56.9375H220.031L213.094 74H211.383L204.469 56.9375ZM203.754 56.9375H205.688L206.004 67.3438V74H203.754V56.9375ZM218.801 56.9375H220.734V74H218.484V67.3438L218.801 56.9375ZM225.422 56.9375H227.613L233.203 70.8477L238.781 56.9375H240.984L234.047 74H232.336L225.422 56.9375ZM224.707 56.9375H226.641L226.957 67.3438V74H224.707V56.9375ZM239.754 56.9375H241.688V74H239.438V67.3438L239.754 56.9375ZM258.797 64.9297V66.0078C258.797 67.2891 258.637 68.4375 258.316 69.4531C257.996 70.4688 257.535 71.332 256.934 72.043C256.332 72.7539 255.609 73.2969 254.766 73.6719C253.93 74.0469 252.992 74.2344 251.953 74.2344C250.945 74.2344 250.02 74.0469 249.176 73.6719C248.34 73.2969 247.613 72.7539 246.996 72.043C246.387 71.332 245.914 70.4688 245.578 69.4531C245.242 68.4375 245.074 67.2891 245.074 66.0078V64.9297C245.074 63.6484 245.238 62.5039 245.566 61.4961C245.902 60.4805 246.375 59.6172 246.984 58.9062C247.594 58.1875 248.316 57.6406 249.152 57.2656C249.996 56.8906 250.922 56.7031 251.93 56.7031C252.969 56.7031 253.906 56.8906 254.742 57.2656C255.586 57.6406 256.309 58.1875 256.91 58.9062C257.52 59.6172 257.984 60.4805 258.305 61.4961C258.633 62.5039 258.797 63.6484 258.797 64.9297ZM256.559 66.0078V64.9062C256.559 63.8906 256.453 62.9922 256.242 62.2109C256.039 61.4297 255.738 60.7734 255.34 60.2422C254.941 59.7109 254.453 59.3086 253.875 59.0352C253.305 58.7617 252.656 58.625 251.93 58.625C251.227 58.625 250.59 58.7617 250.02 59.0352C249.457 59.3086 248.973 59.7109 248.566 60.2422C248.168 60.7734 247.859 61.4297 247.641 62.2109C247.422 62.9922 247.312 63.8906 247.312 64.9062V66.0078C247.312 67.0312 247.422 67.9375 247.641 68.7266C247.859 69.5078 248.172 70.168 248.578 70.707C248.992 71.2383 249.48 71.6406 250.043 71.9141C250.613 72.1875 251.25 72.3242 251.953 72.3242C252.688 72.3242 253.34 72.1875 253.91 71.9141C254.48 71.6406 254.961 71.2383 255.352 70.707C255.75 70.168 256.051 69.5078 256.254 68.7266C256.457 67.9375 256.559 67.0312 256.559 66.0078ZM275.309 56.9375V74H273.035L264.445 60.8398V74H262.184V56.9375H264.445L273.07 70.1328V56.9375H275.309ZM288.41 69.6875C288.41 69.2891 288.348 68.9375 288.223 68.6328C288.105 68.3203 287.895 68.0391 287.59 67.7891C287.293 67.5391 286.879 67.3008 286.348 67.0742C285.824 66.8477 285.16 66.6172 284.355 66.3828C283.512 66.1328 282.75 65.8555 282.07 65.5508C281.391 65.2383 280.809 64.8828 280.324 64.4844C279.84 64.0859 279.469 63.6289 279.211 63.1133C278.953 62.5977 278.824 62.0078 278.824 61.3438C278.824 60.6797 278.961 60.0664 279.234 59.5039C279.508 58.9414 279.898 58.4531 280.406 58.0391C280.922 57.6172 281.535 57.2891 282.246 57.0547C282.957 56.8203 283.75 56.7031 284.625 56.7031C285.906 56.7031 286.992 56.9492 287.883 57.4414C288.781 57.9258 289.465 58.5625 289.934 59.3516C290.402 60.1328 290.637 60.9688 290.637 61.8594H288.387C288.387 61.2188 288.25 60.6523 287.977 60.1602C287.703 59.6602 287.289 59.2695 286.734 58.9883C286.18 58.6992 285.477 58.5547 284.625 58.5547C283.82 58.5547 283.156 58.6758 282.633 58.918C282.109 59.1602 281.719 59.4883 281.461 59.9023C281.211 60.3164 281.086 60.7891 281.086 61.3203C281.086 61.6797 281.16 62.0078 281.309 62.3047C281.465 62.5938 281.703 62.8633 282.023 63.1133C282.352 63.3633 282.766 63.5938 283.266 63.8047C283.773 64.0156 284.379 64.2188 285.082 64.4141C286.051 64.6875 286.887 64.9922 287.59 65.3281C288.293 65.6641 288.871 66.043 289.324 66.4648C289.785 66.8789 290.125 67.3516 290.344 67.8828C290.57 68.4062 290.684 69 290.684 69.6641C290.684 70.3594 290.543 70.9883 290.262 71.5508C289.98 72.1133 289.578 72.5938 289.055 72.9922C288.531 73.3906 287.902 73.6992 287.168 73.918C286.441 74.1289 285.629 74.2344 284.73 74.2344C283.941 74.2344 283.164 74.125 282.398 73.9062C281.641 73.6875 280.949 73.3594 280.324 72.9219C279.707 72.4844 279.211 71.9453 278.836 71.3047C278.469 70.6562 278.285 69.9062 278.285 69.0547H280.535C280.535 69.6406 280.648 70.1445 280.875 70.5664C281.102 70.9805 281.41 71.3242 281.801 71.5977C282.199 71.8711 282.648 72.0742 283.148 72.207C283.656 72.332 284.184 72.3945 284.73 72.3945C285.52 72.3945 286.188 72.2852 286.734 72.0664C287.281 71.8477 287.695 71.5352 287.977 71.1289C288.266 70.7227 288.41 70.2422 288.41 69.6875Z" fill="#5E6A71"/>
</svg>
