<?xml version="1.0" encoding="UTF-8" standalone="no"?>
<!-- Created with Inkscape (http://www.inkscape.org/) -->

<svg
   width="6.171701mm"
   height="3.0860975mm"
   viewBox="0 0 6.171701 3.0860975"
   version="1.1"
   id="svg1"
   xmlns="http://www.w3.org/2000/svg"
   xmlns:svg="http://www.w3.org/2000/svg">
  <defs
     id="defs1" />
  <g
     id="layer1"
     transform="translate(-59.46757,-36.06354)">
    <path
       d="m 60.778351,39.077671 c 0.08043,0 0.1397,-0.0635 0.1397,-0.1397 v -0.618066 h 0.1143 c 0.0762,0 0.1397,-0.05927 0.1397,-0.1397 0,-0.0762 -0.0635,-0.1397 -0.1397,-0.1397 h -0.1143 V 36.25404 c 0,-0.0635 -0.0381,-0.118533 -0.1016,-0.135466 -0.05927,-0.01693 -0.122767,0.0085 -0.156633,0.0635 l -1.172633,1.926166 c -0.0254,0.04233 -0.0254,0.09737 -0.0042,0.139699 0.0254,0.04657 0.07197,0.07197 0.122767,0.07197 h 1.032932 v 0.618066 c 0,0.0762 0.0635,0.1397 0.1397,0.1397 z m -0.922866,-1.037166 0.783166,-1.286932 v 1.286932 z m 2.697159,1.109133 c 0.512233,0 0.935566,-0.4191 0.935566,-0.935566 v -1.214966 c 0,-0.516466 -0.423333,-0.935566 -0.935566,-0.935566 -0.516466,0 -0.939799,0.4191 -0.939799,0.935566 v 1.214966 c 0,0.516466 0.423333,0.935566 0.939799,0.935566 z m 0,-2.806698 c 0.359833,0 0.656166,0.296333 0.656166,0.656166 v 1.214966 c 0,0.364066 -0.296333,0.656166 -0.656166,0.656166 -0.364066,0 -0.6604,-0.2921 -0.6604,-0.656166 v -1.214966 c 0,-0.359833 0.296334,-0.656166 0.6604,-0.656166 z m -0.338666,2.285998 c 0.05927,0 0.110066,-0.03387 0.131233,-0.09313 l 0.673099,-1.756832 c 0.0254,-0.07197 -0.0085,-0.1524 -0.08467,-0.182033 -0.07197,-0.0254 -0.1524,0.0085 -0.1778,0.08043 l -0.6731,1.761065 c -0.0254,0.07197 0.0127,0.1524 0.08467,0.182033 0.0127,0.0042 0.02963,0.0085 0.04657,0.0085 z m 2.86226,-1.316565 0.702733,-0.9652 c 0.02963,-0.04233 0.03387,-0.09737 0.0085,-0.143933 -0.02117,-0.04657 -0.07197,-0.0762 -0.122766,-0.0762 h -1.591732 c -0.0762,0 -0.1397,0.0635 -0.1397,0.1397 0,0.0762 0.0635,0.1397 0.1397,0.1397 h 1.320799 l -0.681566,0.931333 c -0.02963,0.04233 -0.03387,0.09737 -0.0085,0.143933 0.02117,0.04657 0.07197,0.0762 0.122767,0.0762 0.372533,0 0.694266,0.309033 0.694266,0.656166 0,0.364066 -0.2921,0.656166 -0.651933,0.656166 -0.364066,0 -0.656166,-0.2921 -0.656166,-0.656166 0,-0.0762 -0.0635,-0.1397 -0.1397,-0.1397 -0.0762,0 -0.1397,0.0635 -0.1397,0.1397 0,0.516466 0.414866,0.935566 0.931333,0.935566 h 0.0042 c 0.516466,0 0.931332,-0.4191 0.931332,-0.935566 0,-0.423333 -0.313266,-0.795866 -0.723899,-0.901699 z"
       id="text2"
       style="font-size:4.23333px;line-height:0.8;font-family:Gongo;-inkscape-font-specification:Gongo;letter-spacing:0.0132292px;word-spacing:0.00529167px;fill:#1a1a1a;stroke-width:0.2"
       aria-label="403" />
  </g>
</svg>
