<?xml version="1.0" encoding="UTF-8"?>
<!-- Created with Inkscape (http://www.inkscape.org/) -->
<svg width="682.67" height="682.67" version="1.1" viewBox="0 0 682.67 682.67" xml:space="preserve" xmlns="http://www.w3.org/2000/svg"><defs><clipPath id="clipPath1202"><path d="m0 512h512v-512h-512z"/></clipPath></defs><g transform="matrix(1.3333 0 0 -1.3333 0 682.67)"><g clip-path="url(#clipPath1202)"><g transform="translate(367.48 415.54)"><path d="m0 0c74.959-74.447 74.959-195.15 0-269.6-74.96-74.447-196.49-74.447-271.45 0s-74.96 195.15 0 269.6 196.49 74.447 271.45 0z" fill="none" stroke="#000" stroke-linecap="round" stroke-linejoin="round" stroke-miterlimit="10" stroke-width="20"/></g><g transform="translate(331.05 182.12)"><path d="m0 0c-54.75-54.376-143.84-54.376-198.59 0-54.75 54.375-54.751 142.85 0 197.23 54.75 54.376 143.84 54.376 198.59 0s54.75-142.85 0-197.23z" fill="none" stroke="#000" stroke-linecap="round" stroke-linejoin="round" stroke-miterlimit="10" stroke-width="20"/></g><g transform="translate(384.76 163.1)"><path d="m0 0 92.938-69.012c20.22-15.016 22.341-44.346 4.488-62.077s-47.385-15.624-62.504 4.458l-69.487 92.301" fill="none" stroke="#000" stroke-linecap="round" stroke-linejoin="round" stroke-miterlimit="10" stroke-width="20"/></g><g transform="translate(125.44 17.048)"><path d="m0 0c9.485 9.419 9.459 24.717-0.059 34.169-9.516 9.452-24.92 9.478-34.404 0.059-9.484-9.42-9.458-24.718 0.059-34.17 9.516-9.452 24.92-9.478 34.404-0.058z" fill="none" stroke="#000" stroke-linecap="round" stroke-linejoin="round" stroke-miterlimit="10" stroke-width="20"/></g><g transform="translate(125.84 51.674)"><path d="m0 0 47.064 46.742" fill="none" stroke="#000" stroke-linecap="round" stroke-linejoin="round" stroke-miterlimit="10" stroke-width="20"/></g><g transform="translate(94.036 184.42)"><path d="m0 0c-9.484-9.419-9.458-24.718 0.059-34.169 9.516-9.452 24.92-9.478 34.404-0.059 9.484 9.42 9.459 24.718-0.059 34.17-9.516 9.452-24.92 9.477-34.404 0.058z" fill="none" stroke="#000" stroke-linecap="round" stroke-linejoin="round" stroke-miterlimit="10" stroke-width="20"/></g><g transform="translate(93.635 149.8)"><path d="m0 0-48.772-48.439-27.192 7.223" fill="none" stroke="#000" stroke-linecap="round" stroke-linejoin="round" stroke-miterlimit="10" stroke-width="20"/></g><g transform="translate(371.01 494.95)"><path d="m0 0c-9.484-9.419-9.458-24.717 0.059-34.169 9.516-9.452 24.92-9.478 34.405-0.059 9.484 9.42 9.458 24.718-0.059 34.17s-24.921 9.478-34.405 0.058z" fill="none" stroke="#000" stroke-linecap="round" stroke-linejoin="round" stroke-miterlimit="10" stroke-width="20"/></g><g transform="translate(370.61 460.33)"><path d="m0 0-24.874-24.703" fill="none" stroke="#000" stroke-linecap="round" stroke-linejoin="round" stroke-miterlimit="10" stroke-width="20"/></g><g transform="translate(402.41 327.58)"><path d="m0 0c9.484 9.419 9.458 24.718-0.059 34.169-9.517 9.452-24.92 9.478-34.405 0.059-9.484-9.42-9.458-24.718 0.059-34.17 9.516-9.452 24.921-9.477 34.405-0.058z" fill="none" stroke="#000" stroke-linecap="round" stroke-linejoin="round" stroke-miterlimit="10" stroke-width="20"/></g><g transform="translate(402.81 362.2)"><path d="m0 0 48.772 48.439 27.191-7.223" fill="none" stroke="#000" stroke-linecap="round" stroke-linejoin="round" stroke-miterlimit="10" stroke-width="20"/></g><g transform="translate(182.85 238.68)"><path d="m0 0 26.699 69.622c0.545 1.325 2.434 1.327 2.982 3e-3l26.456-69.625" fill="none" stroke="#000" stroke-linecap="round" stroke-linejoin="round" stroke-miterlimit="10" stroke-width="20"/></g><g transform="translate(191.18 256.02)"><path d="m0 0h39.619" fill="none" stroke="#000" stroke-linecap="round" stroke-linejoin="round" stroke-miterlimit="10" stroke-width="20"/></g><g transform="translate(267.06 309.3)"><path d="m0 0v-70.617" fill="none" stroke="#000" stroke-linecap="round" stroke-linejoin="round" stroke-miterlimit="10" stroke-width="20"/></g><g transform="translate(438.36 75.045)"><path d="m0 0 14.811-14.81" fill="none" stroke="#000" stroke-linecap="round" stroke-linejoin="round" stroke-miterlimit="10" stroke-width="20"/></g></g></g></svg>
