<svg version="1.1" viewBox="131.1 85.321 315.67 294.22" xmlns="http://www.w3.org/2000/svg"><path d="m146.88 123.12h10v235.13h-10zm27.078-0.01h10v210.79h-10z"/><path transform="rotate(90 235.39 285.69)" d="m274.91 74.604h10v272.31h-10z"/><path transform="rotate(90 233.97 295.26)" d="m289.93 82.821h10v299.46h-10z"/><path transform="translate(2 7)" d="m219.22 230.79h6v61h-6zm8.687 0h6v61h-6z"/><path transform="translate(6.6 7)" d="m267.1 165.25h6v126.48h-6z" /><path transform="translate(6.6 7)" d="m275.79 165.19h6v126.48h-6z"/><path transform="translate(13.01 7)" d="m313.18 194.36h6v97.312h-6zm8.687-0.19h6v97.312h-6z"/><path transform="translate(11 7)" d="m367.68 134.15h6v157.37h-6zm8.687 0.147h6v157.37h-6z"/></svg>
