<svg width="14" height="14" viewBox="0 0 14 14" fill="none" xmlns="http://www.w3.org/2000/svg">
<path d="M6.66667 13.6668C2.98467 13.6668 0 10.6822 0 7.00016C0 3.31816 2.98467 0.333496 6.66667 0.333496C10.3487 0.333496 13.3333 3.31816 13.3333 7.00016C13.3333 10.6822 10.3487 13.6668 6.66667 13.6668ZM6.66667 12.3335C8.08115 12.3335 9.43771 11.7716 10.4379 10.7714C11.4381 9.7712 12 8.41465 12 7.00016C12 5.58567 11.4381 4.22912 10.4379 3.22893C9.43771 2.22873 8.08115 1.66683 6.66667 1.66683C5.25218 1.66683 3.89562 2.22873 2.89543 3.22893C1.89524 4.22912 1.33333 5.58567 1.33333 7.00016C1.33333 8.41465 1.89524 9.7712 2.89543 10.7714C3.89562 11.7716 5.25218 12.3335 6.66667 12.3335ZM3.33333 7.66683H9.33333V9.00016H6.66667V11.0002L3.33333 7.66683ZM6.66667 5.00016V3.00016L10 6.3335H4V5.00016H6.66667Z" fill="currentColor"/>
</svg>
