<svg xmlns="http://www.w3.org/2000/svg" width="1.2rem" height="1.2rem" viewBox="0 0 24 24"><path fill="currentColor" fill-rule="evenodd" d="M2.25 6A.75.75 0 0 1 3 5.25h18a.75.75 0 0 1 0 1.5H3A.75.75 0 0 1 2.25 6m0 4A.75.75 0 0 1 3 9.25h18a.75.75 0 0 1 0 1.5H3a.75.75 0 0 1-.75-.75m12.22 2.97a.75.75 0 0 1 1.06 0l1.97 1.97l1.97-1.97a.75.75 0 1 1 1.06 1.06L18.56 16l1.97 1.97a.75.75 0 1 1-1.06 1.06l-1.97-1.97l-1.97 1.97a.75.75 0 1 1-1.06-1.06L16.44 16l-1.97-1.97a.75.75 0 0 1 0-1.06M2.25 14a.75.75 0 0 1 .75-.75h8a.75.75 0 0 1 0 1.5H3a.75.75 0 0 1-.75-.75m0 4a.75.75 0 0 1 .75-.75h8a.75.75 0 0 1 0 1.5H3a.75.75 0 0 1-.75-.75" clip-rule="evenodd"/></svg>
