<svg id="Layer_1" enable-background="new 0 0 512 512" height="512" viewBox="0 0 512 512" width="512" xmlns="http://www.w3.org/2000/svg"><g id="XMLID_1_"><g id="XMLID_4419_"><g id="XMLID_1054_"><g id="XMLID_1055_"><path id="XMLID_3791_" d="m467 442c-1.7 0-3.2-.9-4.1-2.3l-20.7-30.4 8.3-5.7 16.5 24.2 35.9-54.5 8.4 5.5-40 60.9c-1 1.3-2.6 2.3-4.3 2.3z" fill="rgb(0,0,0)"/></g><g id="XMLID_84_"><path id="XMLID_3788_" d="m467 461c-23.1 0-42.2-17.5-44.7-40h-155.3c-2.8 0-5-2.2-5-5v-320c0-2.8 2.2-5 5-5h200c2.8 0 5 2.2 5 5v280c0 2.8-2.2 5-5 5-19.3 0-35 15.7-35 35s15.7 35 35 35 35-15.7 35-35c0-8.2-2.9-16.2-8.2-22.5l7.7-6.4c6.8 8.1 10.6 18.4 10.6 29-.1 24.7-20.3 44.9-45.1 44.9zm-195-50h150.3c2.3-20.8 18.9-37.4 39.7-39.7v-270.3h-190z" fill="rgb(0,0,0)"/></g></g><g id="XMLID_937_"><path id="XMLID_3779_" d="m205 461c-24.8 0-45-20.2-45-45s20.2-45 45-45 45 20.2 45 45-20.2 45-45 45zm0-80c-19.3 0-35 15.7-35 35s15.7 35 35 35 35-15.7 35-35-15.7-35-35-35z" fill="rgb(0,0,0)"/></g><g id="XMLID_938_"><path id="XMLID_3778_" d="m200 394.8h10v42.4h-10z" fill="rgb(0,0,0)" transform="matrix(.707 .707 -.707 .707 354.169 -23.124)"/></g><g id="XMLID_979_"><path id="XMLID_3777_" d="m183.8 411h42.4v10h-42.4z" fill="rgb(0,0,0)" transform="matrix(.707 .707 -.707 .707 354.2 -23.113)"/></g><g id="XMLID_1029_"><path id="XMLID_3776_" d="m85 181h90v10h-90z" fill="rgb(0,0,0)"/></g><g id="XMLID_1028_"><path id="XMLID_3773_" d="m50 206c-11 0-20-9-20-20s9-20 20-20 20 9 20 20-9 20-20 20zm0-30c-5.5 0-10 4.5-10 10s4.5 10 10 10 10-4.5 10-10-4.5-10-10-10z" fill="rgb(0,0,0)"/></g><g id="XMLID_1034_"><path id="XMLID_3772_" d="m85 251h90v10h-90z" fill="rgb(0,0,0)"/></g><g id="XMLID_1033_"><path id="XMLID_3768_" d="m50 276c-11 0-20-9-20-20s9-20 20-20 20 9 20 20-9 20-20 20zm0-30c-5.5 0-10 4.5-10 10s4.5 10 10 10 10-4.5 10-10-4.5-10-10-10z" fill="rgb(0,0,0)"/></g><g id="XMLID_1036_"><path id="XMLID_3767_" d="m85 321h90v10h-90z" fill="rgb(0,0,0)"/></g><g id="XMLID_1035_"><path id="XMLID_3762_" d="m50 346c-11 0-20-9-20-20s9-20 20-20 20 9 20 20-9 20-20 20zm0-30c-5.5 0-10 4.5-10 10s4.5 10 10 10 10-4.5 10-10-4.5-10-10-10z" fill="rgb(0,0,0)"/></g><g id="XMLID_1040_"><path id="XMLID_3761_" d="m347 181h90v10h-90z" fill="rgb(0,0,0)"/></g><g id="XMLID_1039_"><path id="XMLID_3758_" d="m312 206c-11 0-20-9-20-20s9-20 20-20 20 9 20 20-9 20-20 20zm0-30c-5.5 0-10 4.5-10 10s4.5 10 10 10 10-4.5 10-10-4.5-10-10-10z" fill="rgb(0,0,0)"/></g><g id="XMLID_1038_"><path id="XMLID_3757_" d="m347 251h90v10h-90z" fill="rgb(0,0,0)"/></g><g id="XMLID_1037_"><path id="XMLID_3753_" d="m312 276c-11 0-20-9-20-20s9-20 20-20 20 9 20 20-9 20-20 20zm0-30c-5.5 0-10 4.5-10 10s4.5 10 10 10 10-4.5 10-10-4.5-10-10-10z" fill="rgb(0,0,0)"/></g><g id="XMLID_1032_"><path id="XMLID_3752_" d="m347 321h90v10h-90z" fill="rgb(0,0,0)"/></g><g id="XMLID_1031_"><path id="XMLID_3748_" d="m312 346c-11 0-20-9-20-20s9-20 20-20 20 9 20 20-9 20-20 20zm0-30c-5.5 0-10 4.5-10 10s4.5 10 10 10 10-4.5 10-10-4.5-10-10-10z" fill="rgb(0,0,0)"/></g><g id="XMLID_525_"><path id="XMLID_3747_" d="m404.7 60c-43-32.7-94.4-50-148.7-50-53.9 0-105.1 17.1-148 49.5l-6-8c44.6-33.7 97.9-51.5 154-51.5 56.4 0 109.9 18 154.7 52z" fill="rgb(0,0,0)"/></g><g id="XMLID_521_"><path id="XMLID_3746_" d="m256 512c-56.1 0-109.4-17.8-154-51.5l6-8c42.9 32.4 94.1 49.5 148 49.5 54.2 0 105.6-17.3 148.7-50l6 8c-44.8 34-98.3 52-154.7 52z" fill="rgb(0,0,0)"/></g><g id="XMLID_1069_"><path id="XMLID_3745_" d="m63 123h84v10h-84z" fill="rgb(0,0,0)"/></g><g id="XMLID_1071_"><path id="XMLID_3744_" d="m325 123h84v10h-84z" fill="rgb(0,0,0)"/></g><g id="XMLID_3557_"><path id="XMLID_412_" d="m145 421h-140c-2.8 0-5-2.2-5-5v-320c0-2.8 2.2-5 5-5h200c2.8 0 5 2.2 5 5v280h-10v-275h-190v310h135z" fill="rgb(0,0,0)"/></g></g></g></svg>
