<?xml version="1.0" encoding="UTF-8" standalone="no"?>
<svg
   width="24"
   height="24"
   viewBox="0 0 24 24"
   fill="none"
   version="1.1"
   id="svg3"
   xmlns="http://www.w3.org/2000/svg"
   xmlns:svg="http://www.w3.org/2000/svg">
  <g
     clip-path="url(#clip0_143_2838)"
     id="g3"
     transform="matrix(1.9967638,0,0,1.9967638,0.52360461,0)">
    <path
       d="m 7.15002,2.625 c 0,0.09946 -0.0395,0.19484 -0.10983,0.26516 C 6.96986,2.96049 6.87448,3 6.77502,3 6.67557,3 6.58019,2.96049 6.50986,2.89016 6.43953,2.81984 6.40002,2.72446 6.40002,2.625 6.40002,2.52554 6.43953,2.43016 6.50986,2.35984 6.58019,2.28951 6.67557,2.25 6.77502,2.25 c 0.09946,0 0.19484,0.03951 0.26517,0.10984 0.07033,0.07032 0.10983,0.1657 0.10983,0.26516 z m 0,1.125 V 6 h 0.75 v 0.75 h -1.5 V 4.5 h -0.75 V 3.75 Z"
       fill="currentColor"
       id="path1" />
    <path
       d="M 10.7913,10.6103 C 10.745,10.5534 10.7052,10.4915 10.6728,10.4257 10.5716,10.2151 10.521,9.98368 10.525,9.75 c 0,-0.3105 0.0773,-0.53475 0.1478,-0.67575 0.0324,-0.06576 0.0722,-0.12765 0.1185,-0.1845 L 10.7935,8.886 C 10.8616,8.81616 10.8998,8.72254 10.9,8.625 V 0.375 C 10.9,0.275544 10.8605,0.180161 10.7902,0.109835 10.7199,0.0395088 10.6245,0 10.525,0 H 2.99577 L 2.93352,0.00375 C 2.64626,0.0246625 2.36568,0.100536 2.10702,0.22725 1.84081,0.35706 1.61325,0.554363 1.44702,0.7995 1.26102,1.08 1.15002,1.43475 1.15002,1.875 V 9.75 c 0,0.3472 0.08775,0.6323 0.2385,0.8588 0.15,0.2235 0.3465,0.3682 0.531,0.4612 0.21953,0.1094 0.45988,0.1708 0.705,0.18 h 0.0255 V 10.5 L 2.62827,10.4985 c -0.12991,-0.008 -0.2569,-0.0419 -0.3735,-0.0997 -0.09783,-0.0457 -0.18153,-0.117 -0.24225,-0.2063 -0.06,-0.09 -0.1125,-0.22725 -0.1125,-0.4425 0,-0.21525 0.0525,-0.3525 0.1125,-0.4425 C 2.07345,9.2181 2.15741,9.14684 2.25552,9.10125 2.37843,9.0401 2.51286,9.0056 2.65002,9 h 7.2435 c -0.06825,0.2025 -0.1185,0.45375 -0.1185,0.75 0,0.2963 0.05025,0.5475 0.1185,0.75 h -3.4935 v 0.75 H 10.525 c 0.0737,0 0.1457,-0.0217 0.2071,-0.0624 0.0615,-0.0407 0.1095,-0.0986 0.1382,-0.1664 0.0288,-0.0678 0.0369,-0.1426 0.0233,-0.2151 -0.0135,-0.0724 -0.0481,-0.1392 -0.0993,-0.1921 z M 2.44302,0.89775 c 0.07,-0.034 0.139,-0.0615 0.207,-0.0825 0,1.37325 7.5e-4,7.43475 -7.5e-4,7.43475 H 2.62452 C 2.55333,8.25245 2.4824,8.25997 2.41227,8.2725 2.24104,8.29993 2.07492,8.35303 1.91952,8.43 L 1.90002,8.4405 V 1.875 c 0,-0.30975 0.0765,-0.51675 0.17175,-0.65925 0.096,-0.14475 0.228,-0.246 0.37125,-0.318 z M 3.40002,8.25 V 0.75 H 10.15 v 7.5 z"
       fill="currentColor"
       id="path2" />
    <path
       d="M 5.65002,9.75 H 3.40003 v 1.875 c -1.4e-4,0.0743 0.02178,0.1469 0.06298,0.2087 0.0412,0.0618 0.09981,0.11 0.16842,0.1384 0.0686,0.0284 0.14411,0.0359 0.21694,0.0213 0.07283,-0.0145 0.13971,-0.0503 0.19216,-0.1029 l 0.4845,-0.4853 0.48449,0.4853 c 0.05245,0.0526 0.11933,0.0884 0.19216,0.1029 0.07283,0.0146 0.14834,0.0071 0.21694,-0.0213 0.06861,-0.0284 0.12722,-0.0766 0.16842,-0.1384 0.0412,-0.0618 0.06312,-0.1344 0.06298,-0.2087 z"
       fill="currentColor"
       id="path3" />
  </g>
  <defs
     id="defs3">
    <clipPath
       id="clip0_143_2838">
      <rect
         width="12"
         height="12"
         fill="currentColor"
         transform="translate(0.400024)"
         id="rect3" />
    </clipPath>
  </defs>
</svg>
