<?xml version="1.0" encoding="UTF-8" standalone="no"?>
<svg
   width="24"
   height="24"
   viewBox="0 0 24 24"
   fill="none"
   version="1.1"
   id="svg2"
   xmlns="http://www.w3.org/2000/svg"
   xmlns:svg="http://www.w3.org/2000/svg">
  <g
     clip-path="url(#clip0_251_458)"
     id="g2"
     transform="matrix(2.1243643,0,0,2.1243643,-0.77212681,-0.62239941)">
    <path
       d="m 3.77502,0.75 -0.375,0.375 v 1.14525 c 0.24926,-0.02725 0.50075,-0.02725 0.75,0 V 1.5 H 10.9 V 5.25 H 9.61977 L 8.65002,6.21975 V 5.25 H 7.12977 c 0.02726,0.24926 0.02726,0.50074 0,0.75 H 7.90002 V 7.125 L 8.54052,7.3905 9.93027,6 H 11.275 L 11.65,5.625 v -4.5 L 11.275,0.75 Z"
       fill="currentColor"
       id="path1" />
    <path
       fill-rule="evenodd"
       clip-rule="evenodd"
       d="M 5.21277,7.82173 C 5.68572,7.51213 6.04608,7.05813 6.24027,6.52726 6.43446,5.99639 6.45209,5.41702 6.29055,4.87533 6.12901,4.33363 5.79693,3.85855 5.3437,3.52076 4.89046,3.18296 4.34029,3.00049 3.77502,3.00049 3.20976,3.00049 2.65959,3.18296 2.20635,3.52076 1.75312,3.85855 1.42103,4.33363 1.2595,4.87533 1.09796,5.41702 1.11559,5.99639 1.30978,6.52726 1.50397,7.05813 1.86433,7.51213 2.33727,7.82173 1.75801,8.09449 1.26827,8.52639 0.925248,9.06703 0.582224,9.60766 0.400061,10.2347 0.400024,10.875 V 11.25 H 1.15002 V 10.875 C 1.17304,10.1942 1.45969,9.54889 1.94946,9.0754 2.43923,8.60191 3.0938,8.33724 3.77502,8.33724 c 0.68123,0 1.3358,0.26467 1.82557,0.73816 0.48977,0.47349 0.77641,1.1188 0.79943,1.7996 v 0.375 h 0.75 V 10.875 C 7.14999,10.2347 6.96782,9.60766 6.6248,9.06703 6.28178,8.52639 5.79204,8.09449 5.21277,7.82173 Z M 3.77502,7.49999 C 3.27774,7.49999 2.80083,7.30244 2.4492,6.95081 2.09757,6.59918 1.90002,6.12227 1.90002,5.62499 1.90002,5.1277 2.09757,4.65079 2.4492,4.29916 2.80083,3.94753 3.27774,3.74999 3.77502,3.74999 c 0.49729,0 0.9742,0.19754 1.32583,0.54917 0.35163,0.35163 0.54917,0.82854 0.54917,1.32583 0,0.49728 -0.19754,0.97419 -0.54917,1.32582 C 4.74922,7.30244 4.27231,7.49999 3.77502,7.49999 Z"
       fill="currentColor"
       id="path2" />
  </g>
  <defs
     id="defs2">
    <clipPath
       id="clip0_251_458">
      <rect
         width="12"
         height="12"
         fill="white"
         transform="translate(0.400024)"
         id="rect2"
         x="0"
         y="0" />
    </clipPath>
  </defs>
</svg>
