<?xml version="1.0" encoding="UTF-8" standalone="no"?>
<svg
   width="24"
   height="24"
   viewBox="0 0 24 24"
   fill="none"
   version="1.1"
   id="svg2"
   sodipodi:docname="library.svg"
   inkscape:version="1.3.2 (091e20e, 2023-11-25)"
   xmlns:inkscape="http://www.inkscape.org/namespaces/inkscape"
   xmlns:sodipodi="http://sodipodi.sourceforge.net/DTD/sodipodi-0.dtd"
   xmlns="http://www.w3.org/2000/svg"
   xmlns:svg="http://www.w3.org/2000/svg">
  <sodipodi:namedview
     id="namedview1"
     pagecolor="#ffffff"
     bordercolor="#000000"
     borderopacity="0.25"
     inkscape:showpageshadow="2"
     inkscape:pageopacity="0.0"
     inkscape:pagecheckerboard="0"
     inkscape:deskcolor="#d1d1d1"
     inkscape:zoom="25.75"
     inkscape:cx="12"
     inkscape:cy="12"
     inkscape:window-width="1392"
     inkscape:window-height="1103"
     inkscape:window-x="2885"
     inkscape:window-y="494"
     inkscape:window-maximized="0"
     inkscape:current-layer="svg2" />
  <g
     mask="url(#mask0_143_2846)"
     id="g1"
     transform="matrix(1.9644013,0,0,1.9644013,-0.38578366,0)"
     style="stroke-width:0.99979571;stroke-dasharray:none;stroke:none;stroke-opacity:1;fill:black;fill-opacity:1">
    <path
       d="M 11.470346,0.15815486 H 1.270366 c -0.23869,0 -0.46760904,0.094821 -0.63639204,0.26360399 -0.168782,0.168783 -0.263604,0.397701 -0.263604,0.63639595 v 1.5000001 c 0,0.07957 0.031608,0.15587 0.087868,0.21213 0.056261,0.05626 0.132567,0.08787 0.212132,0.08787 0.079565,0 0.155871,-0.03161 0.212132,-0.08787 0.056261,-0.05626 0.087864,-0.13256 0.087864,-0.21213 V 1.0581548 c 0,-0.079565 0.03161,-0.15587095 0.08787,-0.21213195 0.05626,-0.056261 0.13257,-0.087868 0.21213,-0.087868 h 5.4 V 11.558155 h -5.4 c -0.07956,0 -0.15587,-0.0316 -0.21213,-0.0879 -0.05626,-0.0562 -0.08787,-0.1325 -0.08787,-0.2121 V 3.7581549 c 0,-0.07956 -0.031603,-0.15587 -0.087864,-0.21213 -0.056261,-0.05626 -0.132567,-0.08787 -0.212132,-0.08787 -0.079565,0 -0.155871,0.03161 -0.212132,0.08787 -0.05626,0.05626 -0.087868,0.13257 -0.087868,0.21213 v 7.5000001 c 0,0.2387 0.094822,0.4676 0.263604,0.6364 0.168783,0.1688 0.39770204,0.2636 0.63639204,0.2636 h 10.19998 c 0.2387,0 0.4676,-0.0948 0.6364,-0.2636 0.1688,-0.1688 0.2636,-0.3977 0.2636,-0.6364 V 1.0581548 c 0,-0.23869495 -0.0948,-0.46761295 -0.2636,-0.63639595 -0.1688,-0.1687828 -0.3977,-0.26360399 -0.6364,-0.26360399 z m -2.69998,0.59999999 h 1.79998 V 3.7581549 l -0.71998,-0.54 c -0.05192,-0.03895 -0.11508,-0.06 -0.18,-0.06 -0.06491,0 -0.12807,0.02105 -0.17999,0.06 l -0.72001,0.54 z m 2.99998,10.50000015 c 0,0.0796 -0.0316,0.1559 -0.0878,0.2121 -0.0563,0.0563 -0.1326,0.0879 -0.2122,0.0879 H 7.270366 V 0.75815485 h 0.9 V 4.3581549 c 0,0.05571 0.01552,0.11033 0.04481,0.15772 0.02929,0.04739 0.0712,0.08569 0.12103,0.11061 0.04983,0.02491 0.10562,0.03546 0.16111,0.03046 0.05548,-0.00501 0.10848,-0.02536 0.15306,-0.05879 l 1.01999,-0.765 1.01998,0.765 c 0.0448,0.03338 0.098,0.05359 0.1537,0.05836 0.0556,0.00477 0.1115,-0.00609 0.1613,-0.03136 0.0495,-0.02493 0.0911,-0.06307 0.1202,-0.1102 0.0292,-0.04713 0.0447,-0.1014 0.0448,-0.1568 V 0.75815485 h 0.3 c 0.0796,0 0.1559,0.031607 0.2122,0.087868 0.0562,0.056261 0.0878,0.132567 0.0878,0.21213195 z M 1.870366,6.1581549 c 0,-0.07957 0.03161,-0.15587 0.08787,-0.21213 0.05626,-0.05626 0.13257,-0.08787 0.21213,-0.08787 h 3.3 c 0.07957,0 0.15588,0.03161 0.21214,0.08787 0.05626,0.05626 0.08786,0.13256 0.08786,0.21213 0,0.07957 -0.0316,0.15587 -0.08786,0.21213 -0.05626,0.05626 -0.13257,0.08787 -0.21214,0.08787 h -3.3 c -0.07956,0 -0.15587,-0.03161 -0.21213,-0.08787 -0.05626,-0.05626 -0.08787,-0.13256 -0.08787,-0.21213 z m 0,-1.8 c 0,-0.07956 0.03161,-0.15587 0.08787,-0.21213 0.05626,-0.05626 0.13257,-0.08787 0.21213,-0.08787 h 3.3 c 0.07957,0 0.15588,0.03161 0.21214,0.08787 0.05626,0.05626 0.08786,0.13257 0.08786,0.21213 0,0.07957 -0.0316,0.15587 -0.08786,0.21213 -0.05626,0.05626 -0.13257,0.08787 -0.21214,0.08787 h -3.3 c -0.07956,0 -0.15587,-0.03161 -0.21213,-0.08787 -0.05626,-0.05626 -0.08787,-0.13256 -0.08787,-0.21213 z m 0,-1.8 c 0,-0.07956 0.03161,-0.15587 0.08787,-0.21213 0.05626,-0.05626 0.13257,-0.08787 0.21213,-0.08787 h 3.3 c 0.07957,0 0.15588,0.03161 0.21214,0.08787 0.05626,0.05626 0.08786,0.13257 0.08786,0.21213 0,0.07957 -0.0316,0.15587 -0.08786,0.21213 -0.05626,0.05626 -0.13257,0.08787 -0.21214,0.08787 h -3.3 c -0.07956,0 -0.15587,-0.03161 -0.21213,-0.08787 -0.05626,-0.05626 -0.08787,-0.13256 -0.08787,-0.21213 z m 0,5.4 c 0,-0.07956 0.03161,-0.15587 0.08787,-0.21213 0.05626,-0.05626 0.13257,-0.08787 0.21213,-0.08787 h 1.8 c 0.07957,0 0.15588,0.03161 0.21214,0.08787 0.05626,0.05626 0.08786,0.13257 0.08786,0.21213 0,0.07957 -0.0316,0.15587 -0.08786,0.21213 -0.05626,0.05626 -0.13257,0.08787 -0.21214,0.08787 h -1.8 c -0.07956,0 -0.15587,-0.03161 -0.21213,-0.08787 -0.05626,-0.05626 -0.08787,-0.13256 -0.08787,-0.21213 z"
       fill="currentColor"
       id="path1"
       style="stroke-width:0.0509061;stroke-dasharray:none;stroke:black;stroke-opacity:1;fill:black;fill-opacity:1;stroke-dashoffset:0" />
  </g>
  <defs
     id="defs2">
    <mask
       id="mask0_143_2846"
       maskUnits="userSpaceOnUse"
       x="0"
       y="0"
       width="13"
       height="12">
      <rect
         x="0.400024"
         width="12"
         height="12"
         fill="#d9d9d9"
         id="rect1"
         y="0" />
    </mask>
  </defs>
</svg>
