<?xml version="1.0" encoding="UTF-8" standalone="no"?>
<!-- Created with Inkscape (http://www.inkscape.org/) -->

<svg
   version="1.1"
   id="svg1899"
   xml:space="preserve"
   width="682.66669"
   height="682.66669"
   viewBox="0 0 682.66669 682.66669"
   xmlns="http://www.w3.org/2000/svg"
   xmlns:svg="http://www.w3.org/2000/svg"><defs
     id="defs1903"><clipPath
       clipPathUnits="userSpaceOnUse"
       id="clipPath1921"><path
         d="M 0,512 H 512 V 0 H 0 Z"
         id="path1919" /></clipPath></defs><g
     id="g1905"
     transform="matrix(1.3333333,0,0,-1.3333333,0,682.66667)"><g
       id="g1907"
       transform="translate(223.083,397.8511)"><path
         d="M 0,0 H 171.299"
         style="fill:none;stroke:#000000;stroke-width:15;stroke-linecap:round;stroke-linejoin:round;stroke-miterlimit:10;stroke-dasharray:none;stroke-opacity:1"
         id="path1909" /></g><g
       id="g1911"
       transform="translate(223.083,358.207)"><path
         d="M 0,0 H 171.299"
         style="fill:none;stroke:#000000;stroke-width:15;stroke-linecap:round;stroke-linejoin:round;stroke-miterlimit:10;stroke-dasharray:none;stroke-opacity:1"
         id="path1913" /></g><g
       id="g1915"><g
         id="g1917"
         clip-path="url(#clipPath1921)"><g
           id="g1923"
           transform="translate(142.1494,7.5)"><path
             d="M 0,0 V 497"
             style="fill:none;stroke:#000000;stroke-width:15;stroke-linecap:round;stroke-linejoin:round;stroke-miterlimit:10;stroke-dasharray:none;stroke-opacity:1"
             id="path1925" /></g><g
           id="g1927"
           transform="translate(88.3115,179.6401)"><path
             d="m 0,0 h -41.257 c -9.886,0 -17.899,8.014 -17.899,17.899 0,9.885 8.013,17.899 17.899,17.899 H 0 c 9.886,0 17.899,-8.014 17.899,-17.899 C 17.899,8.014 9.886,0 0,0 Z"
             style="fill:none;stroke:#000000;stroke-width:15;stroke-linecap:round;stroke-linejoin:round;stroke-miterlimit:10;stroke-dasharray:none;stroke-opacity:1"
             id="path1929" /></g><g
           id="g1931"
           transform="translate(88.3115,62.7178)"><path
             d="m 0,0 h -41.257 c -9.886,0 -17.899,8.014 -17.899,17.899 v 0 c 0,9.886 8.013,17.899 17.899,17.899 H 0 c 9.886,0 17.899,-8.013 17.899,-17.899 v 0 C 17.899,8.014 9.886,0 0,0 Z"
             style="fill:none;stroke:#000000;stroke-width:15;stroke-linecap:round;stroke-linejoin:round;stroke-miterlimit:10;stroke-dasharray:none;stroke-opacity:1"
             id="path1933" /></g><g
           id="g1935"
           transform="translate(88.3115,413.4839)"><path
             d="m 0,0 h -41.257 c -9.886,0 -17.899,8.014 -17.899,17.899 v 0 c 0,9.886 8.013,17.899 17.899,17.899 H 0 c 9.886,0 17.899,-8.013 17.899,-17.899 v 0 C 17.899,8.014 9.886,0 0,0 Z"
             style="fill:none;stroke:#000000;stroke-width:15;stroke-linecap:round;stroke-linejoin:round;stroke-miterlimit:10;stroke-dasharray:none;stroke-opacity:1"
             id="path1937" /></g><g
           id="g1939"
           transform="translate(88.3115,296.562)"><path
             d="m 0,0 h -41.257 c -9.886,0 -17.899,8.014 -17.899,17.899 0,9.885 8.013,17.899 17.899,17.899 H 0 c 9.886,0 17.899,-8.014 17.899,-17.899 C 17.899,8.014 9.886,0 0,0 Z"
             style="fill:none;stroke:#000000;stroke-width:15;stroke-linecap:round;stroke-linejoin:round;stroke-miterlimit:10;stroke-dasharray:none;stroke-opacity:1"
             id="path1941" /></g><g
           id="g1943"
           transform="translate(67.6826,215.438)"><path
             d="M 0,0 V 81.124"
             style="fill:none;stroke:#000000;stroke-width:15;stroke-linecap:round;stroke-linejoin:round;stroke-miterlimit:10;stroke-dasharray:none;stroke-opacity:1"
             id="path1945" /></g><g
           id="g1947"
           transform="translate(67.6826,98.5161)"><path
             d="M 0,0 V 81.124"
             style="fill:none;stroke:#000000;stroke-width:15;stroke-linecap:round;stroke-linejoin:round;stroke-miterlimit:10;stroke-dasharray:none;stroke-opacity:1"
             id="path1949" /></g><g
           id="g1951"
           transform="translate(67.6826,389.2651)"><path
             d="M 0,0 V 24.219"
             style="fill:none;stroke:#000000;stroke-width:15;stroke-linecap:round;stroke-linejoin:round;stroke-miterlimit:10;stroke-dasharray:none;stroke-opacity:1"
             id="path1953" /></g><g
           id="g1955"
           transform="translate(67.6826,332.3599)"><path
             d="M 0,0 V 24.219"
             style="fill:none;stroke:#000000;stroke-width:15;stroke-linecap:round;stroke-linejoin:round;stroke-miterlimit:10;stroke-dasharray:none;stroke-opacity:1"
             id="path1957" /></g><g
           id="g1959"
           transform="translate(260.4736,308.6323)"><path
             d="m 0,0 h 162.278 c 2.762,0 5,2.238 5,5 v 131.378 c 0,2.761 -2.238,5 -5,5 H -65.761 c -2.76,0 -5,-2.239 -5,-5 V 5 c 0,-2.762 2.24,-5 5,-5 h 33.075"
             style="fill:none;stroke:#000000;stroke-width:15;stroke-linecap:round;stroke-linejoin:round;stroke-miterlimit:10;stroke-dasharray:none;stroke-opacity:1"
             id="path1961" /></g><g
           id="g1963"
           transform="translate(482.8447,129.249)"><path
             d="m 0,0 v -96.749 c 0,-13.807 -11.193,-25 -25,-25 h -365.162 c -13.807,0 -25,11.193 -25,25 v 30.218"
             style="fill:none;stroke:#000000;stroke-width:15;stroke-linecap:round;stroke-linejoin:round;stroke-miterlimit:10;stroke-dasharray:none;stroke-opacity:1"
             id="path1965" /></g><g
           id="g1967"
           transform="translate(67.6826,449.2822)"><path
             d="m 0,0 v 30.218 c 0,13.807 11.193,25 25,25 h 365.162 c 13.807,0 25,-11.193 25,-25 v -317.565"
             style="fill:none;stroke:#000000;stroke-width:15;stroke-linecap:round;stroke-linejoin:round;stroke-miterlimit:10;stroke-dasharray:none;stroke-opacity:1"
             id="path1969" /></g></g></g></g></svg>
