<svg width="16" height="16" viewBox="0 0 16 16" fill="none" xmlns="http://www.w3.org/2000/svg">
<path d="M13.3332 8.66671V3.83271C13.3332 3.78008 13.3229 3.72797 13.3027 3.67935C13.2826 3.63073 13.2531 3.58656 13.2158 3.54937L11.1172 1.45071C11.0422 1.37567 10.9406 1.33347 10.8345 1.33337H3.0665C2.96042 1.33337 2.85868 1.37552 2.78366 1.45053C2.70865 1.52555 2.6665 1.62729 2.6665 1.73337V14.2667C2.6665 14.3728 2.70865 14.4745 2.78366 14.5496C2.85868 14.6246 2.96042 14.6667 3.0665 14.6667H9.33317" stroke="black" stroke-linecap="round" stroke-linejoin="round"/>
<path d="M10.6665 1.33337V3.60004C10.6665 3.70613 10.7086 3.80787 10.7837 3.88288C10.8587 3.9579 10.9604 4.00004 11.0665 4.00004H13.3332M10.6665 12.6667H14.6665M14.6665 12.6667L12.6665 10.6667M14.6665 12.6667L12.6665 14.6667" stroke="black" stroke-linecap="round" stroke-linejoin="round"/>
</svg>
