<?xml version="1.0" encoding="UTF-8" standalone="no"?>
<svg
   width="12"
   height="12"
   viewBox="0 0 12 12"
   fill="currentColor"
   version="1.1"
   id="svg1"
   xmlns="http://www.w3.org/2000/svg"
   xmlns:svg="http://www.w3.org/2000/svg">
  <defs
     id="defs1" />
  <path
     d="M 11.8415,7.5253 10.9149,6.77525 c 0.0438,-0.25448 0.0665,-0.51432 0.0665,-0.77416 0,-0.25984 -0.0227,-0.51968 -0.0665,-0.77416 L 11.8415,4.47687 C 11.9114,4.42023 11.9615,4.34478 11.985,4.26056 12.0085,4.17634 12.0043,4.08735 11.9731,4.00541 L 11.9604,3.97059 C 11.7053,3.29558 11.3233,2.66983 10.8328,2.12358 L 10.8074,2.09546 C 10.7479,2.02923 10.6686,1.98162 10.5799,1.95891 10.4913,1.93619 10.3974,1.93944 10.3108,1.96822 L 9.16057,2.3553 C 8.73615,2.02581 8.2622,1.76597 7.75006,1.58382 L 7.52794,0.445343 C 7.51118,0.35968 7.46729,0.280871 7.40209,0.219387 7.3369,0.157904 7.25348,0.116655 7.16293,0.101123 L 7.12473,0.0944262 c -0.73709,-0.1259016 -1.51237,-0.1259016 -2.24946,0 L 4.83707,0.101123 C 4.74652,0.116655 4.6631,0.157904 4.59791,0.219387 4.53271,0.280871 4.48882,0.35968 4.47206,0.445343 L 4.24853,1.58917 C 3.74047,1.77137 3.26734,2.03107 2.84791,2.35798 L 1.68923,1.96822 C 1.60259,1.93921 1.50869,1.93585 1.41999,1.95857 1.33129,1.9813 1.252,2.02904 1.19265,2.09546 L 1.16718,2.12358 C 0.67731401,2.67022 0.29537101,3.29586 0.03961611,3.97059 l -0.0127328,0.03482 c -0.0636642,0.16742 -0.0113181,0.35494 0.1315727,0.47146 L 1.09644,5.23496 c -0.04386,0.2518 -0.06508,0.50897 -0.06508,0.76479 0,0.25716 0.02122,0.51432 0.06508,0.76478 L 0.15845601,7.52262 c -0.0698952,0.05665 -0.1199201,0.1321 -0.1434228,0.21631 -0.02350261,0.08422 -0.01936944,0.17321 0.0118501,0.25515 l 0.0127328,0.03483 c 0.2560719,0.67504 0.6352269,1.29785 1.12756389,1.847 l 0.02547,0.02813 c 0.05949,0.06623 0.13879,0.11386 0.22744,0.13656 0.08864,0.0227 0.18248,0.0195 0.26914,-0.0093 L 2.84791,9.64152 c 0.4216,0.32815 0.89272,0.58798 1.40062,0.76878 l 0.22353,1.1439 c 0.01676,0.0856 0.06065,0.1644 0.12585,0.2259 0.06519,0.0615 0.14861,0.1027 0.23916,0.1183 l 0.0382,0.0067 c 0.74386,0.1265 1.5056,0.1265 2.24946,0 l 0.0382,-0.0067 C 7.25348,11.8828 7.3369,11.8416 7.40209,11.7801 7.46729,11.7186 7.51118,11.6398 7.52794,11.5542 L 7.75006,10.4157 C 8.26199,10.234 8.73861,9.97331 9.16057,9.6442 l 1.15023,0.3871 c 0.0866,0.029 0.1805,0.0323 0.2692,0.0096 0.0887,-0.0227 0.168,-0.07045 0.2274,-0.13686 l 0.0254,-0.02813 c 0.4924,-0.55049 0.8715,-1.17196 1.1276,-1.847 L 11.9731,7.99408 C 12.0368,7.82934 11.9844,7.64183 11.8415,7.5253 Z M 9.9104,5.38497 c 0.03537,0.20225 0.05376,0.40985 0.05376,0.61746 0,0.2076 -0.01839,0.4152 -0.05376,0.61745 L 9.81702,7.15697 10.8738,8.01283 C 10.7136,8.36226 10.5114,8.69304 10.2712,8.99862 L 8.95826,8.55796 8.51403,8.90352 C 8.1759,9.16604 7.79957,9.3723 7.39212,9.51696 L 6.8531,9.70849 6.59986,11.0077 c -0.39957,0.0428 -0.80298,0.0428 -1.20255,0 L 5.14407,9.70581 4.60929,9.5116 C 4.20608,9.36695 3.83117,9.16068 3.49587,8.8995 L 3.05164,8.5526 1.73025,8.99728 C 1.48975,8.69056 1.28885,8.35973 1.12757,8.01149 L 2.19571,7.14759 2.10375,6.61184 C 2.0698,6.41228 2.0514,6.20601 2.0514,6.00243 2.0514,5.7975 2.06838,5.59258 2.10375,5.39301 L 2.19571,4.85726 1.12757,3.99336 C 1.28743,3.64378 1.48975,3.31429 1.73025,3.00757 L 3.05164,3.45225 3.49587,3.10535 C 3.83117,2.84417 4.20608,2.63791 4.60929,2.49325 L 5.14548,2.30172 5.39873,0.999846 c 0.39754,-0.04286 0.80358,-0.04286 1.20254,0 L 6.85452,2.29904 7.39354,2.49057 c 0.40603,0.14466 0.78378,0.35092 1.1219,0.61344 L 8.95968,3.44957 10.2726,3.00891 c 0.2405,0.30672 0.4414,0.63755 0.6027,0.98579 L 9.81844,4.85056 Z M 6.00141,3.51118 c -1.37514,0 -2.48997,1.05543 -2.48997,2.35731 0,1.30187 1.11483,2.3573 2.48997,2.3573 1.37515,0 2.48998,-1.05543 2.48998,-2.3573 0,-1.30188 -1.11483,-2.35731 -2.48998,-2.35731 z M 7.1219,6.92928 C 6.97494,7.06881 6.80029,7.17945 6.60799,7.25485 6.4157,7.33024 6.20955,7.3689 6.00141,7.36859 5.5784,7.36859 5.18085,7.21188 4.88092,6.92928 4.73354,6.79014 4.61667,6.6248 4.53703,6.44275 4.45739,6.26069 4.41656,6.06553 4.41688,5.86849 4.41688,5.46801 4.58241,5.09165 4.88092,4.8077 5.18085,4.52375 5.5784,4.36838 6.00141,4.36838 c 0.42302,0 0.82057,0.15537 1.12049,0.43932 0.14739,0.13913 0.26426,0.30448 0.3439,0.48653 0.07964,0.18205 0.12047,0.37721 0.12015,0.57426 0,0.40047 -0.16553,0.77684 -0.46405,1.06079 z"
     fill="currentColor"
     id="path1" />
</svg>
