<svg xmlns="http://www.w3.org/2000/svg" width="16" height="16" viewBox="0 0 16 16" fill="none">
    <path d="M3.2 0C2.35131 0 1.53737 0.337142 0.937258 0.937258C0.337142 1.53737 0 2.35131 0 3.2V8C0 8.84869 0.337142 9.66263 0.937258 10.2627C1.53737 10.8629 2.35131 11.2 3.2 11.2H8.136C8.32472 11.7338 8.69606 12.1836 9.18438 12.4701C9.67271 12.7566 10.2466 12.8612 10.8046 12.7654C11.3626 12.6697 11.8688 12.3798 12.2337 11.9469C12.5986 11.5141 12.7987 10.9662 12.7987 10.4C12.7987 9.83385 12.5986 9.28593 12.2337 8.85307C11.8688 8.42022 11.3626 8.1303 10.8046 8.03456C10.2466 7.93883 9.67271 8.04343 9.18438 8.3299C8.69606 8.61636 8.32472 9.06623 8.136 9.6H3.2C2.77565 9.6 2.36869 9.43143 2.06863 9.13137C1.76857 8.83131 1.6 8.42435 1.6 8V3.2C1.6 2.77565 1.76857 2.36869 2.06863 2.06863C2.36869 1.76857 2.77565 1.6 3.2 1.6H8C8.42435 1.6 8.83131 1.76857 9.13137 2.06863C9.43143 2.36869 9.6 2.77565 9.6 3.2H11.2C11.2 2.35131 10.8629 1.53737 10.2627 0.937258C9.66263 0.337142 8.84869 0 8 0H3.2ZM12.8 16C13.6487 16 14.4626 15.6629 15.0627 15.0627C15.6629 14.4626 16 13.6487 16 12.8V8C16 7.15131 15.6629 6.33738 15.0627 5.73726C14.4626 5.13714 13.6487 4.8 12.8 4.8H7.864C7.67528 4.26623 7.30395 3.81636 6.81562 3.5299C6.32729 3.24343 5.75341 3.13883 5.19541 3.23456C4.63742 3.3303 4.13123 3.62022 3.76632 4.05307C3.4014 4.48593 3.20126 5.03385 3.20126 5.6C3.20126 6.16615 3.4014 6.71407 3.76632 7.14693C4.13123 7.57978 4.63742 7.8697 5.19541 7.96544C5.75341 8.06117 6.32729 7.95657 6.81562 7.6701C7.30395 7.38364 7.67528 6.93377 7.864 6.4H12.8C13.2243 6.4 13.6313 6.56857 13.9314 6.86863C14.2314 7.16869 14.4 7.57565 14.4 8V12.8C14.4 13.2243 14.2314 13.6313 13.9314 13.9314C13.6313 14.2314 13.2243 14.4 12.8 14.4H8C7.57565 14.4 7.16869 14.2314 6.86863 13.9314C6.56857 13.6313 6.4 13.2243 6.4 12.8H4.8C4.8 13.6487 5.13714 14.4626 5.73726 15.0627C6.33738 15.6629 7.15131 16 8 16H12.8Z" fill="#CC4B05"/>
</svg>
