<?xml version="1.0" encoding="UTF-8" standalone="no"?>
<svg
   width="24"
   height="24"
   viewBox="0 0 24 24"
   fill="none"
   version="1.1"
   id="svg1"
   xmlns="http://www.w3.org/2000/svg"
   xmlns:svg="http://www.w3.org/2000/svg">
  <defs
     id="defs1" />
  <path
     d="m 11.992254,0.20631068 c 3.143339,0 6.157932,1.24867562 8.38052,3.47135512 2.222748,2.2226796 3.471378,5.2372495 3.471378,8.3805882 0,3.143339 -1.24863,6.157909 -3.471378,8.380587 -2.222588,2.222726 -5.237181,3.471356 -8.38052,3.471356 -3.1433156,0 -6.157908,-1.24863 -8.3805876,-3.471356 -2.2226569,-2.222678 -3.47135514,-5.237248 -3.47135514,-8.380587 0,-3.1433387 1.24869824,-6.1579086 3.47135514,-8.3805882 C 5.834346,1.4549863 8.8489384,0.20631068 11.992254,0.20631068 Z m 0,22.01075032 c 2.694296,0 5.278223,-1.070286 7.183362,-2.975445 1.905115,-1.905139 2.975401,-4.489088 2.975401,-7.183362 0,-2.6942742 -1.070286,-5.2782235 -2.975401,-7.1833613 -1.905139,-1.9051378 -4.489066,-2.9754473 -7.183362,-2.9754473 -2.6942731,0 -5.2782004,1.0703095 -7.1833607,2.9754473 C 2.9037555,6.7800305 1.833446,9.3639798 1.833446,12.058254 c 0,2.694274 1.0703095,5.278223 2.9754473,7.183362 1.9051603,1.905159 4.4890876,2.975445 7.1833607,2.975445 z m -1.269851,-6.550736 5.412952,-3.608071 -5.412952,-3.6080703 z m 0.281061,-9.0650444 6.599839,4.4004564 c 0.173918,0.115969 0.316525,0.273071 0.415156,0.457374 0.09861,0.184303 0.150215,0.390119 0.150215,0.599143 0,0.209024 -0.05161,0.41484 -0.150215,0.599143 -0.09863,0.184303 -0.241238,0.341405 -0.415156,0.457373 l -6.599839,4.400458 C 10.81223,17.642709 10.59,17.715897 10.360433,17.726981 10.130867,17.738087 9.9025873,17.686667 9.6999537,17.578234 9.497319,17.469783 9.3279147,17.308372 9.209802,17.111223 9.0916889,16.914052 9.0292911,16.688549 9.0292686,16.458711 V 7.6561035 C 9.0292911,7.4262662 9.0916887,7.2007631 9.209802,7.0035919 9.3279147,6.8064434 9.497319,6.6450312 9.6999537,6.5365803 9.9025873,6.4281523 10.130867,6.3767258 10.360433,6.3878327 10.59,6.3989178 10.81223,6.472106 11.003464,6.5995875 Z"
     fill="currentColor"
     id="path1"
     style="stroke-width:2.25751" />
</svg>
