<?xml version="1.0" encoding="UTF-8"?>
<svg width="20px" height="20px" viewBox="0 0 20 20" version="1.1" xmlns="http://www.w3.org/2000/svg">
    <!-- Generator: Sketch 53.2 (72643) - https://sketchapp.com -->
    <title>Group 23</title>
    <desc>Created with Sketch.</desc>
    <g id="Symbols" stroke="none" stroke-width="1" fill="none" fill-rule="evenodd">
        <g id="Group-23" fill-rule="nonzero">
            <path d="M15.80732,6.53890856 L13.8310999,8.5151649 L12.1023719,7.89760209 L11.4848476,6.16891656 L13.4611073,4.19266022 C12.1644921,3.7588874 10.6766528,4.05742749 9.64417682,5.08994125 C8.63076002,6.10335636 8.32454832,7.55532884 8.72360416,8.83470165 C8.66986686,8.87701131 8.61779031,8.92256339 8.56820489,8.97214872 L4.50943679,13.0308705 C3.83018774,13.7100789 3.83018774,14.8113162 4.50943679,15.4905641 C5.18868583,16.169812 6.28996452,16.169812 6.96921356,15.4905641 L11.0279817,11.4318028 C11.0775671,11.3822174 11.1230402,11.3301805 11.1653894,11.2764433 C12.4447644,11.6754985 13.8966997,11.3692477 14.9101165,10.3558326 C15.942553,9.32331886 16.2411331,7.83556111 15.80732,6.53890856 Z" id="Path-Copy-2" fill="#FFFFFF"></path>
        </g>
    </g>
</svg>
