<svg id="Layer_1" data-name="Layer 1" xmlns="http://www.w3.org/2000/svg" viewBox="0 0 136.88 115.32"><defs><style>.cls-1{fill:#039;}.cls-2{fill:#69c;}.cls-3{fill:#666;}.cls-4{fill:#999;}.cls-5{fill:#ccc;}</style></defs><path class="cls-1" d="M.21,68.56C.15,67,.08,65.48,0,64l1.92.13c.65,0,1.29,0,1.92,0s1.26,0,1.92-.09S7.05,64,7.67,64a17.18,17.18,0,0,1,2.94.23A7.44,7.44,0,0,1,13,65a4.5,4.5,0,0,1,1.67,1.6,4.75,4.75,0,0,1,.61,2.52,5.34,5.34,0,0,1-1.68,4.18,9.5,9.5,0,0,1-4.4,2.12v.08a8.89,8.89,0,0,1,5.09,1.55,5.25,5.25,0,0,1,1.87,4.5A6.36,6.36,0,0,1,15.35,85a6.65,6.65,0,0,1-2.17,2.21,8.89,8.89,0,0,1-2.95,1.19A15.22,15.22,0,0,1,7,88.7c-.58,0-1.17,0-1.76,0l-1.76,0H1.76c-.6,0-1.18,0-1.76.07.08-1.54.15-3.07.21-4.6s.1-3.08.1-4.66v-6.2C.31,71.66.28,70.09.21,68.56ZM3.37,83.62c0,1.2.09,2.42.13,3.64.46,0,1,.09,1.63.13s1.27.06,1.92.06a6.41,6.41,0,0,0,2.22-.4,5.19,5.19,0,0,0,1.87-1.17A5.58,5.58,0,0,0,12.4,84a6.51,6.51,0,0,0,.47-2.57,5.06,5.06,0,0,0-.56-2.54,3.92,3.92,0,0,0-1.6-1.55,7.7,7.7,0,0,0-2.52-.77,21.66,21.66,0,0,0-3.27-.22H3.29l0,3.67Q3.31,81.82,3.37,83.62Zm4.38-8.87A6.78,6.78,0,0,0,10,73.91a4.65,4.65,0,0,0,1.56-1.59,4.78,4.78,0,0,0,.59-2.51,4.52,4.52,0,0,0-.54-2.37,4,4,0,0,0-1.37-1.37,5.37,5.37,0,0,0-1.88-.65,13.28,13.28,0,0,0-2.09-.16c-.62,0-1.15,0-1.59,0s-.81.08-1.15.13c0,1.15-.08,2.3-.13,3.43s-.06,2.27-.06,3.43V75H5.25A12.34,12.34,0,0,0,7.75,74.75Z"/><path class="cls-1" d="M21.5,70.84c-.06-1.35-.11-2.74-.18-4.14l.8.13a5.88,5.88,0,0,0,1.53,0l.8-.13c-.06,1.4-.12,2.79-.17,4.14S24.2,73.58,24.2,75V80.5c0,1.41,0,2.79.08,4.16s.11,2.71.17,4a17.53,17.53,0,0,0-3.13,0c.07-1.33.12-2.67.18-4s.07-2.75.07-4.16V75C21.57,73.58,21.55,72.2,21.5,70.84Z"/><path class="cls-1" d="M29.28,72.93a10,10,0,0,1,2.46-3.6,10.56,10.56,0,0,1,3.79-2.24,14.59,14.59,0,0,1,4.82-.77,14.74,14.74,0,0,1,4.86.77A10.65,10.65,0,0,1,49,69.33a10.21,10.21,0,0,1,2.46,3.6,13.78,13.78,0,0,1,0,9.69,9.85,9.85,0,0,1-6.25,5.79,15.59,15.59,0,0,1-4.86.72,15.42,15.42,0,0,1-4.82-.72,9.85,9.85,0,0,1-6.25-5.79,13.78,13.78,0,0,1,0-9.69Zm19.26.26A8.74,8.74,0,0,0,46.67,70a7.42,7.42,0,0,0-2.82-1.87,10.26,10.26,0,0,0-7,0A7.38,7.38,0,0,0,34.07,70a8.6,8.6,0,0,0-1.87,3.2,15.9,15.9,0,0,0,0,9.2,8.6,8.6,0,0,0,1.87,3.2,7.38,7.38,0,0,0,2.81,1.87,10.26,10.26,0,0,0,7,0,7.42,7.42,0,0,0,2.82-1.87,8.74,8.74,0,0,0,1.87-3.2,16.13,16.13,0,0,0,0-9.2Z"/><path class="cls-1" d="M61.8,65.82l-2,0c-.69,0-1.37,0-2.06.07l-2,.13c-.63,0-1.2.1-1.71.17a4.32,4.32,0,0,0,.18-1.15A5,5,0,0,0,54.09,64l4.65.13c1.51,0,3,0,4.62,0s3.11,0,4.62,0L72.63,64a5,5,0,0,0-.18,1.15,4.23,4.23,0,0,0,.18,1.11c-.51-.07-1.08-.13-1.71-.17l-2-.13c-.69,0-1.37-.06-2.06-.07l-2,0q-.11,3.71-.11,7.46v6.19c0,1.59,0,3.15.1,4.69s.12,3,.2,4.54c-.55,0-1.13-.07-1.75-.07s-1.2,0-1.75.07c.08-1.49.15-3,.21-4.54s.1-3.1.1-4.69l-.06-6.19Q61.86,69.53,61.8,65.82Z"/><path class="cls-1" d="M76.06,70.79c0-1.36-.11-2.73-.17-4.09l2.86.13c1,0,1.9,0,2.86,0s1.91,0,2.85,0l2.85-.13a4.71,4.71,0,0,0,0,1.93l-1.87-.11-1.8-.12-2.06-.1c-.75,0-1.64,0-2.69,0,0,.68,0,1.32-.08,1.94s0,1.31,0,2.09,0,1.64,0,2.42,0,1.38,0,1.78c.94,0,1.78,0,2.53,0l2-.08,1.72-.09c.52,0,1-.07,1.48-.12a5.47,5.47,0,0,0-.09,1,5.2,5.2,0,0,0,.09,1c-.55-.07-1.2-.12-1.93-.16s-1.47-.07-2.21-.08l-2.08,0-1.55,0c0,.19,0,.4,0,.62s0,.51,0,.85v3.16c0,1.21,0,2.21,0,3s0,1.38,0,1.79h2.24c.81,0,1.6,0,2.38-.05s1.52-.07,2.21-.12a15.47,15.47,0,0,0,1.81-.22,2.49,2.49,0,0,0-.08.5c0,.18,0,.34,0,.49a2.84,2.84,0,0,0,.1.84c-1,0-1.92-.07-2.87-.07H78.8c-1,0-1.93,0-2.91.07.06-1.37.12-2.73.17-4.09s.08-2.74.08-4.15V75C76.14,73.55,76.11,72.16,76.06,70.79Z"/><path class="cls-1" d="M109.5,88.7a5.21,5.21,0,0,0-.85-.07H107a5.21,5.21,0,0,0-.85.07q-.22-.74-.6-1.77c-.26-.69-.54-1.41-.85-2.17l-1-2.29c-.32-.77-.61-1.51-.89-2.21l-2.08-.05H96.66l-2,.05q-1,2.47-1.85,4.73c-.56,1.49-1,2.73-1.25,3.71a8.86,8.86,0,0,0-1.19-.07,8.71,8.71,0,0,0-1.18.07q2.6-5.6,5.06-11.13c1.64-3.68,3.29-7.44,5-11.25h.6l1.67,4c.59,1.44,1.2,2.89,1.82,4.37s1.24,2.92,1.86,4.37L107,83.12l1.47,3.34C108.86,87.44,109.22,88.18,109.5,88.7ZM95.32,78.76l1.73,0,1.73,0c.59,0,1.19,0,1.79,0l1.79,0-3.55-8.13Z"/><path class="cls-1" d="M119.37,75.14q2.25,4.29,4.72,8.79l.93-1.74c.4-.76.87-1.62,1.4-2.6s1.11-2,1.72-3.18,1.22-2.3,1.85-3.47,1.25-2.33,1.87-3.45l1.73-3.17H134c.23,2.05.45,4,.65,5.93s.41,3.78.63,5.63.42,3.66.64,5.46.45,3.59.7,5.36a3.81,3.81,0,0,0-.75-.07h-1.5a4,4,0,0,0-.76.07c-.23-2.84-.47-5.59-.7-8.25s-.52-5.38-.86-8.15H132q-2.2,4-4.34,8t-4,8.32h-.29q-1.92-4-4-8.07c-1.39-2.69-2.8-5.45-4.2-8.26H115c-.15,1.32-.31,2.75-.49,4.3s-.35,3.07-.5,4.57-.28,2.92-.39,4.25-.15,2.42-.15,3.28a7.92,7.92,0,0,0-1.12-.07,7.73,7.73,0,0,0-1.12.07q.4-2.6.86-5.47t.86-5.79q.42-2.91.77-5.73c.23-1.89.44-3.68.61-5.39h.54C116.38,69.35,117.86,72.29,119.37,75.14Z"/><path class="cls-2" d="M1.1,102.12,1,100.07l1.43.07c.47,0,1,0,1.43,0s1,0,1.42,0l1.43-.07a2.81,2.81,0,0,0,0,.49,2.61,2.61,0,0,0,0,.48L5.78,101l-.89-.06-1-.05c-.37,0-.82,0-1.34,0,0,.34,0,.66,0,1s0,.65,0,1,0,.82,0,1.21,0,.69,0,.89H3.74l1,0,.85,0,.75-.06a2.07,2.07,0,0,0,0,.5,2,2,0,0,0,0,.48c-.28,0-.6-.06-1-.08l-1.1,0-1,0H2.48c0,.09,0,.2,0,.31s0,.25,0,.42V108c0,.61,0,1.11,0,1.5s0,.69,0,.9H3.6c.4,0,.8,0,1.19,0s.76,0,1.11-.06a6.92,6.92,0,0,0,.9-.11,1,1,0,0,0,0,.25,2.18,2.18,0,0,0,0,.25,1.47,1.47,0,0,0,0,.41l-1.43,0H2.46l-1.45,0,.09-2c0-.67,0-1.37,0-2.07v-2.75C1.14,103.5,1.12,102.81,1.1,102.12Z"/><path class="cls-2" d="M14.91,104.78a1.52,1.52,0,0,0-1.28-.61,1.93,1.93,0,0,0-1.64.68,3.14,3.14,0,0,0-.53,1.93v1.36c0,.48,0,1,0,1.51s0,1,.1,1.42q-.36,0-.72,0l-.72,0c0-.42.09-.9.1-1.43s0-1,0-1.51v-1.66c0-.48,0-1,0-1.51s-.05-1-.1-1.47a4.71,4.71,0,0,0,.73.08l.28,0,.37-.05c0,.42-.07.85-.07,1.27h0a3.28,3.28,0,0,1,1.07-1.06,2.84,2.84,0,0,1,1.49-.38,3.5,3.5,0,0,1,.9.13,2.22,2.22,0,0,1,.83.44,2.4,2.4,0,0,1,.6.85,3.54,3.54,0,0,1,.23,1.36c0,.46,0,.93,0,1.42s0,1,0,1.54v1c0,.17,0,.34,0,.5s0,.33,0,.47c-.22,0-.44,0-.68,0s-.45,0-.66,0c0-.55.05-1.12.08-1.7s0-1.19,0-1.8v-1A3,3,0,0,0,14.91,104.78Z"/><path class="cls-2" d="M21.88,103.52a4,4,0,0,1,1.25-.2,3.21,3.21,0,0,1,1.05.17A2.31,2.31,0,0,1,25,104a2.37,2.37,0,0,1,.53.75,2.4,2.4,0,0,1,.19,1c0,.61,0,1.22,0,1.82s0,1.24,0,1.91c0,.13,0,.27,0,.41a1.12,1.12,0,0,0,.07.38.62.62,0,0,0,.18.28.49.49,0,0,0,.36.12h.17a.58.58,0,0,0,.17-.06v.36a2.94,2.94,0,0,1-.44.13,3.52,3.52,0,0,1-.58,0,1.09,1.09,0,0,1-.8-.27,1.05,1.05,0,0,1-.33-.69,4.1,4.1,0,0,1-1.12.85,3.13,3.13,0,0,1-1.37.27,2.87,2.87,0,0,1-.77-.11,1.87,1.87,0,0,1-.68-.37,2,2,0,0,1-.47-.61,1.8,1.8,0,0,1-.18-.82,1.88,1.88,0,0,1,.59-1.48,3.3,3.3,0,0,1,1.65-.71c.57-.09,1-.17,1.34-.24a3.29,3.29,0,0,0,.72-.22.46.46,0,0,0,.27-.26,1.09,1.09,0,0,0,.05-.39,3.25,3.25,0,0,0-.09-.77,1.86,1.86,0,0,0-.31-.63,1.56,1.56,0,0,0-.54-.44,1.87,1.87,0,0,0-.82-.17,2.58,2.58,0,0,0-1.19.29,1.87,1.87,0,0,0-.82.8h-.18v-.83A4.45,4.45,0,0,1,21.88,103.52Zm2,3.73-.72.14a6,6,0,0,0-.73.19,2.16,2.16,0,0,0-.63.3,1.38,1.38,0,0,0-.44.49,1.47,1.47,0,0,0-.17.74,1.45,1.45,0,0,0,.43,1.14,1.37,1.37,0,0,0,.95.39,2,2,0,0,0,1.1-.34,2.62,2.62,0,0,0,.77-.79l.06-2.42A3.29,3.29,0,0,1,23.88,107.25Z"/><path class="cls-2" d="M36.49,108.77a4.29,4.29,0,0,1-.77,1.32,3.41,3.41,0,0,1-1.15.85,3.62,3.62,0,0,1-1.43.29,2.88,2.88,0,0,1-1.39-.33,2.53,2.53,0,0,1-.93-.79q-.59.47-1.08.93h-.28c0-.26,0-.57.05-.93s0-.75,0-1.16,0-.83,0-1.25,0-.83,0-1.19v-2.89c0-.36,0-.76,0-1.19s0-.84,0-1.26,0-.81,0-1.19,0-.7-.05-1a3.84,3.84,0,0,0,.71.1,2.31,2.31,0,0,0,.37,0L31,99c0,.21-.06.55-.08,1s0,1-.05,1.55,0,1.16,0,1.76,0,1.15,0,1.64h0a3.75,3.75,0,0,1,1.2-1.26,2.92,2.92,0,0,1,1.52-.4,3.12,3.12,0,0,1,1.44.32,3,3,0,0,1,1,.82,3.81,3.81,0,0,1,.6,1.19,5.15,5.15,0,0,1,.2,1.43A5,5,0,0,1,36.49,108.77Zm-1.31-3a3.26,3.26,0,0,0-.49-.95,1.92,1.92,0,0,0-.69-.58,1.8,1.8,0,0,0-.81-.2,2.37,2.37,0,0,0-.95.19,1.93,1.93,0,0,0-.8.6,3.22,3.22,0,0,0-.53,1.1,5.67,5.67,0,0,0-.2,1.66c0,2.14.78,3.2,2.34,3.2a1.69,1.69,0,0,0,.91-.26,2.32,2.32,0,0,0,.73-.76,3.84,3.84,0,0,0,.49-1.18,5.92,5.92,0,0,0,.18-1.52A4.3,4.3,0,0,0,35.18,105.74Z"/><path class="cls-2" d="M40.42,102.44c0-.43,0-.85,0-1.27s0-.81,0-1.19,0-.7,0-1a3.84,3.84,0,0,0,.71.1,3.93,3.93,0,0,0,.72-.1c0,.27,0,.59-.05,1s0,.78,0,1.19,0,.84,0,1.27,0,.82,0,1.18v2.89c0,.37,0,.76,0,1.19s0,.85,0,1.26,0,.81,0,1.19,0,.68.05.92q-.36,0-.72,0l-.71,0c0-.24,0-.55,0-.92s0-.77,0-1.19,0-.84,0-1.26,0-.82,0-1.19v-2.89C40.43,103.26,40.43,102.86,40.42,102.44Z"/><path class="cls-2" d="M46.26,100.13a.78.78,0,0,1,.57-.24.8.8,0,0,1,.58.24.82.82,0,0,1,0,1.14.8.8,0,0,1-.58.24.81.81,0,0,1-.57-1.38Zm0,4.83a13.43,13.43,0,0,0-.1-1.48,3.28,3.28,0,0,0,1.44,0c0,.46-.09,1-.1,1.48s0,1,0,1.51v1.66c0,.48,0,1,0,1.51s0,1,.1,1.43q-.36,0-.72,0l-.72,0a11.88,11.88,0,0,0,.1-1.43c0-.52,0-1,0-1.51v-1.66C46.24,106,46.23,105.49,46.21,105Z"/><path class="cls-2" d="M56.39,104.78a1.5,1.5,0,0,0-1.28-.61,2,2,0,0,0-1.64.68,3.21,3.21,0,0,0-.52,1.93v1.36c0,.48,0,1,0,1.51s.05,1,.1,1.42l-.72,0q-.36,0-.72,0c0-.42.08-.9.1-1.43s0-1,0-1.51v-1.66c0-.48,0-1,0-1.51s-.05-1-.1-1.47a4.71,4.71,0,0,0,.73.08l.28,0,.36-.05c0,.42-.06.85-.06,1.27h0a3.3,3.3,0,0,1,1.08-1.06,2.82,2.82,0,0,1,1.49-.38,3.56,3.56,0,0,1,.9.13,2.3,2.3,0,0,1,.83.44,2.4,2.4,0,0,1,.6.85,3.54,3.54,0,0,1,.23,1.36c0,.46,0,.93,0,1.42s0,1,0,1.54v1.54c0,.17,0,.33,0,.47-.22,0-.45,0-.68,0s-.45,0-.67,0c0-.55.05-1.12.08-1.7s0-1.19,0-1.8v-1A3,3,0,0,0,56.39,104.78Z"/><path class="cls-2" d="M61.73,104.77a2.36,2.36,0,0,1,.66-.81,3.2,3.2,0,0,1,1-.48,4.48,4.48,0,0,1,1.18-.16l.58,0,.72,0,.65,0,.47,0a6.63,6.63,0,0,0,1.3-.09l0,.17v.34l0,.17-.91-.07-.88,0,0,0a2,2,0,0,1,.8.84,2.43,2.43,0,0,1,.3,1.17,2.32,2.32,0,0,1-.8,1.87,3.22,3.22,0,0,1-2.17.68h-.43l-.44,0a.84.84,0,0,0-.54.21.64.64,0,0,0-.24.52.78.78,0,0,0,.2.6,1.17,1.17,0,0,0,.74.2l.88,0,.88,0a4.41,4.41,0,0,1,1.25.18,2.51,2.51,0,0,1,.85.43,1.61,1.61,0,0,1,.48.63,1.92,1.92,0,0,1,.15.77,3.27,3.27,0,0,1-.21,1.13,2.93,2.93,0,0,1-.68,1,3.4,3.4,0,0,1-1.18.77,4.47,4.47,0,0,1-1.73.3,4.27,4.27,0,0,1-2.45-.61,1.94,1.94,0,0,1-.9-1.69,1.91,1.91,0,0,1,.15-.76,2.23,2.23,0,0,1,.39-.63,2.05,2.05,0,0,1,.55-.43,3.61,3.61,0,0,1,.62-.24v0a1.45,1.45,0,0,1-.74-.48,1.27,1.27,0,0,1-.25-.8,1.13,1.13,0,0,1,.1-.49,1.84,1.84,0,0,1,.26-.4,1.44,1.44,0,0,1,.37-.28,1.36,1.36,0,0,1,.39-.15v0a2.67,2.67,0,0,1-1.15-.9,2.51,2.51,0,0,1-.41-1.46A2.61,2.61,0,0,1,61.73,104.77Zm4.89,6.66a3.39,3.39,0,0,0-1.86-.39,3.63,3.63,0,0,0-1.86.39,1.52,1.52,0,0,0-.66,1.42,2.13,2.13,0,0,0,.18.92,1.71,1.71,0,0,0,.5.62,2,2,0,0,0,.75.35,3.38,3.38,0,0,0,.93.12,3.74,3.74,0,0,0,.94-.13,3,3,0,0,0,.83-.38,2.12,2.12,0,0,0,.58-.65,1.83,1.83,0,0,0,.23-.93A1.51,1.51,0,0,0,66.62,111.43Zm-.8-7.11a1.79,1.79,0,0,0-2.6.06,2.34,2.34,0,0,0-.48,1.55,2.61,2.61,0,0,0,.44,1.59,1.82,1.82,0,0,0,2.15.4,1.72,1.72,0,0,0,.55-.49,2.36,2.36,0,0,0,.32-.72,3.44,3.44,0,0,0,.1-.86A2.19,2.19,0,0,0,65.82,104.32Z"/><path class="cls-2" d="M77.41,109.62a2.71,2.71,0,0,0,.53.54,2.69,2.69,0,0,0,1.65.54,2.24,2.24,0,0,0,1-.19,2.14,2.14,0,0,0,.72-.49,2.25,2.25,0,0,0,.46-.74,2.72,2.72,0,0,0,.16-.91,1.73,1.73,0,0,0-.38-1.17,3.05,3.05,0,0,0-.93-.72,12.24,12.24,0,0,0-1.21-.53,6.49,6.49,0,0,1-1.21-.6,3.26,3.26,0,0,1-.93-.92,2.7,2.7,0,0,1-.37-1.51,3.07,3.07,0,0,1,.24-1.23,2.62,2.62,0,0,1,.69-1,3.3,3.3,0,0,1,1.1-.63,4.35,4.35,0,0,1,1.44-.22,4.41,4.41,0,0,1,1.33.18,3.22,3.22,0,0,1,1,.57,2.72,2.72,0,0,0-.24.58c-.07.2-.13.46-.2.76h-.19a3.71,3.71,0,0,0-.21-.48,1.92,1.92,0,0,0-.37-.49,2.15,2.15,0,0,0-.55-.38,1.82,1.82,0,0,0-.77-.15,2.49,2.49,0,0,0-.83.14,2.17,2.17,0,0,0-.65.41,1.81,1.81,0,0,0-.43.63,2,2,0,0,0-.15.8,1.77,1.77,0,0,0,.37,1.19,3.05,3.05,0,0,0,.93.72,8.84,8.84,0,0,0,1.21.53,7.9,7.9,0,0,1,1.21.57,3.19,3.19,0,0,1,.93.86,2.42,2.42,0,0,1,.38,1.41,3.59,3.59,0,0,1-.27,1.39,3.3,3.3,0,0,1-.76,1.15,3.58,3.58,0,0,1-1.24.75,4.69,4.69,0,0,1-1.65.26A4.28,4.28,0,0,1,77.6,111a4.35,4.35,0,0,1-1-.58,3.76,3.76,0,0,0,.2-.67c0-.19.07-.45.11-.75h.19A3.23,3.23,0,0,0,77.41,109.62Z"/><path class="cls-2" d="M86.24,105.51a3.61,3.61,0,0,1,.92-1.23,3.57,3.57,0,0,1,1.31-.72,4.8,4.8,0,0,1,1.5-.24,5.16,5.16,0,0,1,1.58.22,2.82,2.82,0,0,1,1,.48,2.75,2.75,0,0,0-.2.5c-.06.18-.11.36-.16.55h-.12a2.26,2.26,0,0,0-.31-.42,2.18,2.18,0,0,0-.45-.4,2.37,2.37,0,0,0-.59-.31,2,2,0,0,0-.7-.12,2.67,2.67,0,0,0-1.24.27,2.32,2.32,0,0,0-.85.73,3.14,3.14,0,0,0-.48,1.1,5.93,5.93,0,0,0-.15,1.37,3.8,3.8,0,0,0,.7,2.5,2.53,2.53,0,0,0,2.07.85,2.48,2.48,0,0,0,.65-.09,4.06,4.06,0,0,0,.66-.25,3.73,3.73,0,0,0,.6-.37,3.07,3.07,0,0,0,.49-.46l.08,0a4.17,4.17,0,0,0-.1.78,4.34,4.34,0,0,1-1.19.66,4.17,4.17,0,0,1-1.48.27,5.19,5.19,0,0,1-1.39-.2,3.37,3.37,0,0,1-1.25-.67,3.58,3.58,0,0,1-.91-1.22,4.54,4.54,0,0,1-.34-1.84A4.26,4.26,0,0,1,86.24,105.51Z"/><path class="cls-2" d="M96.21,100.13a.8.8,0,1,1-.24.57A.78.78,0,0,1,96.21,100.13Zm0,4.83c0-.53,0-1-.11-1.48a3.72,3.72,0,0,0,.72.08,3.64,3.64,0,0,0,.72-.08c0,.46-.08,1-.1,1.48s0,1,0,1.51v1.66c0,.48,0,1,0,1.51s0,1,.1,1.43q-.36,0-.72,0l-.72,0a14.16,14.16,0,0,0,.11-1.43c0-.52,0-1,0-1.51v-1.66C96.19,106,96.18,105.49,96.17,105Z"/><path class="cls-2" d="M101.87,104.44a3.37,3.37,0,0,1,2.73-1.12,3.62,3.62,0,0,1,1.46.27,3,3,0,0,1,1,.7,2.61,2.61,0,0,1,.61,1,3.7,3.7,0,0,1,.2,1.26v.31l0,.31-1.7,0c-.57,0-1.13,0-1.71,0-.35,0-.7,0-1,0l-1,0a.7.7,0,0,0,0,.24v.21a3.52,3.52,0,0,0,.19,1.18,2.62,2.62,0,0,0,.53.94,2.46,2.46,0,0,0,.86.63,2.78,2.78,0,0,0,1.19.24,2.48,2.48,0,0,0,.65-.09,4.44,4.44,0,0,0,.66-.25,3.73,3.73,0,0,0,.6-.37,2.63,2.63,0,0,0,.48-.46l.08,0-.09.78a4.34,4.34,0,0,1-1.19.66,4.17,4.17,0,0,1-1.48.27,4.67,4.67,0,0,1-1.58-.26,3.56,3.56,0,0,1-1.23-.77,3.35,3.35,0,0,1-.79-1.19,3.82,3.82,0,0,1-.28-1.48A4.69,4.69,0,0,1,101.87,104.44Zm1.77-.35a2.41,2.41,0,0,0-.67.68,3.11,3.11,0,0,0-.4.89,4.65,4.65,0,0,0-.17.91l1,.05,1,0,1.07,0,1-.05a5.81,5.81,0,0,0-.07-.9,2.66,2.66,0,0,0-.29-.89,2,2,0,0,0-.59-.69,1.72,1.72,0,0,0-1-.27A1.74,1.74,0,0,0,103.64,104.09Z"/><path class="cls-2" d="M115.71,104.78a1.52,1.52,0,0,0-1.28-.61,2,2,0,0,0-1.65.68,3.21,3.21,0,0,0-.52,1.93v1.36c0,.48,0,1,0,1.51s0,1,.1,1.42q-.36,0-.72,0c-.23,0-.48,0-.72,0,0-.42.09-.9.1-1.43s0-1,0-1.51v-1.66c0-.48,0-1,0-1.51s0-1-.1-1.47a4.71,4.71,0,0,0,.73.08l.28,0,.37-.05c0,.42-.07.85-.07,1.27h0a3.28,3.28,0,0,1,1.07-1.06,2.84,2.84,0,0,1,1.49-.38,3.5,3.5,0,0,1,.9.13,2.22,2.22,0,0,1,.83.44,2.4,2.4,0,0,1,.6.85,3.54,3.54,0,0,1,.23,1.36c0,.46,0,.93,0,1.42s0,1,0,1.54v1c0,.17,0,.34,0,.5s0,.33,0,.47c-.22,0-.44,0-.68,0s-.45,0-.66,0c0-.55,0-1.12.08-1.7s0-1.19,0-1.8v-1A3,3,0,0,0,115.71,104.78Z"/><path class="cls-2" d="M121,105.51a3.49,3.49,0,0,1,.92-1.23,3.45,3.45,0,0,1,1.3-.72,4.8,4.8,0,0,1,1.5-.24,5.11,5.11,0,0,1,1.58.22,2.73,2.73,0,0,1,1,.48c-.07.16-.14.32-.2.5a4.94,4.94,0,0,0-.15.55h-.13a2.19,2.19,0,0,0-.3-.42,2.24,2.24,0,0,0-.46-.4,2.49,2.49,0,0,0-.58-.31,2,2,0,0,0-.71-.12,2.67,2.67,0,0,0-1.24.27,2.29,2.29,0,0,0-.84.73,3.35,3.35,0,0,0-.49,1.1,5.93,5.93,0,0,0-.15,1.37,3.8,3.8,0,0,0,.71,2.5,2.5,2.5,0,0,0,2.06.85,2.61,2.61,0,0,0,.66-.09,4,4,0,0,0,.65-.25,3,3,0,0,0,.6-.37,2.69,2.69,0,0,0,.49-.46l.08,0a5.2,5.2,0,0,0-.1.78A4.2,4.2,0,0,1,126,111a4.13,4.13,0,0,1-1.48.27,5.06,5.06,0,0,1-1.38-.2,3.49,3.49,0,0,1-1.26-.67,3.44,3.44,0,0,1-.9-1.22,4.38,4.38,0,0,1-.34-1.84A4.11,4.11,0,0,1,121,105.51Z"/><path class="cls-2" d="M130.85,104.44a3.36,3.36,0,0,1,2.72-1.12,3.59,3.59,0,0,1,1.46.27,2.94,2.94,0,0,1,1,.7,2.64,2.64,0,0,1,.62,1,4,4,0,0,1,.2,1.26c0,.1,0,.21,0,.31s0,.2,0,.31l-1.71,0c-.56,0-1.13,0-1.7,0-.35,0-.7,0-1.05,0l-1,0a.7.7,0,0,0,0,.24v.21a3.79,3.79,0,0,0,.18,1.18,2.49,2.49,0,0,0,.54.94,2.37,2.37,0,0,0,.86.63,2.76,2.76,0,0,0,1.18.24,2.56,2.56,0,0,0,.66-.09,4,4,0,0,0,.65-.25,3,3,0,0,0,.6-.37,2.69,2.69,0,0,0,.49-.46l.08,0-.1.78a4.2,4.2,0,0,1-1.19.66,4.08,4.08,0,0,1-1.47.27,4.67,4.67,0,0,1-1.58-.26,3.56,3.56,0,0,1-1.23-.77,3.38,3.38,0,0,1-.8-1.19,3.82,3.82,0,0,1-.28-1.48A4.64,4.64,0,0,1,130.85,104.44Zm1.76-.35a2.37,2.37,0,0,0-.66.68,3.11,3.11,0,0,0-.4.89,4.65,4.65,0,0,0-.17.91l1,.05,1,0,1.07,0,1-.05a7.38,7.38,0,0,0-.07-.9,2.91,2.91,0,0,0-.29-.89,1.89,1.89,0,0,0-.6-.69,1.69,1.69,0,0,0-1-.27A1.8,1.8,0,0,0,132.61,104.09Z"/><rect class="cls-3" x="0.25" y="23.48" width="22.14" height="2.78"/><rect class="cls-4" x="0.25" y="33.99" width="22.14" height="2.78"/><rect class="cls-4" x="0.25" y="37.67" width="22.14" height="2.78"/><rect class="cls-5" x="0.25" y="51.01" width="22.14" height="2.78"/><rect class="cls-4" x="28.52" y="13.82" width="22.14" height="2.78"/><rect class="cls-3" x="28.52" y="23.88" width="22.14" height="2.78"/><rect class="cls-4" x="28.52" y="28.41" width="22.14" height="2.78"/><rect class="cls-5" x="28.52" y="37.16" width="22.14" height="2.78"/><rect class="cls-4" x="28.52" y="51.38" width="22.14" height="2.78"/><rect class="cls-5" x="28.52" y="6.75" width="22.14" height="2.78"/><rect class="cls-5" x="56.99" y="7.07" width="22.14" height="2.78"/><rect class="cls-5" x="56.99" y="17.13" width="22.14" height="2.78"/><rect class="cls-3" x="56.99" y="40.04" width="22.14" height="2.78"/><rect class="cls-4" x="56.99" y="47.26" width="22.14" height="2.78"/><rect class="cls-4" x="56.99" width="22.14" height="2.78"/><rect class="cls-4" x="85.11" y="11.56" width="22.14" height="2.78"/><rect class="cls-4" x="85.11" y="24.74" width="22.14" height="2.78"/><rect class="cls-4" x="85.11" y="34.59" width="22.14" height="2.78"/><rect class="cls-4" x="85.11" y="51.26" width="22.14" height="2.78"/><rect class="cls-3" x="85.11" y="7.61" width="22.14" height="2.78"/><rect class="cls-4" x="112.29" y="30.21" width="22.14" height="2.78"/><rect class="cls-3" x="112.29" y="40.28" width="22.14" height="2.78"/><rect class="cls-4" x="112.29" y="44.04" width="22.14" height="2.78"/><rect class="cls-5" x="112.29" y="51.26" width="22.14" height="2.78"/></svg>